{"glyphs":{"0":{"ha":1028,"x_min":28,"x_max":1000,"o":"m 1000 486 l 514 972 l 28 486 l 514 0 l 1000 486 m 953 486 l 514 46 l 74 486 l 514 925 l 953 486 z "},"1":{"ha":1028,"x_min":28,"x_max":1000,"o":"m 1000 486 q 857 829 1000 688 q 514 972 715 972 q 169 829 313 972 q 28 486 28 688 q 169 142 28 285 q 514 0 313 0 q 857 142 715 0 q 1000 486 1000 285 m 901 486 q 880 360 901 422 q 821 249 858 299 l 276 793 q 514 874 382 874 q 788 760 675 874 q 901 486 901 647 m 750 178 q 640 118 700 139 q 514 97 581 97 q 239 211 353 97 q 125 486 125 325 q 206 722 125 621 l 750 178 z "},"2":{"ha":1031,"x_min":28,"x_max":1003,"o":"m 1003 54 q 992 86 1003 71 l 568 942 q 519 972 554 972 q 471 942 485 972 l 39 86 q 28 54 28 71 q 44 16 28 32 q 82 0 60 0 l 949 0 q 987 16 971 0 q 1003 54 1003 32 m 949 54 l 79 54 l 519 918 l 949 54 m 507 504 q 497 527 507 518 q 474 536 486 536 q 451 527 460 536 q 442 504 442 518 q 474 471 442 471 q 507 504 507 471 m 751 179 l 747 188 l 708 193 l 707 204 l 579 333 l 628 364 l 658 290 l 668 281 l 668 256 l 733 250 l 733 261 l 693 281 l 694 300 l 654 410 l 560 381 l 538 453 l 592 550 l 613 574 q 613 582 615 581 q 603 583 610 583 l 601 593 l 604 601 q 606 608 607 606 q 599 608 604 611 l 582 594 l 581 565 l 518 488 l 458 446 l 421 446 l 394 501 l 393 514 q 386 522 393 522 q 379 511 382 522 l 365 526 q 360 529 363 531 q 358 524 358 528 l 358 511 l 375 482 l 385 482 l 410 410 l 464 413 l 510 328 l 676 178 l 685 176 l 689 158 l 751 179 m 761 94 l 761 115 l 675 115 l 675 163 l 601 163 l 601 210 l 528 210 l 528 256 l 421 256 l 421 233 l 507 233 l 507 188 l 581 188 l 581 142 l 653 142 l 653 94 l 761 94 z "},"3":{"ha":1031,"x_min":28,"x_max":1003,"o":"m 1003 56 q 992 88 1003 72 l 567 943 q 518 972 551 972 q 469 943 486 972 l 39 88 q 28 56 28 72 q 43 15 28 31 q 82 0 58 0 l 949 0 q 987 16 971 0 q 1003 56 1003 32 m 949 56 l 79 56 l 518 918 l 949 56 m 751 165 l 751 249 q 740 275 751 264 q 714 286 729 286 l 686 286 q 642 413 686 363 q 524 464 599 464 q 404 413 449 464 q 360 286 360 363 l 331 286 q 304 275 314 286 q 294 249 294 264 l 294 165 q 305 140 294 150 q 331 129 315 129 l 379 129 l 379 286 q 417 403 379 357 q 522 450 456 450 q 628 403 589 450 q 667 286 667 357 l 667 129 l 714 129 q 740 140 729 129 q 751 165 751 151 z "},"4":{"ha":1156,"x_min":28,"x_max":1128,"o":"m 1122 60 l 614 953 q 603 966 610 960 q 581 972 597 972 q 558 966 565 972 q 546 953 551 960 l 35 64 q 28 39 28 57 q 39 12 28 24 q 65 0 50 0 l 1083 0 q 1113 12 1099 3 q 1128 39 1128 21 q 1122 60 1128 53 m 581 876 l 1035 69 l 118 69 l 581 876 z "},"5":{"ha":1031,"x_min":28,"x_max":1003,"o":"m 1003 54 q 992 86 1003 71 l 567 942 q 518 972 553 972 q 469 942 486 972 l 39 86 q 28 54 28 71 q 43 15 28 31 q 82 0 58 0 l 949 0 q 988 15 972 0 q 1003 54 1003 31 m 949 54 l 79 54 l 518 917 l 949 54 m 738 306 q 688 426 738 376 q 567 476 638 476 q 513 469 535 476 q 469 440 490 461 l 343 307 q 338 294 338 301 q 357 275 338 275 l 422 275 l 422 135 l 567 135 q 688 185 638 135 q 738 306 738 235 m 404 250 l 394 250 q 396 228 396 247 q 394 200 396 217 q 386 147 393 183 q 390 126 386 136 l 401 126 q 396 146 396 136 q 401 184 396 158 q 407 225 407 210 q 404 250 407 236 m 379 189 q 381 206 381 199 q 382 217 382 213 q 379 250 382 236 l 369 250 q 372 224 372 236 q 369 193 372 214 q 363 147 367 172 q 367 126 363 136 l 376 126 q 372 146 372 136 q 374 163 372 153 q 379 189 376 174 m 357 250 l 347 250 q 349 231 349 247 q 347 201 349 218 q 339 147 346 183 q 343 126 339 136 l 353 126 q 349 146 349 136 q 351 163 349 153 q 356 189 353 174 l 358 225 q 357 250 358 246 m 333 250 l 324 250 q 325 228 325 247 q 324 199 325 217 q 315 149 322 182 q 321 126 315 136 l 331 126 q 325 146 325 136 q 331 184 325 158 q 336 225 336 210 q 333 250 336 236 m 308 189 q 310 206 310 199 q 311 217 311 213 q 308 250 311 236 l 299 250 q 301 224 301 236 q 299 193 301 214 q 292 147 296 172 q 296 126 292 136 l 306 126 q 301 146 301 136 q 303 163 301 153 q 308 189 306 174 m 285 189 l 288 225 q 285 250 288 242 l 275 250 q 278 228 278 239 q 276 200 278 217 q 268 147 275 183 q 272 126 268 136 l 282 126 q 278 146 278 136 q 280 163 278 153 q 285 189 282 174 m 263 250 l 253 250 q 254 231 254 247 q 253 201 254 219 q 244 149 251 182 q 250 126 244 136 l 260 126 q 254 146 254 136 q 256 163 254 153 q 261 189 258 174 l 264 225 q 263 250 264 246 m 507 385 q 493 371 507 371 q 479 385 479 371 q 493 399 479 399 q 507 385 507 399 z "},"6":{"ha":1031,"x_min":28,"x_max":1003,"o":"m 1003 56 q 992 88 1003 72 l 567 943 q 518 972 551 972 q 469 943 486 972 l 39 88 q 28 56 28 72 q 43 15 28 31 q 82 0 58 0 l 949 0 q 987 16 971 0 q 1003 56 1003 32 m 949 56 l 79 56 l 518 918 l 949 56 m 718 101 l 718 133 l 628 203 l 628 276 l 718 276 l 718 307 l 551 376 q 576 402 567 386 q 586 435 586 418 q 565 485 586 464 q 517 506 544 506 q 547 543 547 511 q 517 581 547 575 l 517 607 l 510 614 l 504 607 l 504 581 q 474 543 474 575 q 501 507 474 514 q 515 493 501 492 q 557 442 557 482 q 514 392 557 397 l 464 411 q 447 451 450 429 q 444 435 444 446 q 447 418 444 426 l 339 418 l 339 394 l 401 347 l 401 315 l 339 315 l 339 286 l 499 101 l 718 101 m 469 382 l 425 361 l 357 408 l 450 408 q 469 382 457 393 m 674 315 l 493 315 l 438 354 l 479 375 q 515 365 494 365 l 542 369 l 674 315 m 407 242 l 349 306 l 407 306 l 407 242 m 594 133 l 504 133 l 418 231 l 418 297 l 594 133 m 700 133 l 628 133 l 628 189 l 700 133 z "},"7":{"ha":1031,"x_min":28,"x_max":1003,"o":"m 1003 54 q 992 86 1003 71 l 567 942 q 518 971 551 971 q 471 942 485 971 l 39 86 q 28 54 28 71 q 44 16 28 32 q 82 0 60 0 l 949 0 q 988 15 972 0 q 1003 54 1003 31 m 949 54 l 79 54 l 518 917 l 949 54 m 744 149 l 744 263 l 713 263 l 557 350 q 582 400 582 368 q 538 457 582 446 l 538 472 l 550 472 l 585 569 l 567 613 l 464 613 l 447 569 l 482 472 l 496 472 l 496 429 l 515 429 q 536 420 528 429 q 544 400 544 411 q 515 369 544 369 q 486 394 492 369 l 476 401 q 464 385 464 401 q 483 356 468 367 l 318 263 l 288 263 l 288 149 l 744 149 m 703 263 l 328 263 l 486 351 q 522 340 501 340 q 551 347 535 340 l 703 263 z "},"8":{"ha":1028,"x_min":28,"x_max":1000,"o":"m 1000 486 q 857 829 1000 688 q 514 972 715 972 q 169 829 313 972 q 28 486 28 688 q 169 142 28 285 q 514 0 313 0 q 857 142 715 0 q 1000 486 1000 285 m 886 489 l 643 489 q 579 601 643 563 l 699 810 q 837 674 788 758 q 886 489 886 589 m 447 597 q 383 486 383 563 l 142 486 q 192 674 142 590 q 326 807 242 758 l 447 597 m 586 486 q 565 435 586 457 q 514 414 543 414 q 461 435 482 414 q 440 486 440 456 q 463 538 440 517 q 514 558 485 558 q 565 538 544 558 q 586 486 586 517 m 699 164 q 514 115 613 115 q 326 164 413 115 l 449 374 q 510 356 475 356 q 545 360 529 356 q 578 375 561 364 l 699 164 z "},"9":{"ha":1028,"x_min":28,"x_max":1000,"o":"m 1000 486 l 514 972 l 28 486 l 514 0 l 1000 486 m 972 490 l 54 490 l 514 950 l 972 490 m 972 483 l 514 24 l 54 483 l 972 483 m 658 665 q 585 792 658 750 l 538 710 q 563 665 563 694 l 658 665 m 486 708 l 439 790 q 386 738 406 771 q 367 664 367 704 l 461 664 q 486 708 461 693 m 540 664 q 513 693 540 693 q 485 664 485 693 q 513 636 485 636 q 540 664 540 636 m 585 538 l 538 621 q 513 614 521 614 q 486 621 497 614 l 440 538 q 511 519 471 519 q 585 538 550 519 m 593 383 l 597 403 l 590 403 l 589 397 q 578 383 589 383 q 565 394 567 383 q 564 413 564 406 q 578 442 564 442 q 590 425 588 442 l 597 425 q 578 447 599 447 q 561 440 567 447 q 556 413 556 432 q 579 376 556 376 q 593 383 586 376 m 499 413 q 475 447 499 447 q 458 440 464 447 q 453 413 453 433 q 458 383 453 390 q 475 376 464 376 q 499 413 499 376 m 760 378 l 760 385 l 733 385 l 733 410 l 758 410 l 758 417 l 733 417 l 733 439 l 760 439 l 760 446 l 725 446 l 725 378 l 760 378 m 719 446 l 711 446 l 696 383 l 679 446 l 671 446 l 690 378 l 700 378 l 719 446 m 663 378 l 663 446 l 654 446 l 654 378 l 663 378 m 646 439 l 646 446 l 601 446 l 601 439 l 621 439 l 621 378 l 628 378 l 628 439 l 646 439 m 551 378 l 533 446 l 522 446 l 503 378 l 511 378 l 517 397 l 538 397 l 543 378 l 551 378 m 440 378 l 440 446 l 432 446 l 432 378 l 440 378 m 418 413 q 415 436 419 426 q 394 446 410 446 l 376 446 l 376 378 l 396 378 q 413 385 407 378 q 418 413 418 392 m 368 378 l 349 446 l 339 446 l 319 378 l 328 378 l 333 397 l 356 397 l 361 378 l 368 378 m 307 378 l 317 379 l 314 383 l 313 399 q 300 413 308 410 q 314 426 313 413 q 290 446 314 446 l 272 446 l 272 378 l 281 378 l 281 408 l 293 408 q 304 396 304 408 l 307 378 m 306 428 q 292 415 306 419 l 281 415 l 281 439 l 290 439 q 306 428 303 439 m 536 404 l 518 404 l 526 442 l 536 404 m 353 404 l 336 404 l 344 442 l 353 404 m 490 413 q 475 383 490 383 q 460 413 460 383 q 475 442 460 442 q 490 413 490 442 m 411 413 q 396 385 411 385 l 383 385 l 383 439 l 396 439 q 411 413 411 439 z "}," ":{"ha":836,"x_min":0,"x_max":0,"o":""},"!":{"ha":1154,"x_min":28,"x_max":1126,"o":"m 1122 61 l 614 953 q 603 966 610 960 q 581 972 596 972 q 557 966 564 972 q 544 953 550 960 l 33 64 q 28 42 28 57 q 39 13 28 26 q 65 0 50 0 l 1083 0 q 1113 12 1100 3 q 1126 40 1126 21 q 1122 61 1126 44 m 581 876 l 1035 71 l 118 71 l 581 876 m 576 713 q 538 706 551 713 q 516 688 524 699 q 506 663 508 676 q 501 638 503 650 l 535 328 q 548 301 540 314 q 575 289 556 289 q 605 301 597 289 q 617 326 613 314 l 651 639 q 645 665 649 651 q 634 688 642 678 q 613 706 626 699 q 576 713 599 713 m 504 174 q 525 121 504 142 q 578 100 546 100 q 631 122 608 100 q 653 174 653 144 q 631 226 653 206 q 578 247 608 247 q 526 226 547 247 q 504 174 504 204 z "},"\"":{"ha":1129,"x_min":28,"x_max":1101,"o":"m 769 693 q 676 747 728 728 q 565 767 624 767 q 360 692 449 767 q 372 663 369 668 q 380 653 375 660 q 392 638 385 647 q 565 704 464 704 q 738 639 664 704 q 756 666 749 654 q 769 693 763 678 m 1101 335 q 1057 489 1101 415 q 969 588 1013 563 q 935 608 949 600 q 911 621 921 617 q 895 627 901 625 q 882 632 889 629 q 887 669 886 654 q 888 694 888 683 q 847 854 888 782 q 733 971 806 926 q 717 964 717 981 q 722 950 717 956 q 800 776 800 881 q 740 618 800 683 q 592 543 682 554 l 592 508 q 633 442 633 490 l 660 425 q 743 496 693 471 q 847 521 793 521 q 934 504 894 521 q 1003 462 974 488 q 1052 403 1033 436 q 1078 336 1071 369 q 1090 322 1082 322 q 1101 335 1099 322 m 538 508 l 536 542 q 388 618 447 551 q 328 775 328 683 q 349 871 328 826 q 390 936 369 917 q 411 963 411 956 q 407 971 411 968 q 396 969 403 974 q 281 853 321 925 q 240 693 240 781 q 242 662 240 671 q 247 632 243 653 q 163 590 215 622 q 69 489 113 561 q 28 333 28 415 q 36 321 28 321 q 51 335 46 321 q 78 401 60 368 q 126 461 97 435 q 193 503 154 488 q 279 519 232 519 q 385 494 333 519 q 469 425 436 469 l 497 443 q 538 508 493 489 m 885 447 l 881 504 l 850 504 q 835 504 844 504 q 817 503 825 504 q 822 474 819 488 q 824 447 824 460 q 774 292 824 358 q 644 201 725 226 q 674 146 656 168 q 827 263 769 182 q 885 447 885 343 m 486 201 q 356 294 406 228 q 307 447 307 360 q 314 503 307 468 q 300 504 308 504 q 283 504 293 504 q 268 504 278 504 q 250 503 258 504 l 246 447 q 304 263 246 346 q 456 147 365 181 q 474 177 467 165 q 486 201 481 189 m 932 40 q 939 50 939 44 q 919 60 939 63 q 850 47 886 47 q 758 65 803 46 q 681 118 714 85 q 628 194 647 151 q 611 282 608 236 q 632 376 611 331 l 606 393 q 565 378 586 378 q 525 393 540 378 l 497 376 q 517 283 517 329 q 500 194 519 238 q 448 118 481 151 q 372 65 415 85 q 283 47 329 46 q 210 60 244 47 q 190 51 190 63 q 229 22 190 44 q 353 0 268 0 q 514 44 438 0 l 564 81 q 576 71 569 75 q 589 61 582 67 q 610 47 596 56 q 646 26 625 39 q 775 1 689 1 q 932 40 860 1 z "},"#":{"ha":1028,"x_min":28,"x_max":1000,"o":"m 1000 486 q 857 829 1000 688 q 514 972 715 972 q 169 829 313 972 q 28 486 28 688 q 169 142 28 285 q 514 0 313 0 q 857 142 715 0 q 1000 486 1000 285 m 899 486 q 786 214 899 326 q 514 101 674 101 q 242 214 356 101 q 129 486 129 328 q 242 757 129 644 q 514 871 356 871 q 786 758 674 871 q 899 486 899 646 m 626 625 q 511 667 574 667 q 396 625 446 667 q 413 593 403 607 q 511 631 454 631 q 607 594 567 631 l 626 625 m 811 424 q 719 576 811 524 l 689 590 l 692 625 q 669 715 692 675 q 606 781 646 756 q 597 778 600 783 q 599 769 594 774 q 642 671 642 731 q 608 582 642 618 q 525 540 575 546 l 525 521 q 549 482 549 510 l 564 475 q 669 528 601 528 q 736 511 704 528 q 797 424 789 479 q 806 417 800 417 q 811 424 811 417 m 494 521 l 494 540 q 412 583 446 546 q 378 671 378 621 q 421 768 378 729 q 424 778 426 774 q 415 781 422 783 q 351 715 374 754 q 328 625 328 675 l 332 590 l 299 576 q 208 422 208 522 q 214 415 210 415 q 226 447 218 415 q 275 504 235 481 q 350 528 315 528 q 457 474 415 528 l 472 485 q 494 521 469 508 m 690 486 l 688 518 l 651 518 l 656 486 q 627 400 656 438 q 554 349 599 363 q 572 318 560 329 q 658 382 626 338 q 690 486 690 426 m 465 349 q 393 400 421 363 q 365 486 365 438 l 369 518 l 335 518 q 333 505 333 513 q 332 486 332 497 q 365 383 332 428 q 449 318 397 338 q 465 349 458 328 m 717 258 q 719 266 722 261 q 710 268 717 271 q 671 263 694 263 q 585 290 633 263 q 538 394 538 317 q 549 447 538 418 l 533 456 q 511 447 525 447 q 488 457 496 447 l 472 447 q 483 394 483 418 q 435 290 483 318 q 351 263 386 263 q 311 268 326 263 q 300 265 303 269 q 304 258 297 261 q 393 236 343 236 q 468 250 444 236 q 499 271 493 265 q 510 282 504 276 l 539 260 q 628 236 579 236 q 717 258 678 236 z "},"$":{"ha":1031,"x_min":28,"x_max":1003,"o":"m 1003 54 q 992 86 1003 71 l 567 942 q 518 972 554 972 q 469 942 483 972 l 38 86 q 28 54 28 76 q 43 15 28 31 q 82 0 58 0 l 947 0 q 987 16 971 0 q 1003 54 1003 32 m 947 54 l 79 54 l 518 918 l 947 54 m 489 524 l 432 522 q 408 519 421 522 q 386 511 396 515 l 407 542 q 354 464 363 521 l 332 433 q 326 393 326 406 q 326 364 326 381 l 326 283 l 489 524 m 713 381 l 713 397 q 711 421 713 418 l 685 381 l 713 381 m 715 446 q 668 518 707 500 l 660 506 q 633 513 653 510 l 590 515 l 599 528 l 533 529 l 507 529 l 344 289 l 344 226 q 358 174 349 192 l 350 161 q 397 115 364 131 l 406 129 q 439 119 426 121 q 483 117 451 117 l 492 117 l 483 103 l 529 103 l 597 103 l 619 106 l 707 232 l 611 232 q 599 197 611 204 q 561 190 588 190 l 542 190 l 550 203 l 533 203 l 499 203 q 464 215 475 204 l 456 201 q 438 232 442 213 q 435 285 435 251 l 442 297 l 443 325 q 442 347 442 336 q 442 369 442 358 q 451 422 442 404 q 490 440 461 440 l 540 442 l 532 428 l 542 428 l 568 428 q 603 419 597 425 l 610 433 q 618 394 618 425 l 681 394 l 715 446 m 733 232 l 733 244 l 726 244 l 642 118 q 665 122 654 119 q 682 128 675 125 l 732 203 l 733 232 m 717 175 l 665 100 q 717 175 708 118 z "},"%":{"ha":1444,"x_min":28,"x_max":1417,"o":"m 1417 694 l 722 1389 l 28 694 l 722 0 l 1417 694 m 854 704 l 768 704 l 768 1310 l 854 1224 l 854 704 m 669 704 l 583 704 l 583 1217 l 669 1303 l 669 704 m 1040 704 l 954 704 l 954 1125 l 1040 1038 l 1040 704 m 483 704 l 397 704 l 397 1032 l 483 1118 l 483 704 m 1225 704 l 1139 704 l 1139 939 l 1225 853 l 1225 704 m 299 704 l 213 704 l 213 846 l 299 933 l 299 704 m 1374 704 l 1325 704 l 1325 754 l 1374 704 m 113 704 l 71 704 l 113 747 l 113 704 m 1374 685 l 722 33 l 71 683 l 1374 685 z "},"&":{"ha":1028,"x_min":28,"x_max":1000,"o":"m 1000 486 l 514 972 l 28 486 l 514 0 l 1000 486 m 976 486 l 821 329 l 208 329 l 51 486 l 208 643 l 821 643 l 976 486 m 882 440 l 882 453 q 863 493 882 478 q 844 526 844 510 q 850 536 846 536 l 854 526 l 854 506 l 881 506 l 881 531 q 850 556 881 556 q 824 549 831 556 q 817 531 817 542 l 817 514 q 836 483 817 500 q 856 446 856 467 l 850 436 l 846 446 l 846 472 l 818 472 l 818 440 q 828 422 818 428 q 850 417 838 417 q 873 423 864 417 q 882 440 882 429 m 713 440 l 713 531 q 704 551 713 546 q 681 556 696 556 q 659 549 668 556 q 650 531 650 543 l 650 440 q 681 417 650 417 q 703 423 694 417 q 713 440 713 429 m 632 419 l 629 443 l 629 469 q 608 492 629 492 q 629 514 629 493 l 629 526 q 597 553 629 553 l 567 553 l 567 419 l 593 419 l 593 482 q 603 467 603 482 l 603 436 q 606 419 603 425 l 632 419 m 547 419 l 547 439 l 524 439 l 524 485 l 546 485 l 546 504 l 524 504 l 524 533 l 547 533 l 547 553 l 497 553 l 497 419 l 547 419 m 475 419 l 475 488 l 442 488 l 442 468 l 449 468 l 449 446 q 443 436 447 436 l 439 446 l 439 526 l 443 536 q 449 526 447 536 l 449 506 l 475 506 l 475 531 q 467 551 475 546 q 443 556 458 556 q 413 531 413 556 l 413 440 q 439 417 413 417 q 460 429 453 417 l 461 419 l 475 419 m 390 419 l 390 553 l 369 553 l 369 465 l 356 553 l 318 553 l 318 419 l 339 419 l 339 524 l 358 419 l 390 419 m 300 419 l 285 553 l 249 553 l 229 419 l 253 419 l 257 456 l 269 456 l 274 419 l 300 419 m 211 443 l 211 529 q 181 553 211 553 l 150 553 l 150 419 l 181 419 q 211 443 211 419 m 797 440 l 797 553 l 771 553 l 771 446 l 765 436 l 761 446 l 761 553 l 733 553 l 733 440 q 743 422 733 428 q 765 417 753 417 q 788 423 779 417 q 797 440 797 429 m 603 506 q 593 497 603 501 l 596 533 q 600 532 597 532 q 603 525 603 529 l 603 506 m 268 475 l 260 475 l 264 531 l 268 475 m 686 446 q 681 436 685 436 l 676 446 l 676 526 l 681 536 q 686 526 685 536 l 686 446 m 186 447 l 176 439 l 181 533 l 186 525 l 186 447 z "},"'":{"ha":1028,"x_min":28,"x_max":1000,"o":"m 1000 486 l 514 971 l 28 486 l 514 0 l 1000 486 m 954 486 l 514 44 l 74 486 l 514 925 l 954 486 m 510 854 l 494 874 l 450 669 l 510 854 m 575 850 l 450 669 l 551 790 l 575 850 m 397 757 l 383 779 l 390 694 l 397 757 m 671 728 l 671 754 l 531 686 l 671 728 m 640 785 l 571 776 l 457 654 l 640 785 m 372 690 l 365 738 l 349 742 l 372 690 m 372 690 l 336 731 l 329 724 l 372 690 m 451 661 l 414 694 l 414 804 l 442 764 l 417 693 l 372 694 l 331 657 l 332 626 l 343 644 l 368 650 l 408 614 l 411 674 l 451 661 m 703 689 l 699 722 l 460 636 l 703 689 m 374 632 l 308 715 l 299 674 l 374 632 m 336 633 l 288 674 l 242 650 l 336 633 m 349 625 l 231 632 l 251 621 l 349 625 m 726 625 l 479 626 l 465 621 l 721 614 l 726 625 m 467 615 l 456 658 l 433 633 l 453 618 l 424 618 l 417 606 l 401 603 l 388 611 l 374 603 l 340 603 l 368 576 l 417 579 l 467 615 m 363 624 l 206 606 l 239 585 l 363 624 m 703 596 l 454 613 l 690 576 l 703 596 m 661 558 l 450 613 l 638 547 l 661 558 m 340 603 l 201 563 l 214 554 l 340 603 m 368 576 l 308 576 l 258 535 l 368 576 m 564 511 l 439 597 l 543 511 l 564 511 m 669 510 l 449 600 l 639 503 l 669 510 m 417 579 l 392 497 l 401 490 l 417 579 m 375 576 l 294 506 l 297 489 l 375 576 m 694 375 l 694 386 l 667 386 l 667 417 l 692 417 l 692 428 l 667 428 l 667 456 l 694 456 l 694 467 l 660 467 l 660 375 l 694 375 m 653 467 l 646 467 l 632 389 l 619 467 l 611 467 l 629 375 l 636 375 l 653 467 m 604 375 l 604 467 l 599 467 l 599 375 l 604 375 m 589 401 q 579 425 589 419 l 565 431 q 560 443 560 432 q 571 458 560 451 q 577 453 572 457 q 582 440 582 450 l 589 440 q 584 459 589 449 q 569 469 579 469 q 553 440 553 469 q 556 426 553 431 q 564 419 560 422 l 574 415 q 583 399 583 410 q 579 388 583 392 q 571 383 575 385 q 558 404 558 383 l 553 404 q 571 372 553 372 q 589 401 589 372 m 546 421 q 540 453 546 438 q 524 469 535 469 q 506 454 511 469 q 501 421 501 439 q 506 390 501 408 q 524 372 510 372 q 540 387 535 372 q 546 421 546 401 m 497 375 l 497 386 l 472 386 l 472 467 l 467 467 l 467 375 l 497 375 m 460 440 q 444 467 460 467 l 424 467 l 424 375 l 431 375 l 431 414 l 444 414 q 460 440 460 414 m 417 375 l 401 422 l 417 467 l 408 467 l 397 432 l 385 467 l 376 467 l 393 422 l 375 375 l 383 375 l 397 413 l 410 375 l 417 375 m 372 375 l 372 386 l 343 386 l 343 417 l 368 417 l 368 428 l 343 428 l 343 456 l 371 456 l 371 467 l 336 467 l 336 375 l 372 375 m 453 440 q 443 424 453 424 l 431 424 l 431 457 l 443 457 q 453 440 453 457 m 540 421 q 524 385 540 385 q 507 421 507 385 q 524 458 507 458 q 540 421 540 458 z "},"(":{"ha":1028,"x_min":28,"x_max":1000,"o":"m 1000 486 l 514 972 l 28 486 l 514 0 l 1000 486 m 953 486 l 514 46 l 74 486 l 514 925 l 953 486 m 654 693 q 647 678 654 690 q 635 653 640 665 q 622 650 629 646 q 619 664 614 654 q 637 703 628 678 q 642 747 646 729 q 632 759 635 761 q 629 749 629 757 q 616 716 629 733 q 586 693 603 699 q 590 714 586 696 q 594 754 594 732 q 585 800 594 782 q 574 810 576 813 q 571 799 571 808 l 571 779 q 568 753 571 760 q 560 742 565 746 q 551 736 554 735 q 549 749 547 738 l 549 765 q 543 811 549 793 q 525 848 539 833 q 511 883 511 863 q 504 901 511 899 q 501 897 503 899 q 499 893 500 896 q 496 876 496 882 q 504 838 493 856 q 517 801 515 821 l 513 781 l 449 833 q 443 833 446 836 q 444 826 440 831 q 451 819 446 825 q 465 804 456 814 q 474 767 479 783 q 463 737 464 743 q 461 719 461 731 q 447 739 457 728 q 428 758 436 750 q 419 760 422 763 q 422 751 417 757 q 433 724 433 736 q 428 704 433 715 q 424 679 424 693 q 418 672 422 674 q 411 676 414 671 q 388 700 404 692 q 379 701 381 704 q 386 689 378 697 q 397 665 393 682 q 400 632 400 647 q 431 581 400 613 q 504 547 461 547 q 486 559 493 554 q 475 574 479 564 q 465 592 471 585 q 444 612 460 601 q 428 629 428 622 q 438 635 428 635 q 460 626 451 635 l 464 622 l 464 629 q 458 658 464 642 q 465 671 458 671 q 470 666 467 674 q 478 647 474 658 q 487 626 482 636 q 496 611 492 615 q 502 610 500 608 q 501 617 504 613 q 493 638 497 624 q 489 671 489 653 q 499 700 489 692 q 503 690 503 700 q 513 659 506 665 q 524 663 521 653 q 519 698 525 675 q 513 729 513 721 q 518 736 513 735 q 535 719 524 735 q 546 679 546 703 q 536 636 546 657 q 538 628 536 631 q 543 633 542 628 l 554 646 q 562 646 558 650 q 563 633 565 642 q 558 625 561 628 q 556 619 556 622 q 558 613 554 615 q 567 617 561 610 l 578 639 q 583 646 581 647 q 586 632 586 644 q 578 585 586 604 q 550 551 569 567 q 654 693 654 576 m 635 525 l 635 533 l 400 533 l 400 525 l 635 525 m 790 428 q 781 453 790 447 l 767 458 q 761 471 761 460 q 772 486 761 479 q 785 467 782 486 l 790 467 q 785 488 789 481 q 771 496 782 496 q 756 468 756 496 q 760 451 756 456 q 765 447 764 447 l 775 443 q 785 428 785 438 q 772 413 785 413 q 760 433 760 413 l 754 433 l 758 410 q 772 401 764 401 q 790 428 790 401 m 750 404 l 732 494 l 726 494 l 708 404 l 714 404 l 719 431 l 739 431 l 743 404 l 750 404 m 703 404 l 703 451 l 682 451 l 682 442 l 697 442 q 693 420 697 425 q 682 413 689 415 q 669 423 672 413 q 667 449 667 433 q 681 486 667 486 q 696 467 693 486 l 701 467 q 682 496 701 496 q 665 483 669 496 q 660 450 660 469 q 666 413 660 425 q 681 401 672 401 q 697 415 692 401 l 703 404 m 635 404 l 635 415 l 607 415 l 607 444 l 632 444 l 632 456 l 607 456 l 607 483 l 635 483 l 635 494 l 600 494 l 600 404 l 635 404 m 593 404 l 593 415 l 571 415 l 571 494 l 564 494 l 564 404 l 593 404 m 556 431 q 547 453 556 446 q 554 471 554 460 q 540 494 554 494 l 519 494 l 519 404 l 540 404 q 556 431 556 404 m 514 404 l 497 494 l 490 494 l 472 404 l 479 404 l 483 431 l 503 431 l 507 404 l 514 404 m 467 404 l 467 494 l 457 494 l 444 418 l 432 494 l 422 494 l 422 404 l 428 404 l 428 457 l 428 481 l 442 404 l 447 404 l 461 481 l 461 457 l 461 404 l 467 404 m 413 404 l 413 494 l 404 494 l 390 418 l 376 494 l 368 494 l 368 404 l 374 404 l 374 457 l 374 481 l 388 404 l 393 404 l 407 481 l 407 457 l 407 404 l 413 404 m 363 404 l 346 494 l 338 494 l 321 404 l 328 404 l 332 431 l 350 431 l 356 404 l 363 404 m 318 404 l 318 415 l 294 415 l 294 494 l 289 494 l 289 404 l 318 404 m 282 483 l 282 494 l 250 494 l 250 404 l 256 404 l 256 444 l 279 444 l 279 456 l 256 456 l 256 483 l 282 483 m 540 760 q 531 742 540 742 q 517 760 518 742 q 525 790 522 782 q 533 789 528 797 q 540 760 540 775 m 547 471 q 538 456 547 456 l 526 456 l 526 483 l 538 483 q 547 471 547 483 m 736 442 l 721 442 l 729 481 l 736 442 m 500 442 l 486 442 l 493 481 l 500 442 m 349 442 l 335 442 l 342 481 l 349 442 m 550 431 q 540 414 550 414 l 526 414 l 526 446 l 539 446 q 550 431 550 446 z "},")":{"ha":1028,"x_min":28,"x_max":1000,"o":"m 1000 486 q 857 829 1000 688 q 514 972 715 972 q 169 829 311 972 q 28 486 28 685 q 169 142 28 283 q 514 0 311 0 q 857 142 715 0 q 1000 486 1000 285 m 725 499 q 686 356 725 407 q 564 282 647 304 q 596 313 585 299 q 612 341 607 326 q 618 371 617 356 q 619 406 619 386 q 614 426 619 426 q 608 419 611 426 q 599 401 604 411 q 590 384 594 392 q 579 376 585 376 q 574 386 572 376 q 579 397 576 392 q 585 408 582 403 q 582 426 588 419 q 571 426 576 433 l 554 407 q 543 400 549 399 q 543 413 538 401 q 557 474 557 442 q 553 502 557 486 q 542 532 549 518 q 528 556 536 546 q 514 565 521 565 q 507 554 507 565 q 508 538 507 542 q 519 504 510 531 q 524 451 528 478 q 518 442 524 442 q 501 457 510 442 q 493 493 493 472 q 486 507 493 507 q 473 494 476 507 q 469 471 469 482 q 478 415 469 443 q 490 383 488 388 q 491 373 493 376 q 482 374 489 369 q 468 393 475 378 q 455 425 461 408 q 444 454 449 442 q 435 464 439 467 q 424 447 424 464 q 428 424 424 440 q 432 400 432 407 l 432 390 q 425 397 428 393 q 393 410 417 407 q 378 401 378 410 q 384 388 378 394 q 399 376 390 382 q 418 363 408 369 q 433 347 428 356 q 459 302 440 321 q 494 276 478 283 q 381 325 426 276 q 335 406 335 375 q 328 456 335 429 q 313 493 322 483 q 301 510 299 506 q 315 510 304 515 q 338 494 332 501 q 351 474 344 486 q 358 467 354 467 q 368 474 367 467 q 371 492 369 481 q 378 517 372 504 q 383 540 383 529 q 368 588 383 565 q 365 600 360 597 q 376 597 369 603 q 404 571 388 588 q 426 539 421 554 q 431 566 426 551 q 440 593 435 581 q 448 615 444 606 q 450 628 451 625 q 428 678 450 651 q 414 691 421 685 q 400 704 407 697 q 399 715 394 711 q 408 714 403 719 q 457 674 413 708 q 492 646 481 656 q 507 633 504 636 q 510 649 508 640 q 514 667 511 657 q 501 706 514 682 q 485 744 489 731 q 482 778 482 757 q 485 806 482 793 q 493 819 489 819 q 504 790 504 819 q 526 738 504 760 q 554 688 544 717 q 564 610 564 658 q 563 585 564 589 q 567 563 560 563 q 579 574 572 563 q 594 597 590 583 q 597 628 597 610 q 597 643 597 635 q 596 661 597 651 q 600 679 596 679 q 618 663 606 679 q 628 634 626 646 q 631 594 631 622 q 627 549 631 574 q 621 500 624 524 q 644 513 633 504 q 665 535 656 522 q 681 560 675 547 q 686 583 686 572 q 692 601 688 601 q 701 589 696 601 q 706 565 706 576 q 699 520 706 542 q 685 481 692 499 q 672 453 678 464 q 668 443 667 443 q 682 432 668 432 q 693 438 689 432 l 725 499 m 693 240 l 335 240 l 335 253 l 693 253 l 693 240 m 549 600 q 542 636 549 619 q 529 653 536 653 q 519 633 525 650 q 514 601 514 617 q 533 574 514 574 q 549 600 549 574 z "},"*":{"ha":733,"x_min":28,"x_max":706,"o":"m 706 57 l 706 915 q 687 955 706 938 q 647 972 668 972 l 85 972 q 46 954 64 972 q 28 915 28 936 l 28 57 q 45 17 28 35 q 85 0 63 0 l 647 0 q 687 17 668 0 q 706 57 706 35 m 696 65 q 679 24 696 39 q 639 8 663 8 l 93 8 q 52 24 68 8 q 36 65 36 40 l 36 907 q 51 949 36 933 q 93 964 67 964 l 639 964 q 681 949 665 964 q 696 907 696 933 l 696 65 m 176 890 l 143 890 l 136 883 l 136 850 l 176 890 m 592 890 l 557 890 l 511 843 l 544 843 l 592 890 m 540 890 l 506 890 l 460 843 l 493 843 l 540 890 m 488 890 l 453 890 l 407 843 l 440 843 l 488 890 m 436 890 l 401 890 l 356 843 l 389 843 l 436 890 m 385 890 l 350 890 l 304 843 l 338 843 l 385 890 m 332 890 l 299 890 l 251 843 l 285 843 l 332 890 m 281 890 l 246 890 l 200 843 l 233 843 l 281 890 m 229 890 l 194 890 l 136 832 l 136 797 l 229 890 m 592 838 l 592 871 l 544 825 l 544 792 l 592 838 m 183 793 l 183 826 l 136 779 l 136 746 l 183 793 m 592 786 l 592 819 l 544 774 l 544 739 l 592 786 m 183 740 l 183 774 l 136 728 l 136 694 l 183 740 m 592 735 l 592 768 l 544 721 l 544 688 l 592 735 m 183 689 l 183 722 l 136 676 l 136 642 l 183 689 m 592 682 l 592 715 l 544 669 l 544 636 l 592 682 m 183 638 l 183 671 l 136 624 l 136 590 l 183 638 m 592 631 l 592 664 l 544 618 l 544 585 l 592 631 m 183 585 l 183 619 l 136 572 l 136 539 l 183 585 m 592 579 l 592 613 l 544 565 l 544 532 l 592 579 m 183 533 l 183 567 l 136 521 l 136 488 l 183 533 m 592 526 l 592 561 l 544 514 l 544 481 l 592 526 m 183 482 l 183 515 l 136 468 l 136 435 l 183 482 m 592 475 l 592 508 l 518 435 l 550 435 l 592 475 m 546 482 l 513 482 l 467 435 l 499 435 l 546 482 m 494 482 l 460 482 l 414 435 l 447 435 l 494 482 m 443 482 l 408 482 l 361 435 l 394 435 l 443 482 m 390 482 l 357 482 l 310 435 l 343 435 l 390 482 m 339 482 l 304 482 l 258 435 l 292 435 l 339 482 m 288 482 l 253 482 l 206 435 l 240 435 l 288 482 m 235 482 l 201 482 l 154 435 l 188 435 l 235 482 m 592 435 l 592 457 l 569 435 l 592 435 m 389 390 q 372 407 389 407 q 357 390 357 407 q 372 375 357 375 q 389 390 389 375 m 410 288 l 410 354 q 389 371 410 371 l 372 371 l 356 371 q 336 354 336 371 l 336 288 l 349 288 l 353 349 l 353 208 l 369 208 l 369 293 l 375 293 l 375 208 l 392 208 l 396 349 l 396 288 l 410 288 m 540 121 l 521 175 l 508 175 l 489 121 l 501 121 l 506 132 l 525 132 l 528 121 l 540 121 m 328 121 l 328 175 l 317 175 l 317 156 q 304 161 311 161 q 289 142 289 161 q 304 119 289 119 q 317 125 313 119 l 318 121 l 328 121 m 129 121 l 129 175 l 117 175 l 117 154 l 97 154 l 97 175 l 85 175 l 85 121 l 97 121 l 97 144 l 117 144 l 117 121 l 129 121 m 642 121 l 654 122 q 651 129 651 128 l 651 150 q 635 161 651 161 q 617 149 618 161 l 628 149 q 635 154 629 154 l 642 149 l 638 144 l 628 144 q 615 132 615 142 q 628 119 615 119 q 642 121 638 119 m 583 139 l 613 139 q 593 161 613 161 q 578 155 582 161 q 574 142 575 149 q 593 119 574 119 q 611 132 607 119 l 600 132 l 593 128 q 583 139 588 128 m 569 151 l 568 161 q 557 154 561 161 l 557 161 l 547 161 l 547 121 l 557 121 l 557 142 q 560 147 557 143 q 569 151 563 151 m 463 133 q 450 144 463 142 q 438 150 438 147 q 444 154 442 154 q 451 149 447 154 l 463 149 q 444 161 460 161 q 428 149 428 161 q 440 138 428 140 q 453 132 453 135 l 447 128 q 438 133 443 128 l 426 133 q 446 119 428 119 q 463 133 463 119 m 419 121 l 419 161 l 408 161 l 408 138 q 401 129 408 133 q 393 135 393 129 l 393 161 l 383 161 l 383 135 q 397 119 383 119 q 403 121 399 119 q 408 126 407 122 l 408 121 l 419 121 m 375 140 q 356 161 375 161 q 335 140 335 161 q 356 119 335 119 q 375 140 375 119 m 285 151 l 282 161 q 271 154 275 161 l 271 161 l 261 161 l 261 121 l 272 121 l 272 142 q 285 151 276 151 m 243 121 l 254 122 q 251 129 251 128 l 251 150 q 236 161 251 161 q 217 149 218 161 l 228 149 q 235 154 232 154 l 242 149 l 238 144 l 228 144 q 217 132 217 142 q 229 119 217 119 q 242 125 235 119 l 243 121 m 213 121 l 213 129 l 192 129 l 211 151 l 211 161 l 179 161 l 179 151 l 199 151 l 178 129 l 178 121 l 213 121 m 163 121 l 175 122 q 172 129 172 128 l 172 150 q 156 161 172 161 q 138 149 139 161 l 149 149 q 154 154 150 154 l 161 149 l 158 144 l 149 144 q 136 132 136 142 q 149 119 136 119 q 163 121 158 119 m 447 42 l 447 96 l 436 96 l 436 42 l 447 42 m 225 42 l 201 74 l 224 96 l 208 96 l 188 74 l 188 96 l 176 96 l 176 42 l 188 42 l 188 60 l 193 64 l 210 42 l 225 42 m 428 60 l 417 60 q 404 49 413 49 q 392 68 392 49 q 404 86 392 86 q 417 76 415 86 l 428 76 q 404 96 428 96 q 379 68 379 96 q 404 39 379 39 q 428 60 424 39 m 564 71 l 563 82 q 550 74 558 82 l 550 81 l 540 81 l 540 42 l 551 42 l 551 61 q 564 71 551 71 m 522 42 l 533 42 l 531 49 l 531 71 q 515 82 531 82 q 497 68 499 82 l 508 68 q 514 74 510 74 l 521 69 l 518 65 l 508 64 q 496 51 496 64 q 508 40 496 40 q 521 46 515 40 l 522 42 m 492 53 l 481 53 l 474 47 q 464 58 468 47 l 492 60 q 472 82 492 82 q 453 61 453 82 q 474 40 453 40 q 492 53 488 40 m 279 58 l 307 60 q 288 82 307 82 q 269 61 269 82 q 289 40 269 40 q 299 43 293 40 q 306 53 304 46 l 294 53 l 289 47 q 279 58 283 47 m 236 58 l 265 60 q 246 82 265 82 q 226 61 226 82 q 246 40 226 40 q 264 53 260 40 l 253 53 l 246 47 q 236 58 240 47 m 353 61 q 336 82 353 82 q 324 75 331 82 l 324 81 l 314 81 l 314 25 l 324 25 l 324 46 q 336 40 325 40 q 353 61 353 40 m 521 142 l 508 142 l 515 163 l 521 142 m 600 144 l 583 144 q 593 153 585 153 q 597 151 594 151 q 600 144 600 149 m 365 140 q 356 129 365 129 q 346 140 346 129 q 356 153 346 153 q 365 140 365 153 m 318 140 q 308 129 318 129 q 299 140 299 129 q 308 153 299 153 q 318 140 318 153 m 642 135 l 632 126 l 626 132 q 633 139 626 136 l 642 140 l 642 135 m 242 135 l 232 126 l 226 132 l 233 139 l 242 140 l 242 135 m 161 135 l 153 126 l 147 132 q 154 139 147 136 l 161 140 l 161 135 m 481 65 l 464 65 q 472 74 465 74 q 476 70 474 72 q 481 65 479 68 m 296 65 l 279 65 q 288 74 279 74 q 292 70 289 72 q 296 65 294 68 m 253 65 l 238 65 q 246 74 238 74 q 250 70 247 72 q 253 65 253 68 m 342 61 q 333 49 342 49 q 324 61 324 49 q 333 74 324 74 q 342 61 342 74 m 521 56 l 511 47 l 507 51 q 514 58 507 56 l 521 61 l 521 56 z "},"+":{"ha":1031,"x_min":28,"x_max":1003,"o":"m 1003 54 q 992 88 1003 72 l 567 942 q 518 972 554 972 q 469 942 483 972 l 38 88 q 28 54 28 74 q 43 15 28 31 q 82 0 58 0 l 947 0 q 987 16 971 0 q 1003 54 1003 32 m 947 54 l 79 54 l 518 918 l 947 54 m 801 249 q 789 264 801 261 q 763 267 776 267 l 733 267 q 701 267 718 267 q 664 269 683 268 q 628 278 628 272 q 649 296 628 293 q 669 313 669 297 q 653 327 668 322 q 615 335 638 332 q 567 338 593 338 q 521 339 542 339 l 496 339 q 475 339 486 339 q 450 338 464 339 q 415 333 424 336 q 407 326 407 331 q 413 317 407 324 q 414 300 419 306 q 394 294 408 294 q 360 294 376 294 q 325 293 343 294 q 280 288 292 292 q 268 274 268 283 q 281 263 268 267 q 294 251 294 258 q 285 243 294 247 l 229 215 q 217 201 217 208 q 247 188 217 188 l 475 197 q 492 190 490 197 q 488 181 494 183 q 472 163 472 174 q 501 151 472 151 q 591 152 549 151 q 671 154 633 153 q 731 158 708 156 q 763 164 754 161 q 779 178 779 172 q 771 190 778 185 q 757 197 764 194 q 744 203 750 200 q 742 211 739 207 q 771 226 742 218 q 801 249 801 235 z "},",":{"ha":1031,"x_min":28,"x_max":1003,"o":"m 1003 54 q 992 86 1003 71 l 567 942 q 518 972 553 972 q 471 942 485 972 l 39 86 q 28 54 28 71 q 44 16 28 32 q 82 0 60 0 l 949 0 q 988 15 972 0 q 1003 54 1003 31 m 949 54 l 79 54 l 518 918 l 949 54 m 610 429 l 461 429 l 542 686 l 360 371 l 503 371 l 406 133 l 610 429 z "},"-":{"ha":458,"x_min":28,"x_max":431,"o":"m 431 615 l 181 504 l 411 949 l 264 972 l 28 338 l 240 429 l 201 182 l 168 210 l 206 0 l 339 174 l 281 171 l 431 615 z "},".":{"ha":1210,"x_min":31,"x_max":1182,"o":"m 1182 821 l 1010 972 l 943 972 l 819 790 l 92 678 q 65 661 76 672 q 54 632 54 650 q 66 597 51 613 q 115 585 81 581 q 128 585 122 585 q 140 586 133 586 l 242 600 l 54 510 q 35 492 40 504 q 31 464 31 479 q 44 432 31 444 q 76 419 57 419 q 103 425 92 419 l 335 549 q 349 546 344 553 q 343 535 354 539 q 247 476 288 510 q 181 412 207 443 q 141 356 154 381 q 126 321 128 331 q 140 291 126 301 q 174 281 154 281 q 247 349 204 281 q 394 465 293 418 q 606 513 494 513 q 733 494 674 513 q 813 465 796 478 q 747 368 767 411 q 726 292 726 325 q 738 243 726 258 q 772 204 749 228 l 1182 821 m 621 425 q 619 451 624 443 l 610 451 q 611 440 611 450 l 611 425 l 621 425 m 694 388 l 683 388 l 678 368 l 688 368 l 694 388 m 353 365 l 353 383 l 343 383 l 343 365 l 353 365 m 400 319 l 400 338 l 390 338 l 390 319 l 400 319 m 539 354 q 544 388 544 365 q 532 449 544 425 l 522 449 q 535 389 535 425 q 523 340 535 367 q 511 293 511 314 q 517 267 513 279 q 528 243 522 254 q 537 222 533 232 q 539 203 540 211 q 528 163 539 185 l 538 163 q 549 203 549 182 q 537 244 551 222 q 521 293 522 267 q 527 322 521 304 q 539 354 533 340 m 972 322 l 963 322 q 951 294 951 303 q 956 278 951 288 l 965 278 q 961 293 961 286 q 972 322 961 303 m 503 160 q 507 193 507 178 q 494 252 507 225 q 481 294 481 279 q 493 338 483 318 q 500 367 503 357 q 496 392 500 378 q 488 419 492 406 l 476 419 q 490 367 490 386 q 488 350 490 358 q 478 326 486 344 q 469 297 469 308 q 483 252 469 278 q 497 193 497 226 q 493 160 497 178 l 503 160 m 467 156 q 464 208 467 181 q 453 246 461 235 q 440 272 446 258 q 435 301 435 285 q 438 322 435 307 q 442 354 442 338 q 435 392 442 378 l 425 392 q 432 354 432 374 q 428 322 432 338 q 425 301 425 307 q 432 272 425 288 q 446 243 439 256 q 455 213 453 232 q 457 156 457 193 l 467 156 m 625 363 l 614 363 q 602 315 608 340 q 596 268 596 290 q 609 229 599 246 q 617 192 619 213 q 611 158 617 171 l 621 158 q 625 190 625 175 q 616 239 625 221 q 607 269 607 257 q 612 306 607 282 q 625 363 617 329 m 92 247 l 92 264 l 82 264 l 82 247 l 92 247 m 700 268 l 689 268 q 689 251 689 260 q 688 238 689 244 l 697 238 q 700 268 696 243 m 578 157 q 583 172 581 163 q 586 189 586 182 q 581 212 585 203 q 572 229 576 221 q 563 246 567 238 q 561 267 560 254 q 567 288 561 274 q 572 322 572 303 q 571 339 572 335 l 561 339 q 563 324 563 336 q 558 292 563 306 q 553 267 553 278 q 556 241 553 251 q 565 222 560 231 q 573 206 569 214 q 576 190 576 199 q 568 157 576 174 l 578 157 m 661 160 q 667 186 667 171 q 657 227 667 210 q 647 257 647 244 q 651 283 647 269 q 661 314 656 297 l 651 314 q 642 285 647 300 q 638 258 638 269 q 647 227 638 244 q 657 189 657 210 q 651 160 657 171 l 661 160 m 392 156 q 383 190 392 167 q 365 231 375 214 q 352 264 356 247 q 349 299 349 281 q 350 318 349 315 l 340 318 q 339 299 339 315 q 342 272 339 297 q 354 229 344 247 q 374 190 365 213 q 382 156 382 167 l 392 156 m 347 156 q 339 191 347 168 q 321 229 331 214 q 308 262 311 246 q 304 292 304 278 q 306 310 304 307 l 296 310 q 294 293 294 307 q 295 286 294 293 q 297 269 296 279 q 301 250 299 260 q 308 235 304 240 q 332 183 326 200 q 338 156 338 167 l 347 156 m 304 156 q 296 190 304 167 q 276 235 288 214 q 263 267 265 251 q 263 292 260 282 l 253 292 q 253 265 250 281 q 267 235 256 250 q 287 190 279 213 q 294 156 294 167 l 304 156 m 929 156 q 935 173 933 167 q 938 186 938 179 q 926 225 938 203 q 914 260 914 247 q 919 274 917 267 q 924 289 921 282 l 914 289 q 907 276 910 282 q 904 260 904 269 q 915 226 904 247 q 926 188 926 206 q 918 156 926 178 l 929 156 m 894 149 q 897 161 896 156 q 897 169 897 167 q 890 202 897 186 q 882 232 882 218 q 886 254 882 246 l 876 254 q 872 232 872 246 q 881 202 872 218 q 889 169 889 186 q 885 149 889 158 l 894 149 m 229 157 q 221 190 225 171 q 217 225 217 208 q 221 247 217 236 l 211 247 q 207 225 207 236 q 213 188 207 211 q 217 167 215 174 q 219 157 219 160 l 229 157 m 428 158 q 423 194 428 172 q 408 238 418 215 l 397 238 q 413 193 408 214 q 418 158 418 172 l 428 158 m 200 225 l 189 225 q 176 185 176 208 q 179 156 176 169 l 189 156 q 188 165 189 158 q 186 182 188 171 q 189 206 186 194 q 200 225 192 217 m 979 215 l 969 215 q 975 185 975 203 q 967 149 975 165 l 978 149 q 985 183 985 165 q 979 215 985 206 m 700 196 l 690 196 q 688 163 694 178 l 697 163 q 701 181 701 172 q 700 196 701 193 m 163 197 l 153 197 q 131 153 135 178 l 140 153 q 163 197 144 178 m 92 158 l 92 190 l 82 190 l 82 158 l 92 158 m 749 182 l 738 182 l 732 163 l 743 163 l 749 182 m 1040 0 l 1040 122 l 846 122 q 850 168 850 149 q 848 199 850 188 q 843 221 846 211 l 833 221 q 838 200 835 211 q 840 174 840 189 q 839 149 840 163 q 835 122 838 136 l 796 122 q 801 163 801 138 q 800 194 801 190 l 790 194 l 790 174 q 785 122 790 138 l 60 122 l 60 0 l 1040 0 z "},"/":{"ha":1028,"x_min":28,"x_max":1000,"o":"m 836 254 l 746 164 l 188 721 l 278 810 l 836 254 m 1000 486 q 857 829 1000 688 q 514 972 715 972 q 169 829 313 972 q 28 486 28 688 q 169 142 28 285 q 514 0 313 0 q 857 142 715 0 q 1000 486 1000 285 m 901 486 q 880 360 901 422 q 821 249 858 299 l 276 793 q 514 874 382 874 q 788 760 675 874 q 901 486 901 647 m 750 178 q 640 118 700 139 q 514 97 581 97 q 239 211 353 97 q 125 486 125 325 q 206 722 125 621 l 750 178 z "},":":{"ha":1031,"x_min":28,"x_max":1003,"o":"m 1003 54 q 992 86 1003 71 l 567 942 q 518 972 553 972 q 469 942 483 972 l 38 86 q 28 54 28 76 q 43 15 28 31 q 82 0 58 0 l 947 0 q 988 15 972 0 q 1003 54 1003 31 m 947 54 l 79 54 l 518 918 l 947 54 m 668 515 l 631 515 l 646 347 l 668 515 m 735 242 q 719 257 735 257 l 589 257 q 579 267 579 257 q 589 276 579 276 l 699 276 q 714 290 714 276 q 699 306 714 306 l 664 304 q 643 283 664 283 q 624 306 624 283 l 550 306 q 515 313 519 306 q 523 333 510 322 q 554 356 536 343 q 574 369 571 367 q 583 383 576 372 q 588 403 590 393 q 581 411 585 411 q 569 406 575 411 l 469 344 q 429 318 465 343 q 401 299 414 307 q 381 283 389 290 q 360 275 372 278 q 333 271 347 272 q 307 269 319 269 q 290 269 296 269 l 290 135 l 456 129 l 544 128 l 682 128 q 699 143 699 128 q 682 158 699 158 l 614 157 q 604 168 604 157 q 608 174 604 169 q 614 178 611 178 l 713 178 q 728 192 728 178 q 713 207 728 207 l 604 207 q 594 217 594 207 q 604 226 594 226 l 719 226 q 735 242 735 226 z "},";":{"ha":1028,"x_min":28,"x_max":1000,"o":"m 1000 128 l 1000 843 q 990 893 1000 869 q 963 935 981 917 q 922 963 946 953 q 872 972 899 972 l 156 972 q 105 962 128 972 q 65 934 82 951 q 38 893 47 917 q 28 843 28 869 l 28 128 q 38 78 28 101 q 65 37 47 54 q 106 10 82 19 q 156 0 129 0 l 872 0 q 922 10 899 0 q 963 37 946 19 q 990 78 981 54 q 1000 128 1000 101 m 983 144 q 949 51 983 86 q 856 17 914 17 l 172 17 q 79 51 114 17 q 44 144 44 86 l 44 826 q 79 921 44 886 q 172 956 114 956 l 856 956 q 949 920 914 956 q 983 826 983 885 l 983 144 m 928 486 q 806 778 928 657 q 514 900 685 900 q 221 778 343 900 q 100 486 100 657 q 221 193 100 315 q 514 72 343 72 q 807 193 686 72 q 928 486 928 314 m 858 424 l 169 424 q 164 481 164 444 q 165 511 164 496 q 169 540 167 526 l 858 540 q 863 483 863 513 q 861 444 863 460 q 858 424 860 429 z "},"<":{"ha":1028,"x_min":28,"x_max":1000,"o":"m 1000 486 q 857 829 1000 688 q 514 972 715 972 q 169 829 313 972 q 28 486 28 688 q 169 142 28 285 q 514 0 313 0 q 857 142 715 0 q 1000 486 1000 285 m 899 486 q 786 214 899 326 q 514 101 674 101 q 242 214 356 101 q 129 486 129 328 q 242 757 129 644 q 514 871 356 871 q 786 758 674 871 q 899 486 899 646 m 626 625 q 511 667 574 667 q 396 625 446 667 q 413 593 403 607 q 511 631 454 631 q 607 594 567 631 l 626 625 m 811 424 q 719 576 811 524 l 689 590 l 692 625 q 669 715 692 675 q 606 781 646 756 q 597 778 600 783 q 599 769 594 774 q 642 671 642 731 q 608 582 642 618 q 525 540 575 546 l 525 521 q 549 482 549 510 l 564 475 q 669 528 601 528 q 736 511 704 528 q 797 424 789 479 q 806 417 800 417 q 811 424 811 417 m 494 521 l 494 540 q 412 583 446 546 q 378 671 378 621 q 421 768 378 729 q 424 778 426 774 q 415 781 422 783 q 351 715 374 754 q 328 625 328 675 l 332 590 l 299 576 q 208 422 208 522 q 214 415 210 415 q 226 447 218 415 q 275 504 235 481 q 350 528 315 528 q 457 474 415 528 l 472 485 q 494 521 469 508 m 690 486 l 688 518 l 651 518 l 656 486 q 627 400 656 438 q 554 349 599 363 q 572 318 560 329 q 658 382 626 338 q 690 486 690 426 m 465 349 q 393 400 421 363 q 365 486 365 438 l 369 518 l 335 518 q 333 505 333 513 q 332 486 332 497 q 365 383 332 428 q 449 318 397 338 q 465 349 458 328 m 717 258 q 719 266 722 261 q 710 268 717 271 q 671 263 694 263 q 585 290 633 263 q 538 394 538 317 q 549 447 538 418 l 533 456 q 511 447 525 447 q 488 457 496 447 l 472 447 q 483 394 483 418 q 435 290 483 318 q 351 263 386 263 q 311 268 326 263 q 300 265 303 269 q 304 258 297 261 q 393 236 343 236 q 468 250 444 236 q 499 271 493 265 q 510 282 504 276 l 539 260 q 628 236 579 236 q 717 258 678 236 z "},"=":{"ha":1028,"x_min":28,"x_max":1000,"o":"m 1000 486 q 857 829 1000 688 q 514 972 715 972 q 169 829 313 972 q 28 486 28 688 q 169 142 28 285 q 514 0 313 0 q 857 142 715 0 q 1000 486 1000 285 m 901 486 q 880 360 901 422 q 821 249 858 299 l 276 793 q 514 874 382 874 q 788 760 675 874 q 901 486 901 647 m 750 178 q 640 118 700 139 q 514 97 581 97 q 239 211 353 97 q 125 486 125 325 q 206 722 125 621 l 750 178 m 806 681 l 585 681 l 551 853 l 518 853 l 551 681 l 515 681 l 538 551 l 751 339 l 806 681 m 464 444 l 394 514 l 233 514 q 183 493 204 514 q 163 444 163 472 l 464 444 m 514 396 q 490 376 511 376 l 171 376 q 147 399 147 376 q 171 421 147 421 l 488 421 l 514 396 m 501 354 l 174 354 q 194 304 174 325 q 244 283 215 283 l 431 283 q 481 304 460 283 q 501 354 501 325 m 711 199 l 571 338 l 593 199 l 711 199 z "},"@":{"ha":1394,"x_min":28,"x_max":1367,"o":"m 676 889 q 672 910 678 899 q 647 922 667 922 q 621 905 628 922 q 618 876 614 888 q 646 851 622 847 l 654 856 q 676 889 676 869 m 754 847 q 740 869 749 863 q 724 875 732 875 q 710 869 715 875 q 683 855 696 868 q 669 822 669 842 q 683 794 669 804 q 710 785 697 785 l 715 789 l 729 789 q 739 794 733 789 q 749 808 744 800 q 755 827 753 817 q 754 847 757 838 m 721 728 l 717 747 l 692 754 q 682 753 688 754 q 676 747 676 753 l 675 738 l 669 732 q 681 697 667 715 q 697 694 686 689 q 714 706 707 699 l 721 728 m 939 675 q 931 703 936 688 q 916 733 925 718 q 895 760 907 747 q 871 782 883 774 q 857 785 860 785 q 832 773 842 785 q 817 744 822 761 q 774 738 792 744 q 757 699 757 731 q 755 669 761 685 q 747 647 749 654 q 756 615 747 633 l 790 553 l 824 519 l 851 518 l 861 525 l 935 607 q 940 639 940 617 q 940 658 940 649 q 939 675 940 668 m 1367 0 l 1353 28 l 1042 28 l 1007 67 l 992 68 l 950 107 l 935 113 l 867 193 l 796 257 l 788 288 l 760 404 l 758 440 l 749 450 l 750 479 l 740 492 l 740 506 l 693 569 l 689 626 l 672 643 l 661 683 l 649 699 l 624 731 l 638 781 l 640 800 l 631 811 l 629 832 l 618 840 l 618 851 l 574 892 l 572 911 l 564 922 l 563 960 l 546 972 l 28 0 l 1367 0 m 1090 436 l 1090 488 l 1085 489 l 1057 536 l 1001 536 q 971 519 979 536 l 951 475 q 961 450 961 464 q 965 431 961 442 q 978 410 969 421 q 1000 393 988 400 q 1029 386 1013 386 q 1073 402 1056 386 q 1090 436 1090 418 m 896 443 l 896 474 l 886 489 l 854 488 l 796 456 l 796 426 l 801 424 l 800 397 q 809 387 803 394 q 822 376 815 379 q 840 385 829 375 q 851 404 851 396 l 851 414 l 863 414 l 896 443 m 903 304 q 888 313 896 313 q 850 292 871 313 q 850 265 843 289 q 864 242 856 244 l 879 242 l 897 257 q 913 283 913 276 q 903 304 913 294 m 1231 278 l 1207 311 q 1181 338 1194 328 q 1149 349 1168 349 q 1114 361 1136 356 q 1071 367 1092 367 q 1029 356 1044 367 l 976 283 q 963 240 963 265 l 963 178 l 990 126 l 1003 125 l 1038 83 l 1058 82 l 1097 63 q 1156 74 1125 58 l 1204 121 l 1206 151 l 1228 193 l 1231 278 z "},"A":{"ha":1156,"x_min":29,"x_max":1128,"o":"m 1122 60 l 614 953 q 603 966 610 960 q 582 972 597 972 q 558 966 565 972 q 546 953 551 960 l 35 63 q 29 40 29 56 q 40 13 29 25 q 67 0 51 0 l 1083 0 q 1128 39 1128 4 q 1122 60 1128 50 m 582 875 l 1035 69 l 118 69 l 582 875 m 624 469 l 611 542 q 606 547 610 547 l 601 542 l 604 531 l 453 506 q 438 497 444 501 q 433 479 431 492 q 444 460 435 464 q 460 454 453 456 l 613 479 l 614 469 q 616 466 614 468 q 621 465 618 464 l 624 469 m 378 426 l 371 353 l 375 347 q 381 351 378 347 l 382 363 l 536 350 q 553 357 544 353 q 561 375 561 361 q 554 395 561 390 q 540 403 547 400 l 386 417 l 388 429 l 383 432 q 378 426 379 432 m 385 308 l 376 328 q 370 317 374 322 q 367 310 367 313 q 375 292 365 292 q 385 308 381 292 m 628 317 l 621 336 q 611 318 611 326 q 619 300 610 301 q 628 306 626 299 q 628 317 629 313 m 631 438 l 622 457 q 617 447 619 451 q 613 438 614 442 q 621 419 611 421 q 631 438 631 418 m 383 229 l 375 250 l 367 231 q 375 213 365 214 q 383 218 382 211 q 383 229 385 225 m 400 192 q 390 178 396 185 q 375 172 385 172 q 349 192 357 172 l 228 192 l 228 133 l 471 133 l 471 192 l 400 192 m 886 249 l 864 250 q 846 254 854 249 q 829 268 838 260 q 813 283 821 276 q 793 292 804 290 l 647 319 q 647 315 647 318 q 644 304 646 311 q 664 276 644 285 l 701 260 q 689 256 696 257 q 657 256 682 256 l 644 254 q 639 242 643 249 q 624 236 635 236 q 607 242 613 236 q 599 253 601 247 l 533 253 q 521 247 526 250 q 515 236 515 244 q 520 223 515 228 q 531 214 525 218 l 501 214 q 489 210 494 213 q 483 196 483 207 q 490 180 483 182 q 501 178 497 178 l 532 178 q 520 174 526 176 q 514 158 514 171 q 520 145 514 149 q 533 140 526 142 l 557 140 q 544 126 544 133 q 549 115 544 118 q 557 111 553 113 l 724 93 l 736 93 q 753 92 746 93 q 769 93 767 92 l 831 104 q 850 112 838 107 q 865 119 863 117 l 886 119 l 886 249 m 604 524 l 608 497 l 461 497 l 604 524 m 383 381 l 385 406 l 536 393 q 549 389 547 393 q 550 381 550 385 l 383 381 z "},"B":{"ha":1156,"x_min":28,"x_max":1128,"o":"m 1122 60 l 614 953 q 603 966 610 960 q 581 972 597 972 q 558 966 565 972 q 546 953 551 960 l 35 63 q 30 56 32 61 q 28 39 28 51 q 38 12 28 24 q 67 0 49 0 l 1083 0 q 1113 12 1099 3 q 1128 39 1128 21 q 1122 60 1128 53 m 581 875 l 1035 69 l 118 69 l 581 875 m 731 521 q 726 542 729 532 q 704 551 722 551 l 526 551 q 502 547 514 550 q 485 524 490 543 l 379 121 l 406 121 q 424 147 414 135 q 457 160 435 160 q 490 147 481 160 q 506 119 500 133 l 629 119 q 633 148 631 133 q 643 174 636 163 q 663 192 650 185 q 699 200 675 200 q 757 172 746 200 q 769 117 767 146 l 814 117 l 814 279 q 809 294 813 288 q 789 300 806 300 l 731 300 l 731 521 m 426 111 q 457 82 426 82 q 488 111 488 82 q 457 142 488 142 q 426 111 426 142 m 646 131 q 661 93 646 107 q 699 79 676 79 q 737 94 721 79 q 753 131 753 108 q 736 168 753 153 q 699 183 719 183 q 661 168 676 183 q 646 131 646 153 m 474 600 q 458 598 461 603 q 454 590 456 593 l 329 119 l 256 140 q 240 131 242 136 q 244 111 236 122 q 283 97 247 107 q 314 90 301 93 q 336 85 326 88 q 347 85 342 85 q 354 94 353 86 l 482 583 q 481 594 482 590 q 474 600 481 599 m 558 290 l 583 290 l 583 250 l 547 250 l 547 281 q 558 290 547 288 m 675 442 q 658 468 674 457 q 656 481 651 475 q 660 496 658 483 q 651 518 657 511 q 633 525 646 525 q 606 493 606 525 q 619 471 606 476 q 619 457 622 468 l 610 447 l 589 413 q 574 401 582 403 l 549 401 q 536 398 542 400 q 531 386 531 396 q 537 375 531 376 q 550 374 543 374 l 600 374 l 600 336 l 529 336 q 513 330 515 336 q 510 318 510 324 l 510 253 l 436 253 l 504 513 q 514 529 507 526 q 529 532 521 532 l 692 532 q 707 526 704 532 q 710 515 710 521 l 710 299 l 675 299 l 675 442 z "},"C":{"ha":1154,"x_min":28,"x_max":1126,"o":"m 1122 61 l 614 953 q 603 966 610 960 q 581 972 596 972 q 558 966 565 972 q 544 953 550 960 l 35 64 q 30 58 32 63 q 28 40 28 53 q 39 13 28 26 q 65 0 50 0 l 1083 0 q 1113 12 1100 3 q 1126 42 1126 21 q 1122 61 1126 54 m 581 876 l 1035 71 l 118 71 l 581 876 m 647 301 l 889 301 l 871 333 l 638 333 l 719 368 l 708 399 l 629 365 l 726 461 l 704 486 l 606 389 l 640 469 l 608 482 l 575 403 l 575 540 l 543 540 l 543 393 l 507 482 l 476 468 l 508 392 l 411 488 l 389 461 l 486 367 l 407 399 l 397 368 l 483 333 l 338 333 l 338 301 l 469 301 l 396 271 l 408 240 l 489 272 l 392 178 l 415 156 l 514 253 l 479 169 l 510 157 l 543 236 l 543 100 l 575 100 l 575 231 l 606 156 l 636 169 l 601 253 l 706 151 l 729 175 l 628 274 l 711 240 l 722 271 l 647 301 z "},"D":{"ha":1154,"x_min":28,"x_max":1126,"o":"m 1122 60 l 614 953 q 603 966 610 960 q 581 972 596 972 q 558 966 565 972 q 544 953 550 960 l 35 63 q 30 56 32 61 q 28 39 28 51 q 39 13 28 25 q 65 0 50 0 l 1083 0 q 1126 40 1126 4 q 1122 60 1126 53 m 581 875 l 1035 69 l 118 69 l 581 875 m 560 624 q 565 610 561 613 l 565 597 q 554 576 554 594 q 558 564 554 568 q 565 556 561 560 l 565 535 l 568 525 l 582 506 l 588 496 q 578 485 588 490 q 565 497 569 485 l 563 507 l 558 510 q 549 504 553 507 q 546 494 546 501 q 558 469 546 475 l 461 317 l 403 292 l 403 204 l 435 188 l 439 178 l 465 164 l 475 165 l 551 124 l 551 118 l 571 107 l 583 107 l 607 94 l 726 139 l 726 211 l 696 233 l 679 313 q 683 322 679 318 q 690 336 686 326 q 687 344 689 342 q 674 346 685 347 l 642 328 l 639 321 q 635 318 638 319 q 633 313 632 317 q 647 307 636 306 q 660 299 658 308 l 681 240 l 590 304 l 590 443 q 593 435 592 440 q 596 424 594 431 q 604 411 597 417 q 617 399 611 406 q 629 385 624 393 q 635 367 635 378 l 629 357 q 621 346 621 354 l 626 346 l 632 346 l 639 344 q 664 360 654 347 q 674 365 672 360 q 671 372 668 369 q 683 376 675 374 q 671 381 672 382 l 658 379 q 647 392 654 381 l 635 406 q 610 428 618 418 q 593 468 603 438 q 607 494 607 478 q 600 514 607 504 l 588 533 l 588 554 q 594 563 592 558 q 597 576 597 568 q 593 588 597 582 q 585 599 589 594 l 585 610 q 590 622 590 619 l 590 636 q 576 642 583 642 q 569 640 575 642 q 560 635 564 638 l 560 624 m 564 322 l 532 343 l 486 325 l 564 457 l 564 322 m 474 182 l 467 182 l 590 233 l 590 285 l 593 282 l 593 232 l 474 182 m 585 124 l 578 122 l 679 165 l 585 124 z "},"E":{"ha":1156,"x_min":28,"x_max":1128,"o":"m 1122 60 l 614 953 q 603 966 610 960 q 581 972 597 972 q 558 966 565 972 q 546 953 551 960 l 35 63 q 30 56 32 61 q 28 39 28 51 q 39 13 28 25 q 65 0 50 0 l 1083 0 q 1128 39 1128 4 q 1122 60 1128 50 m 581 875 l 1035 69 l 118 69 l 581 875 m 579 372 q 547 359 560 372 q 533 328 533 346 q 547 295 533 308 q 579 282 560 282 q 624 328 624 282 q 610 359 624 346 q 579 372 597 372 m 692 135 l 613 269 q 599 263 607 265 q 579 260 592 260 q 560 263 571 260 q 543 269 550 267 l 464 135 q 500 113 475 125 q 579 100 525 100 q 692 135 638 100 m 688 524 l 610 388 q 624 377 617 385 q 638 360 632 369 q 646 342 643 351 q 646 328 649 332 l 803 328 q 799 379 803 350 q 771 449 796 408 q 722 505 747 490 q 688 524 697 519 m 546 388 l 469 524 q 426 497 450 513 q 381 443 403 481 q 356 378 358 406 q 354 328 353 350 l 510 328 q 513 343 510 333 q 520 363 515 353 q 532 379 525 372 q 546 388 539 386 z "},"F":{"ha":1154,"x_min":28,"x_max":1126,"o":"m 1122 60 l 614 953 q 603 966 610 960 q 581 972 596 972 q 558 966 565 972 q 544 953 550 960 l 35 63 q 30 56 32 61 q 28 39 28 51 q 39 13 28 25 q 65 0 50 0 l 1083 0 q 1126 40 1126 4 q 1122 60 1126 53 m 581 875 l 1035 69 l 118 69 l 581 875 m 668 683 l 596 690 l 544 736 l 399 294 l 597 372 l 563 243 l 500 275 l 558 75 l 714 218 l 642 224 l 719 522 l 539 451 l 668 683 z "},"G":{"ha":1156,"x_min":28,"x_max":1128,"o":"m 1122 60 l 614 951 q 603 965 610 958 q 581 971 597 971 q 558 965 565 971 q 546 951 551 958 l 35 63 q 30 56 32 61 q 28 39 28 51 q 39 13 28 25 q 65 0 50 0 l 1083 0 q 1128 39 1128 4 q 1122 60 1128 50 m 581 875 l 1035 69 l 118 69 l 581 875 m 475 243 l 465 242 q 460 231 464 242 q 457 210 451 219 q 483 210 461 204 l 489 214 q 490 229 490 217 q 492 239 496 235 q 475 243 488 243 m 671 201 q 664 203 668 203 q 654 207 660 204 l 640 196 q 642 186 638 192 q 650 181 646 181 q 663 178 657 179 q 671 178 668 178 q 688 182 679 178 l 690 192 q 671 201 690 197 m 622 192 q 603 194 618 203 q 597 182 596 188 l 603 178 q 611 179 607 179 q 619 181 615 179 q 622 192 626 185 m 564 207 q 549 210 560 217 q 554 200 543 203 q 564 207 564 199 m 553 271 l 546 278 q 536 278 543 278 q 529 274 531 278 q 536 261 528 265 q 551 261 544 257 q 553 271 553 265 m 442 153 l 456 161 q 465 175 460 163 q 465 185 468 182 l 458 192 l 444 192 q 442 203 442 194 q 444 211 443 207 q 449 221 446 215 l 433 226 q 410 229 431 229 q 403 239 397 232 q 404 265 414 258 l 399 268 q 372 255 383 268 q 356 225 360 242 q 356 199 351 213 l 361 182 l 371 169 q 417 149 388 149 q 442 153 429 149 m 449 263 q 418 258 426 264 q 418 249 414 254 q 444 242 436 240 l 460 250 q 458 263 464 254 l 449 263 m 392 276 q 386 288 394 279 q 379 276 382 288 q 365 278 369 286 l 367 267 q 381 275 381 261 l 392 276 m 500 407 l 503 414 q 490 421 499 425 q 474 396 471 414 l 479 389 q 492 388 481 388 l 496 392 l 500 407 m 488 365 q 485 378 494 372 q 476 378 482 379 q 471 361 464 368 q 479 358 474 357 q 488 365 485 360 m 564 254 l 568 258 q 551 251 553 261 q 564 254 550 251 m 701 315 l 707 319 q 705 333 714 326 q 685 338 696 340 q 667 328 674 335 q 661 318 665 318 q 665 310 663 318 l 675 308 q 690 310 683 310 q 701 315 697 310 m 657 151 l 649 151 q 640 146 643 149 q 640 138 636 143 l 651 131 l 668 122 l 701 122 l 718 119 l 722 122 q 711 133 725 128 q 689 143 697 138 q 682 144 686 144 q 676 146 679 144 l 657 151 m 1024 79 l 1004 113 l 492 192 q 482 185 486 189 q 474 178 478 181 q 481 167 471 175 q 476 161 478 164 q 474 156 475 158 l 483 149 q 499 142 490 142 q 507 149 504 142 l 506 153 l 511 154 q 547 137 526 147 q 594 115 568 126 q 640 95 621 104 q 672 79 660 86 l 799 79 l 589 142 q 581 153 583 142 l 574 157 l 556 151 l 524 160 l 522 164 l 532 178 l 1024 79 m 542 224 l 964 181 l 940 224 l 542 224 m 654 242 l 928 244 l 915 267 l 654 242 m 576 263 l 888 314 l 868 349 l 576 263 m 564 288 l 828 418 l 807 453 l 564 288 m 642 375 l 785 494 l 756 543 l 499 263 l 626 363 q 638 363 632 363 q 644 364 643 363 q 646 371 647 367 q 642 375 644 375 m 551 365 l 739 574 l 719 606 l 551 365 m 621 546 l 688 663 l 665 703 l 622 618 l 656 715 l 647 732 l 464 278 q 470 288 467 283 q 481 292 474 292 q 495 291 486 292 q 507 293 504 290 l 519 306 q 522 315 521 311 q 517 317 522 318 q 508 314 513 317 q 500 315 504 311 q 500 333 494 324 l 542 401 q 550 392 542 397 l 557 396 l 567 404 q 569 417 571 415 q 558 418 563 417 q 550 415 558 418 q 549 418 549 417 l 597 504 q 607 504 604 511 q 625 502 610 499 q 644 511 640 506 q 653 525 650 517 q 657 542 656 533 q 643 546 653 554 q 633 540 638 542 q 625 538 629 539 q 621 540 624 538 q 621 546 618 542 m 556 547 q 558 560 560 558 l 554 563 q 540 563 547 563 q 529 560 533 564 l 524 549 q 511 538 517 543 q 507 525 506 532 q 510 519 508 522 q 514 511 511 517 q 528 510 524 507 q 544 526 533 514 l 547 531 q 556 547 549 536 m 442 283 l 529 768 l 461 653 l 449 435 q 428 433 435 442 q 422 404 422 424 q 415 386 415 401 q 426 367 417 375 q 443 363 436 360 l 442 326 q 428 328 438 328 q 414 324 415 328 l 381 513 l 364 485 l 411 293 l 335 432 l 318 404 l 369 329 q 368 313 368 328 q 371 299 368 301 q 382 299 374 296 q 389 300 388 300 l 408 275 q 417 274 413 269 q 426 280 424 281 q 433 283 429 279 l 442 283 m 493 274 q 492 283 494 275 q 478 288 488 286 q 474 278 472 282 l 476 272 q 493 274 485 264 z "},"H":{"ha":1154,"x_min":28,"x_max":1128,"o":"m 1122 60 l 614 953 q 603 966 610 960 q 581 972 596 972 q 558 966 565 972 q 544 953 550 960 l 35 64 q 28 39 28 57 q 39 12 28 24 q 65 0 50 0 l 1083 0 q 1097 1 1089 -1 q 1111 8 1104 3 q 1123 22 1118 14 q 1126 40 1128 31 q 1122 60 1126 53 m 581 876 l 1035 69 l 118 69 l 581 876 m 435 103 l 719 103 l 719 129 l 435 129 l 435 103 m 681 232 q 661 192 678 215 q 601 144 644 168 l 626 142 q 669 151 639 142 q 731 186 700 160 q 769 265 764 214 q 818 351 776 319 q 775 343 813 351 q 733 329 739 335 q 740 365 736 344 q 744 397 744 385 q 738 431 742 417 q 732 449 735 446 q 729 433 732 446 q 715 408 726 419 q 701 391 707 400 q 686 378 696 382 q 681 430 686 401 q 672 467 676 458 q 669 486 669 475 q 668 508 668 497 q 660 498 663 503 q 654 479 657 493 q 640 449 651 467 q 624 429 629 431 q 619 476 628 444 q 599 540 610 507 q 581 600 589 574 q 576 631 572 626 q 566 613 572 624 q 553 586 560 601 q 538 547 538 558 l 538 515 q 538 499 538 510 q 540 478 538 488 q 498 510 522 496 q 460 524 474 524 q 464 515 461 522 q 474 497 467 508 q 483 432 483 472 q 483 418 483 428 q 482 399 483 408 q 464 414 472 406 q 447 429 456 422 q 414 442 428 442 q 422 426 418 433 q 430 408 426 419 q 435 380 433 397 q 436 336 436 363 q 418 349 428 342 q 398 363 408 357 q 378 371 388 368 q 360 369 368 374 q 376 356 369 363 q 386 343 382 349 q 401 283 394 332 q 410 241 404 260 q 424 208 417 222 q 440 185 431 194 q 460 168 449 175 q 498 149 482 156 q 544 143 514 143 q 554 143 547 143 q 572 144 563 143 q 509 180 539 154 q 471 238 479 206 q 481 235 472 238 q 497 226 489 232 q 488 274 488 240 q 489 300 488 293 q 494 296 490 299 q 508 288 499 293 q 538 254 526 272 q 532 272 536 258 q 528 311 528 286 q 532 367 528 331 q 543 356 538 363 q 561 326 549 350 q 568 361 564 346 q 579 382 572 376 q 590 351 583 369 q 597 317 597 333 q 612 339 603 326 q 632 356 621 351 q 632 315 635 349 q 628 274 629 283 q 635 283 629 276 q 647 295 640 289 q 661 307 654 301 q 672 313 668 313 q 665 275 675 300 q 638 215 656 250 q 661 226 646 221 q 681 232 676 232 z "},"I":{"ha":1154,"x_min":28,"x_max":1126,"o":"m 1122 61 l 614 953 q 603 966 610 960 q 581 972 596 972 q 558 966 565 972 q 544 953 550 960 l 35 64 q 30 58 32 63 q 28 40 28 53 q 39 13 28 26 q 65 0 50 0 l 1083 0 q 1114 13 1101 3 q 1126 42 1126 22 q 1122 61 1126 54 m 581 876 l 1035 71 l 118 71 l 581 876 m 690 299 q 701 315 697 306 q 704 358 704 325 q 719 398 713 376 q 726 446 726 419 q 686 532 726 488 q 572 576 646 576 q 457 531 499 576 q 415 438 415 485 q 423 392 415 411 q 439 358 431 372 q 442 325 439 344 q 461 289 444 306 l 461 275 q 447 278 457 275 q 426 285 436 281 q 406 295 415 290 q 392 304 396 300 q 364 315 385 315 q 353 313 358 314 q 343 306 347 311 q 342 293 342 299 q 340 281 342 288 q 335 273 338 276 q 333 258 333 269 q 356 236 333 236 q 370 236 361 235 q 386 243 379 238 q 393 243 388 244 q 453 220 432 229 q 468 208 474 211 l 464 204 q 382 186 429 186 q 360 165 360 185 l 364 153 l 378 129 q 400 117 379 117 q 431 136 414 117 q 451 151 439 143 q 493 168 463 160 q 505 167 499 169 q 519 160 511 164 q 540 153 528 157 q 569 150 553 150 q 626 161 606 150 q 654 171 647 172 q 694 158 679 165 q 720 142 710 150 q 737 129 731 135 q 749 124 743 124 q 771 133 761 124 l 782 150 q 788 158 786 153 q 790 169 789 164 q 769 190 790 190 q 738 192 742 190 q 727 194 735 193 q 708 199 719 196 q 683 206 683 206 q 685 215 676 208 q 708 228 694 221 q 734 242 721 236 q 750 247 747 247 q 765 247 757 251 q 776 242 771 243 q 788 242 782 242 q 810 251 803 246 q 817 269 817 257 q 810 285 815 281 q 808 299 806 289 q 800 315 806 307 q 781 324 794 324 q 760 317 765 321 q 749 307 754 313 q 733 294 744 301 q 697 281 722 288 q 686 283 694 281 q 686 292 686 289 q 690 299 686 296 m 481 247 q 491 225 485 233 q 503 211 497 217 q 517 201 504 203 q 522 201 519 204 q 558 200 525 200 l 593 200 q 610 203 597 201 q 631 204 622 206 q 644 208 640 203 q 651 219 647 214 l 667 250 q 660 211 667 222 q 631 183 649 200 q 574 167 614 167 q 539 172 551 167 q 506 190 526 178 q 483 215 486 203 q 481 247 481 228 m 735 258 q 712 247 724 253 q 690 242 700 240 l 686 254 q 710 269 696 264 q 743 281 724 274 l 760 292 l 778 304 q 786 304 782 308 l 790 301 q 795 278 790 286 q 799 267 800 271 q 781 258 796 256 l 767 264 q 735 258 757 268 m 744 174 q 771 172 751 172 q 771 163 772 164 l 758 143 q 743 143 751 136 q 717 163 733 156 q 667 186 700 171 q 681 189 669 192 l 744 174 m 460 171 q 436 160 447 165 q 406 138 425 156 q 394 138 400 131 q 385 153 389 146 l 379 158 q 383 169 376 161 q 429 178 393 169 q 481 188 463 188 q 477 178 485 182 q 460 171 469 174 m 413 272 l 447 260 q 453 256 450 258 q 461 251 456 254 q 463 238 465 246 l 458 235 l 438 244 l 404 257 q 386 260 394 263 l 367 253 q 350 258 356 246 q 356 272 347 264 q 357 292 356 285 q 369 299 361 300 q 386 288 375 297 q 406 276 397 278 l 413 272 m 608 253 q 590 251 600 251 q 568 251 582 251 q 549 251 557 251 q 533 253 540 251 q 524 260 526 254 q 517 272 521 265 q 508 284 514 278 q 493 294 503 290 l 469 307 q 458 325 460 311 q 458 350 454 338 q 463 374 463 361 q 464 397 464 386 q 465 411 465 404 q 465 426 465 418 q 469 449 465 443 q 476 464 472 454 q 476 474 482 469 l 469 474 q 451 441 454 457 q 449 389 449 425 l 446 385 q 431 433 431 404 q 451 500 431 464 q 477 530 461 518 q 509 548 493 542 q 540 557 525 554 q 567 560 556 560 q 607 556 588 560 q 657 535 626 553 q 703 479 688 518 q 711 436 711 471 q 699 392 711 410 q 694 418 696 406 q 692 444 693 431 l 683 464 q 678 472 681 469 q 674 476 675 475 l 667 476 q 668 457 663 469 q 679 410 679 442 q 682 382 679 393 l 685 367 q 689 346 689 356 q 678 315 693 328 q 644 292 663 301 q 633 281 636 288 q 628 267 631 274 q 622 256 626 261 q 608 253 618 251 m 565 214 l 569 211 l 565 210 l 565 214 m 581 214 l 585 211 l 581 208 l 578 211 l 581 214 m 678 354 q 665 397 678 375 q 621 414 653 418 q 593 410 615 414 q 574 376 574 403 q 594 342 574 357 q 649 328 615 328 q 671 336 664 328 q 678 354 678 344 m 569 378 q 565 399 569 392 q 552 410 560 407 q 538 413 544 413 q 526 413 531 413 q 485 403 504 413 q 467 350 467 394 q 474 330 467 335 q 503 325 481 325 q 550 340 531 325 q 569 378 569 354 m 596 301 q 592 315 594 307 q 587 331 590 324 q 580 344 583 339 q 572 347 576 349 q 567 344 571 346 q 561 335 564 343 q 554 313 558 326 q 554 292 550 299 q 567 293 558 286 q 578 293 576 294 q 589 288 582 289 l 596 301 z "},"J":{"ha":1099,"x_min":28,"x_max":1071,"o":"m 763 675 q 764 692 764 679 q 729 754 764 740 l 719 864 q 695 910 719 892 q 633 933 671 928 l 428 969 q 409 972 417 971 q 397 972 401 972 q 352 962 372 972 q 324 932 332 951 l 276 833 q 241 815 260 833 q 218 771 222 796 l 199 633 l 199 618 q 205 583 199 594 q 221 563 211 571 l 211 501 q 226 479 207 482 l 265 472 q 289 488 282 468 l 299 549 l 611 493 l 599 433 q 615 410 599 411 l 654 403 q 678 419 675 400 l 689 479 q 716 497 706 486 q 733 538 726 507 l 763 675 m 1053 15 q 1071 124 1071 60 q 1063 188 1071 161 q 1029 235 1056 214 q 943 268 1004 257 q 803 279 882 279 q 654 281 726 281 q 515 282 582 282 q 567 335 529 315 q 654 371 606 356 l 597 381 q 478 347 521 374 q 421 285 435 321 q 315 290 365 285 q 227 305 265 296 q 167 326 189 314 q 144 350 144 338 q 186 393 144 372 q 275 428 226 413 l 211 440 q 140 423 174 432 q 82 402 107 414 q 42 376 57 390 q 28 342 28 361 q 143 263 28 299 q 415 228 257 228 l 421 228 q 483 160 431 181 q 568 124 536 140 q 600 94 600 107 q 572 47 600 79 q 521 0 546 17 l 667 0 q 703 54 693 32 q 714 97 714 76 q 635 171 714 151 q 569 194 597 181 q 525 226 540 207 l 669 226 q 869 218 792 226 q 956 190 944 213 q 967 150 967 171 q 949 71 967 113 q 921 15 929 25 l 1053 15 m 661 794 q 633 771 661 767 l 372 815 q 357 827 364 818 q 354 849 350 836 l 371 883 q 425 911 385 918 l 617 878 q 645 863 633 875 q 657 833 657 850 l 661 794 z "},"K":{"ha":1154,"x_min":28,"x_max":1126,"o":"m 1122 61 l 614 953 q 603 966 610 960 q 581 972 596 972 q 558 966 565 972 q 544 953 550 960 l 35 64 q 30 58 32 63 q 28 40 28 53 q 39 13 28 26 q 65 0 50 0 l 1083 0 q 1114 13 1101 3 q 1126 42 1126 22 q 1122 61 1126 54 m 581 876 l 1035 71 l 118 71 l 581 876 m 476 651 l 485 407 l 610 526 l 610 421 l 576 428 l 625 369 q 590 378 615 369 q 551 392 565 386 l 536 394 q 510 386 524 394 q 499 369 497 378 q 504 364 500 364 q 511 367 507 364 q 519 374 515 371 l 522 371 l 528 369 l 540 374 l 547 372 q 576 351 554 363 q 610 340 597 340 q 578 319 599 321 l 554 319 l 513 322 q 474 314 488 322 q 456 300 467 310 q 434 279 446 290 q 412 258 422 268 q 394 240 401 247 q 388 242 392 240 l 379 257 q 372 261 375 261 q 368 258 371 260 q 364 253 365 257 q 365 223 361 231 q 374 214 368 215 l 375 204 l 379 194 l 388 193 l 408 203 q 443 225 425 208 l 486 268 q 506 276 493 275 l 532 278 q 516 268 525 274 q 499 257 507 263 q 488 247 492 251 q 488 239 483 242 l 485 208 q 478 177 482 193 q 469 151 474 161 l 463 144 q 456 143 460 142 l 443 144 l 436 140 l 440 133 q 457 123 447 126 q 476 118 467 119 q 486 122 482 118 q 497 117 488 118 q 513 117 506 117 l 515 126 l 515 136 l 519 138 l 521 172 q 528 215 521 197 q 543 233 535 232 q 588 245 560 238 q 631 268 615 253 q 643 263 635 264 l 668 267 q 691 276 674 268 q 713 286 708 285 q 725 282 718 290 l 744 240 q 746 231 747 236 q 741 208 742 217 q 740 189 740 199 l 729 176 l 725 171 l 722 168 l 715 165 l 713 161 l 717 158 l 724 156 q 742 156 726 153 q 744 160 742 160 l 754 169 l 754 179 l 764 189 l 769 200 l 778 236 q 774 261 779 254 l 760 286 q 749 322 749 311 l 764 315 q 769 315 765 315 q 781 317 774 315 q 797 343 796 328 q 791 359 797 353 q 778 369 785 365 l 775 372 l 768 383 q 764 385 765 386 l 758 382 l 750 385 l 744 386 l 739 388 l 732 389 l 729 386 l 722 372 q 714 371 718 368 q 674 379 694 379 q 657 376 671 379 q 638 371 643 372 l 686 428 l 651 421 l 651 629 l 532 515 l 535 651 l 504 644 l 476 651 z "},"L":{"ha":1154,"x_min":28,"x_max":1126,"o":"m 1122 61 l 614 953 q 603 966 610 960 q 581 972 596 972 q 558 966 565 972 q 544 953 550 960 l 35 64 q 30 58 32 63 q 28 40 28 53 q 39 13 28 26 q 65 0 50 0 l 1083 0 q 1114 13 1101 3 q 1126 42 1126 22 q 1122 61 1126 54 m 581 876 l 1035 71 l 118 71 l 581 876 m 722 282 q 711 336 722 311 q 681 380 700 361 q 636 410 661 399 q 582 421 611 421 q 527 410 553 421 q 482 380 501 399 q 451 336 463 361 q 440 282 440 311 q 451 227 440 253 q 482 182 463 201 q 527 151 501 163 q 582 140 553 140 q 637 151 611 140 q 681 182 663 163 q 711 227 700 201 q 722 282 722 253 m 449 354 l 471 386 q 469 403 469 388 q 476 433 469 419 q 489 401 479 407 q 531 424 504 415 q 526 442 529 426 q 526 465 524 458 q 550 429 531 453 l 574 432 q 570 446 571 439 q 569 467 569 453 q 572 486 569 472 q 576 501 574 492 q 579 521 578 511 q 581 538 581 531 q 582 546 582 544 q 596 499 596 528 q 599 481 596 496 q 606 457 601 467 l 613 429 l 635 422 q 636 430 635 424 q 640 443 638 436 q 645 456 643 450 q 650 464 647 461 q 653 447 651 456 q 657 435 654 438 l 660 410 l 676 399 q 692 415 682 413 l 693 383 q 732 282 732 343 l 732 267 q 744 318 744 292 q 743 338 744 328 q 742 357 742 349 q 738 389 738 374 q 751 431 738 413 q 726 435 743 439 q 727 442 726 438 q 729 453 728 446 l 729 475 q 722 530 729 504 q 697 571 714 556 l 697 556 q 695 538 696 547 q 693 525 694 529 q 639 632 693 604 q 647 617 644 622 q 649 603 649 613 q 644 581 649 593 q 624 628 640 604 q 601 660 608 651 q 594 673 599 664 q 587 693 590 682 q 581 716 583 704 q 579 738 579 728 q 553 707 558 722 q 549 664 549 692 q 549 650 549 658 q 550 631 549 642 q 551 613 550 622 q 550 600 551 604 q 526 623 542 613 q 496 633 511 633 q 479 629 488 633 q 508 608 504 618 q 513 578 513 599 q 505 541 513 560 q 488 504 497 522 q 466 533 482 517 q 432 546 450 550 q 451 527 446 535 q 457 503 457 519 q 456 485 457 489 l 446 456 q 440 435 444 451 q 436 414 435 419 q 394 432 410 440 q 414 401 414 421 l 411 335 q 415 300 413 318 q 431 269 418 282 l 431 282 q 442 339 431 314 q 442 356 442 347 q 444 369 442 365 l 449 354 m 426 114 l 743 114 l 743 140 l 426 140 l 426 114 m 471 282 q 503 360 471 328 q 582 393 536 393 q 660 360 628 393 q 693 282 693 328 q 684 238 693 258 q 660 203 675 218 q 624 178 644 188 q 582 169 604 169 q 503 203 535 169 q 471 282 471 236 z "},"M":{"ha":1154,"x_min":28,"x_max":1126,"o":"m 1122 61 l 614 953 q 603 966 610 960 q 581 972 596 972 q 558 966 565 972 q 544 953 550 960 l 35 64 q 30 58 32 63 q 28 40 28 53 q 39 13 28 26 q 65 0 50 0 l 1083 0 q 1114 13 1101 3 q 1126 42 1126 22 q 1122 61 1126 54 m 581 876 l 1035 71 l 118 71 l 581 876 m 557 206 q 579 182 557 182 q 603 206 603 182 q 579 229 603 229 q 557 206 557 229 m 564 322 q 592 324 581 328 q 596 297 592 313 q 606 265 600 281 q 604 261 606 263 l 599 261 q 591 256 594 260 q 585 247 588 251 q 599 242 585 243 l 626 242 l 633 243 l 633 247 q 624 267 633 249 q 608 314 615 285 q 610 322 608 318 l 619 328 q 632 328 621 329 l 663 318 q 667 321 667 315 l 643 338 q 653 338 644 339 q 671 338 663 338 l 676 342 l 682 353 l 688 353 l 690 343 q 683 342 689 342 l 678 338 q 674 321 674 329 q 681 299 674 303 l 681 292 q 685 282 679 290 l 690 285 q 689 280 690 283 q 683 275 688 276 q 679 276 682 274 l 668 286 l 664 281 q 650 223 660 251 q 631 172 640 194 l 649 179 q 663 209 656 189 q 672 236 669 229 q 681 247 675 244 q 692 256 688 249 l 694 260 l 697 264 l 700 268 q 708 280 707 274 q 711 290 710 286 l 711 296 l 714 301 q 717 292 718 301 l 718 286 l 774 208 l 783 208 l 808 221 q 819 221 811 224 q 828 215 824 219 q 835 208 832 211 l 850 183 l 876 183 l 861 207 l 863 211 l 875 221 q 871 226 878 224 q 829 236 849 224 l 828 240 l 828 254 q 824 267 825 256 l 819 272 q 807 283 813 275 q 801 282 806 282 q 776 257 794 267 l 788 243 q 795 251 789 247 q 806 260 801 256 q 810 258 807 258 q 813 251 813 256 q 805 235 813 242 q 790 226 797 228 l 783 226 l 771 244 q 771 250 769 246 q 781 268 772 256 q 800 292 790 281 q 800 299 801 297 l 793 299 l 760 265 q 763 280 760 271 q 789 304 767 289 l 790 311 q 781 311 789 313 l 743 286 l 742 290 q 806 328 753 301 q 817 325 807 329 q 874 252 854 289 q 906 183 893 215 l 931 183 q 889 271 924 218 q 822 347 851 325 q 813 347 819 350 l 804 343 q 788 340 804 343 l 711 340 l 707 361 q 697 381 704 379 q 685 382 689 382 l 681 386 l 668 415 q 654 420 664 418 q 635 425 644 422 q 651 391 644 408 q 658 361 658 374 l 656 350 l 650 353 l 626 360 q 610 360 615 361 l 594 353 l 597 365 l 582 365 l 574 353 l 567 365 l 551 365 l 551 353 l 539 360 q 522 360 532 361 l 499 353 l 493 350 l 489 361 q 498 390 489 371 q 515 425 507 408 q 495 419 508 422 q 481 415 482 417 l 469 386 l 464 382 q 451 379 457 382 q 442 361 444 376 l 438 340 l 363 340 q 344 343 347 342 l 338 347 q 326 347 329 350 q 258 272 292 324 q 217 183 225 222 l 243 183 q 277 253 257 215 q 315 308 297 290 q 338 328 335 326 q 343 328 340 329 q 358 319 349 325 q 379 307 367 314 q 408 290 406 292 l 406 286 l 367 311 l 360 311 q 360 304 358 310 q 376 292 369 299 q 386 281 383 286 q 386 265 388 275 l 356 299 l 349 299 l 347 292 q 365 272 357 283 q 378 250 374 261 l 379 244 l 365 226 l 358 226 q 345 235 353 228 q 338 251 338 243 q 343 260 338 256 q 354 251 349 256 q 363 243 360 247 l 372 257 q 347 282 354 265 q 342 283 343 282 q 329 272 336 275 l 324 267 q 321 254 321 254 q 321 240 319 242 l 319 236 q 276 226 296 225 q 274 221 274 224 l 286 211 l 289 207 l 272 183 l 299 183 l 314 208 q 331 221 322 218 q 340 221 338 224 l 367 208 q 376 208 375 207 l 431 286 l 432 292 q 435 301 431 301 l 438 296 l 438 290 q 447 268 442 274 l 450 264 l 454 260 l 457 256 q 463 249 454 253 q 474 240 471 246 l 499 179 l 518 172 q 502 215 513 185 q 485 281 492 244 l 481 286 l 469 276 l 467 275 l 464 275 l 460 286 l 468 282 l 468 292 l 468 296 q 472 301 468 297 q 475 318 475 304 q 471 338 475 326 q 464 342 467 342 l 458 343 l 461 353 l 464 354 q 467 353 465 354 l 474 342 l 479 338 q 496 339 488 339 q 506 338 504 339 l 489 321 q 493 317 489 314 l 525 328 q 536 326 535 328 q 547 319 544 321 q 547 314 549 317 q 540 285 544 297 q 522 250 536 274 l 522 243 l 529 240 l 557 240 q 571 247 571 243 q 557 260 564 260 l 551 260 l 550 264 q 552 271 550 264 q 557 288 554 278 q 562 306 560 297 q 564 322 564 315 m 694 317 l 696 325 l 763 325 l 751 314 q 740 315 743 313 q 733 315 738 317 q 722 314 729 310 q 703 314 714 318 q 694 317 694 314 m 453 325 l 454 317 q 444 314 451 314 q 420 315 435 317 q 399 314 406 314 l 386 325 l 453 325 z "},"N":{"ha":1154,"x_min":28,"x_max":1126,"o":"m 1122 60 l 614 953 q 603 966 610 960 q 581 972 596 972 q 558 966 565 972 q 544 953 550 960 l 35 63 q 30 56 32 61 q 28 39 28 51 q 39 12 28 24 q 65 0 50 0 l 1083 0 q 1114 12 1101 3 q 1126 40 1126 21 q 1122 60 1126 53 m 581 876 l 1035 69 l 118 69 l 581 876 m 729 481 l 718 500 l 693 531 l 685 547 q 680 566 682 560 q 671 588 678 572 l 663 604 q 653 629 660 608 l 651 642 l 650 675 q 644 688 649 683 q 631 682 638 689 l 615 665 q 611 651 613 658 q 608 636 610 643 l 596 664 l 592 679 l 582 697 l 575 703 q 567 696 574 703 l 567 679 q 565 663 565 671 q 564 646 565 654 l 564 610 l 556 575 l 544 565 l 515 550 l 501 539 l 481 521 l 468 497 q 435 468 457 474 q 393 447 411 457 q 361 428 375 438 q 340 415 347 419 q 331 406 333 410 q 327 401 328 403 q 326 397 326 400 l 331 383 q 347 372 335 376 q 354 367 350 369 q 363 361 358 364 l 372 357 q 397 351 382 351 l 438 344 l 414 319 l 408 311 q 401 274 403 304 l 399 258 l 406 250 q 431 275 419 247 l 438 281 l 457 281 l 469 281 q 489 286 479 281 l 528 314 q 544 319 542 321 q 553 306 550 318 l 554 293 l 551 222 q 560 169 551 194 l 574 115 l 578 104 l 588 97 l 596 113 l 603 121 q 623 144 613 132 q 638 169 633 157 l 646 217 q 656 233 649 225 q 669 247 663 240 l 682 267 l 689 279 q 713 297 699 292 l 732 303 q 746 331 744 313 l 751 358 l 754 369 q 771 390 758 378 l 774 400 l 774 414 q 761 436 768 426 q 747 456 754 446 l 729 481 m 499 493 q 492 492 496 493 q 492 486 489 490 l 501 479 l 513 475 l 515 472 q 496 474 511 471 q 490 471 493 472 q 483 468 486 469 l 479 468 l 482 471 l 483 478 l 486 481 l 486 488 q 496 498 489 496 q 507 497 503 500 l 499 493 z "},"O":{"ha":1028,"x_min":28,"x_max":1000,"o":"m 514 0 l 1000 486 l 514 972 l 28 486 l 514 0 m 953 486 l 514 46 l 74 486 l 514 925 l 953 486 m 353 379 l 353 426 l 339 426 l 329 389 l 322 426 l 307 426 l 307 379 l 317 379 l 317 418 l 325 379 l 335 379 l 343 418 l 343 379 l 353 379 m 371 379 l 371 396 l 383 396 q 397 410 394 396 q 383 426 397 426 l 361 426 l 361 379 l 371 379 m 406 426 l 406 379 l 414 379 l 414 397 l 425 397 q 432 389 432 397 l 433 379 l 444 381 q 442 390 442 383 q 436 401 442 396 q 443 413 443 404 q 429 426 440 426 l 406 426 m 486 417 l 486 426 l 451 426 l 451 379 l 488 379 l 488 388 l 461 388 l 461 400 l 485 400 l 485 407 l 461 407 l 461 417 l 486 417 m 501 394 l 493 394 q 513 378 493 378 q 525 382 519 379 q 531 393 531 385 q 518 406 531 403 l 507 408 l 503 414 l 510 419 q 519 413 515 419 l 529 413 q 523 422 526 418 q 511 426 519 426 q 493 413 493 426 q 508 399 493 401 l 514 397 l 521 392 q 517 388 519 390 q 511 386 514 386 q 501 394 507 386 m 546 394 l 536 394 q 556 378 536 378 q 568 382 563 379 q 574 393 574 385 q 561 406 574 403 l 550 408 l 546 414 l 553 419 q 563 413 558 419 l 572 413 q 566 422 569 418 q 554 426 563 426 q 536 413 536 426 q 551 399 536 401 l 556 397 q 565 392 560 397 l 556 386 q 546 394 550 386 m 615 417 l 615 426 l 581 426 l 581 379 l 617 379 l 617 388 l 590 388 l 590 400 l 614 400 l 614 407 l 590 407 l 590 417 l 615 417 m 624 426 l 624 379 l 644 379 q 664 404 664 379 q 644 426 664 426 l 624 426 m 711 404 l 711 397 l 722 397 q 711 386 721 392 q 697 403 697 386 q 711 419 697 419 q 721 411 714 419 l 731 411 q 710 426 731 426 q 688 403 688 426 q 708 378 688 378 q 724 385 717 378 l 724 379 l 731 379 l 731 404 l 711 404 m 746 379 l 750 389 l 767 389 l 769 379 l 779 379 l 764 426 l 753 426 l 736 379 l 746 379 m 793 394 l 783 394 q 804 378 783 378 q 817 382 811 379 q 822 393 822 385 q 810 406 822 403 l 799 408 l 793 414 l 801 419 q 811 413 807 419 l 821 413 q 815 422 818 418 q 801 426 811 426 q 785 413 785 426 q 799 399 785 400 l 804 397 l 813 392 q 808 388 811 390 q 803 386 806 386 q 793 394 797 386 m 704 672 l 660 660 l 653 660 q 640 671 647 667 q 617 671 633 675 l 251 585 q 231 572 240 581 q 226 543 222 564 q 239 519 231 531 q 271 514 247 508 l 636 600 q 651 606 643 601 q 663 628 658 611 l 665 633 l 713 644 q 722 661 722 653 q 704 672 722 676 m 240 410 l 250 410 q 231 426 250 426 q 208 403 208 426 q 231 378 208 378 q 250 394 246 378 l 240 394 q 231 386 240 392 q 218 403 218 386 q 231 418 218 418 q 240 410 233 418 m 278 426 q 263 422 269 426 q 256 403 256 417 q 278 378 256 378 q 293 383 286 378 q 300 403 300 388 q 278 426 300 426 m 753 397 l 758 415 l 764 397 l 753 397 m 278 386 q 265 403 265 386 q 278 419 265 419 q 290 403 290 419 q 278 386 290 386 m 633 388 l 633 418 l 643 418 q 654 403 654 411 q 643 388 654 388 l 633 388 m 426 406 l 414 406 l 414 418 l 426 418 q 433 411 429 418 l 426 406 m 381 404 l 371 404 l 371 418 l 379 418 q 388 411 388 418 q 381 404 385 404 z "},"P":{"ha":1028,"x_min":28,"x_max":1000,"o":"m 514 0 l 1000 486 l 514 972 l 28 486 l 514 0 m 953 486 l 514 46 l 74 486 l 514 925 l 953 486 m 388 357 l 388 392 l 401 392 l 401 400 l 365 400 l 365 392 l 379 392 l 379 357 l 388 357 m 424 401 q 404 379 404 401 q 424 357 404 357 q 443 379 443 357 q 424 401 443 401 m 450 400 l 450 357 l 460 357 l 460 375 l 468 375 q 475 367 475 375 l 476 357 l 486 358 l 485 367 q 479 378 485 376 q 486 388 482 378 q 472 400 483 400 l 450 400 m 524 392 l 524 400 l 492 400 l 492 357 l 525 357 l 525 365 l 501 365 l 501 376 l 522 376 l 522 383 l 501 383 l 501 392 l 524 392 m 554 357 l 558 367 l 572 367 l 575 357 l 585 357 l 569 400 l 561 400 l 544 357 l 554 357 m 588 400 l 599 357 l 607 357 l 615 390 l 619 357 l 628 357 l 640 400 l 632 400 l 624 368 l 618 400 l 610 400 l 603 368 l 596 400 l 588 400 m 651 357 l 654 367 l 669 367 l 672 357 l 682 357 l 667 400 l 658 400 l 643 357 l 651 357 m 707 357 l 707 374 l 722 400 l 713 400 l 703 382 l 694 400 l 685 400 l 699 374 l 699 357 l 707 357 m 351 286 l 351 304 l 368 304 l 368 311 l 351 311 l 351 321 l 371 321 l 371 329 l 342 329 l 342 286 l 351 286 m 378 329 l 378 286 l 386 286 l 386 303 l 394 303 q 403 294 403 303 l 404 286 l 413 288 l 411 296 q 407 306 411 303 q 413 317 410 306 q 409 324 411 319 q 399 329 407 329 l 378 329 m 439 331 q 425 326 432 331 q 418 307 418 321 q 439 285 418 285 q 452 289 444 286 q 460 307 460 292 q 451 326 460 322 q 439 331 443 329 m 507 286 l 507 329 l 492 329 l 486 296 l 478 329 l 464 329 l 464 286 l 474 286 l 474 321 l 482 286 l 490 286 l 497 321 l 497 286 l 507 286 m 540 286 l 540 304 l 558 304 l 558 311 l 540 311 l 540 321 l 561 321 l 561 329 l 531 329 l 531 286 l 540 286 m 585 331 q 573 326 581 331 q 565 307 565 322 q 585 285 565 285 q 606 307 606 285 q 585 331 606 331 m 629 331 q 617 326 625 331 q 610 307 610 322 q 629 285 610 285 q 649 307 649 285 q 629 331 649 331 m 657 329 l 657 286 l 675 286 q 693 308 693 286 q 675 329 693 329 l 657 329 m 393 464 l 486 556 l 490 546 q 496 519 488 525 q 508 501 504 514 l 508 478 l 515 471 l 521 471 q 519 493 519 476 q 528 519 519 513 q 536 532 536 525 q 532 539 536 535 l 542 556 l 635 463 l 665 492 l 544 613 l 661 726 l 626 760 l 556 688 l 554 701 q 554 729 557 714 l 549 733 q 550 746 550 735 l 550 767 l 544 767 l 544 796 l 539 794 l 540 818 l 536 821 l 533 847 l 526 844 q 526 855 526 850 q 524 867 525 860 l 515 858 l 510 865 l 503 858 l 490 867 l 490 843 l 485 844 l 483 828 q 478 815 478 829 q 478 808 478 814 q 479 799 478 804 l 472 801 q 472 785 471 799 q 476 768 474 771 l 467 769 q 474 735 460 750 l 465 739 q 467 723 467 731 q 471 713 468 715 l 467 693 l 401 761 l 368 728 l 483 614 l 364 493 l 393 464 m 338 371 l 329 371 q 346 357 332 357 q 358 359 354 357 q 363 369 363 361 q 353 382 363 382 l 342 383 l 338 389 l 344 393 q 354 388 350 393 l 363 388 q 356 397 360 393 q 344 401 353 401 q 334 397 336 401 q 331 388 332 393 q 342 375 331 382 l 347 375 q 356 368 349 375 l 346 364 q 338 371 342 364 m 526 568 l 529 563 l 522 563 l 526 568 m 531 550 q 522 542 531 543 q 531 550 522 546 m 544 676 l 519 651 l 517 660 q 526 676 517 669 q 542 682 536 683 l 544 676 m 507 656 l 475 686 q 501 683 490 690 q 507 656 513 675 m 510 572 l 515 565 l 513 563 l 506 568 l 510 572 m 424 364 q 413 379 413 364 q 424 393 413 393 q 436 379 436 393 q 424 364 436 364 m 497 561 q 508 553 503 561 q 513 540 513 546 q 498 546 501 542 q 493 556 494 550 l 497 561 m 469 382 l 460 382 l 460 392 l 471 392 l 476 386 l 469 382 m 508 519 l 497 533 q 499 538 497 536 q 511 526 500 538 l 508 519 m 519 525 l 525 526 l 519 525 m 560 374 l 565 390 l 569 374 l 560 374 m 522 860 q 519 844 528 854 l 517 854 l 522 860 m 496 854 l 500 850 l 496 847 l 496 854 m 657 374 l 663 390 l 667 374 l 657 374 m 510 851 q 513 836 513 851 l 508 833 l 506 839 l 504 844 l 510 851 m 526 835 q 529 826 529 832 q 525 817 529 821 q 517 810 521 813 l 515 818 q 518 828 514 824 q 526 835 522 832 m 490 833 q 499 828 494 833 q 506 818 503 824 l 503 814 q 493 820 494 814 q 490 833 492 826 m 397 310 l 386 310 l 386 321 l 397 321 q 404 317 400 321 q 397 310 404 314 m 486 807 l 506 799 l 508 793 q 503 790 506 790 q 491 797 494 792 q 486 807 488 801 m 439 293 q 428 307 428 300 q 439 322 428 315 q 450 307 450 315 q 439 293 450 300 m 531 806 l 535 800 q 530 788 536 794 q 517 782 524 782 q 514 789 514 788 q 519 801 514 797 q 531 806 525 804 m 510 768 l 499 764 q 484 772 489 764 q 483 783 479 779 l 493 781 q 503 776 499 781 q 510 768 507 772 m 540 782 l 540 774 q 533 763 540 768 q 519 754 526 758 l 517 758 q 526 772 519 769 q 540 782 533 775 m 585 293 q 572 307 572 293 q 585 322 572 322 q 596 307 596 322 q 585 293 596 293 m 486 754 q 511 738 508 754 q 503 731 514 731 q 483 738 489 731 q 474 753 476 746 l 486 754 m 629 293 q 618 307 618 300 q 629 322 618 315 q 640 307 640 322 q 629 293 640 293 m 543 750 l 544 743 q 536 731 543 736 q 522 722 529 726 l 517 725 q 523 739 517 735 q 536 746 529 743 l 543 750 m 665 293 l 665 321 l 675 321 q 685 307 685 315 q 675 293 685 293 l 665 293 m 481 722 q 510 704 508 722 q 503 697 507 697 q 476 719 486 697 l 481 722 m 546 711 q 528 693 546 693 q 518 696 524 693 q 527 709 518 703 q 543 717 536 715 q 546 711 546 717 z "},"Q":{"ha":1028,"x_min":28,"x_max":1000,"o":"m 28 913 l 28 60 q 46 18 28 36 q 88 0 64 0 l 940 0 q 982 18 964 0 q 1000 60 1000 36 l 1000 913 q 982 954 1000 936 q 940 972 964 972 l 88 972 q 46 954 64 972 q 28 913 28 936 m 644 356 l 644 100 l 383 100 l 383 356 l 128 356 l 128 617 l 383 617 l 383 872 l 644 872 l 644 617 l 900 617 l 900 356 l 644 356 z "},"R":{"ha":1028,"x_min":28,"x_max":1000,"o":"m 28 913 l 28 60 q 46 18 28 36 q 88 0 64 0 l 940 0 q 982 18 964 0 q 1000 60 1000 36 l 1000 913 q 982 954 1000 936 q 940 972 964 972 l 88 972 q 46 954 64 972 q 28 913 28 936 m 596 764 l 396 563 l 925 563 l 925 401 l 396 401 l 593 203 l 360 203 l 81 482 l 363 764 l 596 764 z "},"S":{"ha":1028,"x_min":28,"x_max":1000,"o":"m 1000 60 l 1000 913 q 982 954 1000 936 q 940 972 964 972 l 88 972 q 46 954 64 972 q 28 913 28 936 l 28 60 q 46 18 28 36 q 88 0 64 0 l 940 0 q 982 18 964 0 q 1000 60 1000 36 m 632 563 l 432 764 l 665 764 l 947 482 l 668 203 l 435 203 l 632 401 l 103 401 l 103 563 l 632 563 z "},"T":{"ha":1028,"x_min":28,"x_max":1000,"o":"m 940 972 l 88 972 q 46 954 64 972 q 28 913 28 936 l 28 60 q 46 18 28 36 q 88 0 64 0 l 940 0 q 982 18 964 0 q 1000 60 1000 36 l 1000 913 q 982 954 1000 936 q 940 972 964 972 m 438 604 l 236 404 l 236 638 l 518 919 l 797 640 l 797 407 l 599 604 l 599 75 l 438 75 l 438 604 z "},"U":{"ha":1028,"x_min":28,"x_max":1000,"o":"m 88 0 l 940 0 q 982 18 964 0 q 1000 60 1000 36 l 1000 913 q 982 954 1000 936 q 940 972 964 972 l 88 972 q 46 954 64 972 q 28 913 28 936 l 28 60 q 46 18 28 36 q 88 0 64 0 m 236 568 l 438 368 l 438 897 l 599 897 l 599 368 l 797 565 l 797 332 l 518 53 l 236 335 l 236 568 z "},"V":{"ha":574,"x_min":28,"x_max":546,"o":"m 246 725 q 253 714 250 719 q 256 700 256 708 l 336 700 l 336 972 l 64 972 l 64 700 l 136 700 q 146 725 136 722 l 89 725 l 89 947 l 311 947 l 311 725 l 246 725 m 286 836 q 261 897 286 874 q 200 921 236 921 q 139 896 164 921 q 114 836 114 871 q 139 775 114 800 q 200 750 164 750 q 261 775 236 750 q 286 836 286 800 m 260 511 q 247 506 257 500 l 247 696 q 234 728 243 713 q 194 743 225 743 q 159 731 169 743 q 144 697 149 719 l 144 269 l 131 269 l 131 439 q 120 478 128 458 q 81 497 113 497 q 40 479 49 497 q 28 442 31 461 l 28 274 l 29 215 l 33 203 l 133 56 q 140 43 136 53 q 143 18 143 33 l 143 0 l 482 0 l 482 15 q 483 29 482 21 q 486 47 483 38 q 496 67 489 57 q 517 89 503 78 l 535 104 q 542 115 539 110 q 546 124 546 119 l 546 426 q 535 458 543 443 q 499 474 528 474 q 459 458 468 474 q 447 425 450 442 q 445 437 447 426 q 440 467 443 447 q 401 507 433 507 q 363 488 369 507 q 358 471 360 478 q 356 460 357 464 q 353 474 354 463 q 349 507 351 486 q 301 544 336 544 q 269 533 276 544 q 260 511 263 522 z "},"W":{"ha":578,"x_min":28,"x_max":550,"o":"m 550 606 l 550 739 q 460 804 508 760 q 375 972 414 846 q 357 876 357 929 q 401 733 357 804 q 550 606 444 661 m 213 732 q 332 567 261 613 q 474 522 406 522 q 529 531 508 522 q 487 549 510 538 q 440 578 464 561 q 353 703 392 613 q 263 844 314 792 q 97 897 213 897 q 162 831 138 867 q 213 732 186 794 m 550 293 l 550 421 q 499 431 542 421 q 398 472 457 442 q 271 556 339 503 q 144 693 203 608 q 231 461 144 550 q 390 346 319 374 q 550 293 467 318 m 219 264 q 317 198 267 217 q 417 179 367 179 q 489 189 457 179 q 529 207 521 199 q 409 251 463 224 q 308 328 356 279 q 222 393 261 376 q 143 410 183 410 q 78 398 110 410 q 28 372 46 386 q 219 264 103 381 m 550 0 l 550 119 q 544 117 547 118 q 535 116 542 117 q 517 115 529 115 q 483 115 504 115 q 310 139 399 115 q 150 228 221 163 q 186 144 164 188 q 296 53 207 107 q 550 0 386 0 z "},"X":{"ha":489,"x_min":28,"x_max":461,"o":"m 322 947 l 328 971 l 247 971 l 254 947 l 182 947 l 50 864 q 35 847 42 857 q 28 819 28 838 l 28 753 l 57 753 l 57 778 q 58 784 57 779 q 64 793 58 789 l 192 874 l 244 874 l 235 864 l 235 800 l 210 800 q 178 794 194 799 q 146 782 161 789 q 115 711 115 768 l 115 0 l 461 0 l 461 708 q 440 769 456 738 q 378 800 426 800 l 342 800 l 342 874 l 385 874 l 421 888 l 421 933 l 390 947 l 322 947 m 403 139 l 171 139 l 171 622 l 403 622 l 403 139 m 389 608 l 185 608 l 185 151 l 389 151 l 389 608 z "},"Y":{"ha":686,"x_min":28,"x_max":658,"o":"m 211 964 l 253 681 q 265 684 260 683 q 288 689 269 685 q 310 700 306 694 q 317 722 314 706 l 281 958 q 264 967 274 967 q 244 968 254 968 l 211 964 m 239 678 l 194 960 q 128 943 164 954 q 65 911 92 932 q 45 896 53 901 q 33 885 38 890 q 28 874 29 881 q 28 858 28 868 l 28 836 q 28 764 28 801 q 29 689 28 728 q 35 608 31 650 q 49 518 40 565 q 151 278 65 428 q 336 65 239 129 q 410 17 385 33 q 439 0 436 1 q 460 -3 447 -3 q 474 -2 467 -3 q 493 0 482 -1 q 556 22 522 10 q 610 56 589 35 l 424 279 l 378 233 q 358 233 367 222 q 256 431 333 258 q 164 654 179 604 q 167 669 163 660 q 186 678 171 678 q 200 678 192 678 q 224 676 210 678 q 239 678 238 676 m 436 288 l 621 68 q 646 90 633 81 q 658 113 658 99 q 653 132 658 125 l 507 308 q 488 317 500 317 q 464 310 472 317 q 436 288 456 303 z "},"Z":{"ha":1469,"x_min":28,"x_max":1442,"o":"m 894 885 l 807 972 l 256 421 l 343 333 l 894 885 m 1442 0 l 1269 333 l 1126 333 l 1126 233 q 1084 228 1103 233 q 1050 219 1065 224 q 1022 209 1035 214 q 994 204 1008 204 q 969 209 982 204 q 936 221 956 214 q 904 231 917 229 q 864 233 892 233 q 822 228 840 233 q 788 219 803 224 q 760 209 772 214 q 735 204 747 204 q 708 209 721 204 q 675 221 696 214 q 641 231 654 229 q 604 233 628 233 q 562 231 581 235 q 528 221 543 226 q 501 210 514 215 q 474 204 488 206 q 456 206 465 201 q 431 215 446 210 q 396 226 417 221 q 343 233 375 232 l 343 333 l 200 333 l 28 0 l 343 0 l 343 54 q 386 49 368 54 q 419 40 404 44 q 448 30 435 35 q 474 25 461 25 q 493 30 482 25 q 519 40 504 35 q 554 49 533 44 q 604 54 575 54 q 647 49 628 54 q 681 40 665 44 q 709 30 696 35 q 735 25 722 25 q 759 31 744 25 q 794 43 774 36 q 828 52 815 50 q 864 54 840 54 q 906 49 888 54 q 940 40 925 44 q 969 30 956 35 q 994 25 982 25 q 1021 31 1004 25 q 1057 43 1038 38 q 1090 52 1076 50 q 1126 54 1103 54 l 1126 0 l 1442 0 m 1126 117 q 1104 117 1113 117 q 1089 115 1096 117 q 1075 113 1082 114 q 1057 107 1068 111 q 1022 94 1036 100 q 994 89 1007 89 q 968 94 983 89 q 936 103 953 99 q 901 113 919 108 q 864 118 882 118 q 826 115 839 118 q 793 106 814 113 q 760 94 772 99 q 735 89 747 89 q 708 94 721 89 q 683 104 696 99 q 652 113 664 110 q 636 117 640 115 q 604 118 631 118 q 565 115 578 118 q 533 106 551 113 q 500 94 515 100 q 474 89 485 89 q 448 94 461 89 q 415 106 435 99 q 383 115 396 113 q 343 117 371 117 l 343 169 q 419 155 389 169 q 474 140 449 140 q 495 144 485 140 q 528 157 506 149 q 564 167 551 165 q 604 169 576 169 q 646 166 626 169 q 683 157 665 163 q 708 145 696 150 q 735 140 721 140 q 761 147 746 140 q 794 160 776 154 q 826 167 814 165 q 864 169 838 169 q 885 169 876 169 q 902 167 894 168 q 919 164 910 167 q 942 157 928 161 q 969 145 956 150 q 994 140 982 140 q 1016 144 1006 140 q 1050 157 1026 149 q 1071 164 1063 161 q 1087 167 1079 167 q 1103 169 1094 168 q 1126 169 1113 169 l 1126 117 z "},"[":{"ha":1528,"x_min":28,"x_max":1500,"o":"m 692 740 q 671 790 692 769 q 621 811 650 811 q 571 790 592 811 q 550 740 550 769 q 571 690 550 710 q 621 671 592 671 q 671 692 650 671 q 692 740 692 713 m 1161 499 q 1171 529 1171 517 q 1157 553 1171 543 l 1026 651 l 1028 810 l 836 956 q 785 971 814 971 q 715 954 753 971 q 664 925 679 938 q 628 929 644 929 q 540 906 582 929 q 476 854 497 882 l 554 793 q 621 826 579 826 q 681 802 657 826 q 706 740 706 778 q 692 694 706 713 l 928 514 q 992 543 957 543 q 1053 518 1028 543 q 1078 457 1078 493 q 1071 424 1078 444 l 1103 400 l 1161 499 m 1064 457 q 1042 507 1064 486 q 992 528 1019 528 q 943 507 964 528 q 922 457 922 486 q 942 408 922 428 q 992 388 963 388 q 1042 408 1021 388 q 1064 457 1064 428 m 1500 31 l 1463 92 l 1419 81 q 1395 72 1414 79 q 1365 64 1376 64 q 1342 69 1353 64 q 1316 79 1331 74 q 1281 90 1301 85 q 1231 94 1261 94 q 1187 90 1207 94 q 1156 82 1167 86 q 1127 72 1146 79 q 1099 64 1108 64 q 1075 69 1086 64 q 1049 79 1064 74 q 1015 90 1035 85 q 964 94 994 94 q 921 90 940 94 q 890 82 901 86 q 861 72 881 79 q 831 64 842 64 q 807 69 818 64 q 781 79 796 74 q 747 90 767 85 q 696 94 726 94 l 696 136 q 737 133 721 136 q 776 122 753 129 q 803 110 790 115 q 831 106 817 106 q 860 113 842 106 q 894 125 878 121 q 927 133 913 131 q 964 136 942 136 q 1005 133 989 136 q 1044 122 1021 129 q 1072 110 1058 115 q 1099 106 1085 106 q 1120 110 1110 106 q 1158 124 1131 114 q 1197 135 1186 133 q 1231 136 1207 136 q 1272 133 1256 136 q 1311 122 1288 129 q 1338 110 1325 115 q 1365 106 1351 106 q 1388 110 1378 106 q 1419 122 1399 114 l 1439 128 l 1406 181 q 1380 172 1388 174 q 1365 171 1372 171 q 1345 172 1356 168 q 1320 182 1335 176 q 1285 193 1306 188 q 1231 200 1264 199 q 1187 195 1206 200 q 1153 185 1168 190 q 1125 176 1138 181 q 1099 171 1113 171 q 1078 172 1089 168 q 1053 182 1068 176 q 1018 193 1039 188 q 964 200 997 199 q 920 195 939 200 q 886 185 901 190 q 858 176 871 181 q 831 171 844 171 q 810 172 821 168 q 785 182 800 176 q 750 193 771 188 q 696 200 729 199 l 696 242 q 736 239 718 243 q 771 229 754 235 q 802 219 788 224 q 831 213 817 214 q 853 216 843 213 q 883 228 863 219 q 927 239 913 236 q 964 242 942 242 q 1004 239 986 243 q 1039 229 1022 235 q 1070 219 1056 224 q 1099 213 1085 214 q 1124 217 1111 213 q 1161 231 1138 222 q 1197 240 1186 239 q 1231 242 1207 242 q 1271 239 1253 243 q 1306 229 1289 235 q 1337 219 1322 224 q 1365 213 1351 214 q 1385 215 1376 213 l 1343 281 l 1311 292 q 1271 303 1286 300 q 1231 307 1256 307 q 1190 303 1208 308 q 1156 293 1172 299 q 1126 282 1140 288 q 1099 276 1111 276 q 1072 281 1085 276 q 1039 293 1058 286 q 1004 303 1019 300 q 964 307 989 307 q 918 302 936 307 q 885 292 900 297 q 858 281 871 286 q 831 276 846 276 q 803 281 817 276 q 771 293 790 286 q 736 303 751 300 q 696 307 721 307 l 696 654 l 400 654 l 28 1 l 696 1 l 696 31 q 737 28 718 32 q 772 17 756 24 q 803 6 789 11 q 831 0 818 0 q 857 6 840 0 q 890 18 874 13 q 924 27 908 24 q 964 31 940 31 q 1005 28 986 32 q 1040 17 1024 24 q 1072 6 1057 11 q 1099 0 1086 0 q 1126 6 1108 0 q 1158 18 1143 13 q 1190 27 1174 24 q 1231 31 1206 31 q 1272 28 1253 32 q 1307 17 1290 24 q 1338 6 1324 11 q 1365 0 1353 0 q 1394 6 1376 0 q 1428 18 1411 13 q 1460 27 1444 24 q 1500 31 1475 31 m 900 872 l 840 792 l 708 893 q 742 924 722 910 q 789 938 761 938 q 822 932 807 938 l 900 872 m 1001 796 l 999 674 l 864 776 l 924 856 l 1001 796 m 649 740 q 621 714 649 714 q 594 740 594 714 q 621 768 594 768 q 649 740 649 768 m 1019 457 q 992 429 1019 429 q 965 457 965 429 q 992 485 965 485 q 1019 457 1019 485 z "},"\\":{"ha":901,"x_min":28,"x_max":874,"o":"m 874 0 l 874 972 l 28 972 l 28 0 l 874 0 m 774 899 l 746 853 l 746 825 l 736 825 l 736 853 l 708 899 l 719 899 l 740 863 l 763 899 l 774 899 m 703 851 q 672 822 696 822 q 651 831 657 822 q 640 861 640 842 q 649 890 640 881 q 672 900 658 899 q 701 875 694 900 l 692 875 q 672 892 688 892 q 657 885 661 892 q 650 861 647 875 q 657 838 647 846 q 672 831 661 831 q 693 851 686 831 l 703 851 m 628 825 l 617 825 l 579 883 l 579 825 l 569 825 l 569 899 l 582 899 l 618 839 l 618 899 l 628 899 l 628 825 m 557 825 l 504 825 l 504 899 l 556 899 l 556 890 l 514 890 l 514 867 l 554 867 l 554 858 l 514 858 l 514 833 l 557 833 l 557 825 m 489 824 l 483 824 l 482 833 q 456 822 471 825 q 433 832 443 822 q 422 861 422 842 q 435 892 422 879 q 458 900 446 899 l 474 897 q 484 887 482 893 q 488 876 486 881 l 479 876 q 458 892 475 892 q 432 861 432 892 q 458 831 432 831 l 471 833 q 481 856 481 839 l 458 856 l 458 864 l 489 864 l 489 824 m 414 825 l 403 825 l 401 833 q 400 847 401 838 q 388 856 399 856 l 365 856 l 365 825 l 356 825 l 356 899 l 388 899 q 411 879 411 899 q 401 861 411 869 q 411 843 408 856 q 414 825 411 833 m 340 825 l 288 825 l 288 899 l 339 899 l 339 890 l 297 890 l 297 867 l 338 867 l 338 858 l 297 858 l 297 833 l 340 833 l 340 825 m 272 825 l 263 825 l 263 885 l 242 825 l 232 825 l 213 885 l 213 825 l 203 825 l 203 899 l 217 899 l 238 836 l 258 899 l 272 899 l 272 825 m 190 825 l 138 825 l 138 899 l 189 899 l 189 890 l 147 890 l 147 867 l 188 867 l 188 858 l 147 858 l 147 833 l 190 833 l 190 825 m 676 621 l 547 619 q 450 671 514 671 q 353 619 386 671 l 224 619 q 256 688 233 657 q 308 742 278 719 q 374 778 338 765 q 450 790 410 790 q 526 778 489 790 q 592 742 563 765 q 644 689 622 719 q 676 621 665 658 m 636 651 q 626 626 636 636 q 600 615 615 615 q 574 626 585 615 q 564 651 564 636 q 574 677 564 667 q 600 688 585 688 q 626 677 615 688 q 636 651 636 667 m 475 500 l 401 500 l 401 610 l 424 610 l 424 519 l 475 519 l 475 500 m 386 500 l 364 500 l 356 522 l 317 522 l 308 500 l 285 500 l 324 610 l 349 610 l 386 500 m 272 500 l 250 500 l 250 610 l 272 610 l 272 500 m 236 560 q 225 518 236 536 q 194 500 214 500 l 146 500 l 146 610 l 197 610 q 226 592 217 610 q 236 560 236 575 m 768 558 q 728 496 768 496 q 704 507 713 496 q 697 525 696 518 l 718 525 q 732 513 714 513 q 746 525 742 513 q 747 544 750 538 l 736 535 l 729 535 l 721 535 q 699 553 708 536 l 696 569 l 700 590 q 729 608 710 608 q 768 558 768 608 m 682 558 q 643 496 682 496 q 620 506 631 496 q 611 525 610 515 l 631 525 q 635 516 632 519 q 646 513 638 513 q 660 522 654 513 q 661 544 663 540 l 650 535 l 643 535 l 635 535 q 614 553 619 538 l 610 569 l 614 590 q 643 608 624 608 q 682 558 682 608 m 596 558 q 587 513 596 529 q 556 496 578 496 q 532 507 540 496 q 525 525 524 518 l 546 525 q 560 513 542 513 q 574 525 569 513 q 575 544 578 538 l 564 535 l 557 535 l 550 535 q 526 553 536 536 l 524 569 l 528 590 q 557 608 538 608 q 596 558 596 608 m 676 489 q 590 367 653 413 q 450 318 526 318 q 374 331 410 318 q 308 366 338 343 q 256 420 278 389 q 224 489 235 451 l 353 489 q 450 438 388 438 q 547 489 514 438 l 676 489 m 794 183 l 736 183 l 736 265 l 793 265 l 793 256 l 746 256 l 746 231 l 790 231 l 790 221 l 746 221 l 746 192 l 794 192 l 794 183 m 721 214 q 686 181 717 181 q 663 189 675 181 q 650 224 650 203 q 663 258 650 243 q 674 265 669 263 q 686 267 679 267 q 719 240 714 267 l 708 240 q 686 257 704 257 q 669 249 676 257 q 661 224 661 242 q 669 199 661 207 q 686 190 675 190 q 710 214 703 190 l 721 214 m 636 183 l 626 183 l 626 265 l 636 265 l 636 183 m 613 183 l 563 183 l 563 265 l 572 265 l 572 192 l 613 192 l 613 183 m 550 224 q 535 189 550 204 q 523 183 528 185 q 510 181 518 181 q 485 189 497 181 q 471 224 471 203 q 485 258 471 244 q 497 265 492 263 q 510 267 501 267 q 535 258 522 267 q 550 224 550 243 m 461 244 q 440 218 461 218 l 413 218 l 413 183 l 403 183 l 403 265 l 436 265 q 453 262 444 267 q 461 244 461 257 m 350 183 l 290 183 l 290 265 l 349 265 l 349 256 l 301 256 l 301 231 l 346 231 l 346 221 l 301 221 l 301 192 l 350 192 l 350 183 m 278 183 l 265 183 l 261 193 q 249 218 261 218 l 222 218 l 222 183 l 211 183 l 211 265 l 249 265 q 274 244 274 265 q 263 224 275 232 q 272 203 272 218 q 278 183 272 189 m 192 183 l 182 183 l 182 265 l 192 265 l 192 183 m 168 256 l 122 256 l 122 231 l 161 231 l 161 221 l 122 221 l 122 183 l 113 183 l 113 265 l 168 265 l 168 256 m 388 210 l 361 210 l 361 218 l 388 218 l 388 210 m 792 49 l 733 49 l 733 131 l 789 131 l 789 121 l 744 121 l 744 94 l 788 94 l 788 86 l 744 86 l 744 58 l 792 58 l 792 49 m 718 79 q 683 46 714 46 q 658 57 669 46 q 647 89 647 68 q 661 124 649 111 q 683 132 667 132 q 717 106 708 132 l 706 106 q 685 122 699 122 q 665 113 672 122 q 660 89 658 103 q 666 65 658 75 q 685 56 674 56 q 708 79 701 56 l 718 79 m 635 49 l 622 49 l 582 114 l 582 49 l 571 49 l 571 131 l 583 131 l 624 64 l 624 131 l 635 131 l 635 49 m 561 49 l 550 49 l 542 74 l 510 74 l 501 49 l 490 49 l 519 131 l 533 131 l 561 49 m 486 49 l 436 49 l 436 131 l 446 131 l 446 58 l 486 58 l 486 49 m 418 72 q 410 55 418 64 q 388 46 403 46 q 356 72 356 46 l 356 131 l 365 131 l 365 72 q 388 56 365 56 q 407 72 407 56 l 407 131 l 418 131 l 418 72 m 342 72 q 321 49 342 49 l 281 49 l 281 131 l 317 131 q 339 110 339 131 q 328 92 339 96 q 338 85 333 89 q 342 72 342 82 m 265 49 l 254 49 l 254 115 l 232 49 l 221 49 l 199 115 l 199 49 l 188 49 l 188 131 l 203 131 l 226 61 l 249 131 l 265 131 l 265 49 m 178 49 l 167 49 l 158 74 l 126 74 l 118 49 l 107 49 l 136 131 l 150 131 l 178 49 m 401 875 q 388 890 401 890 l 365 890 l 365 865 l 388 865 q 401 875 401 865 m 443 717 q 440 744 447 731 q 421 763 433 757 q 379 751 388 772 q 372 726 372 728 q 377 707 372 714 q 389 697 382 700 q 401 692 396 693 q 410 692 407 692 q 443 717 432 692 m 546 740 q 517 757 533 757 q 492 747 504 757 q 479 719 479 736 q 490 696 479 708 q 517 683 500 683 q 540 694 526 683 q 553 721 553 704 q 546 740 553 729 m 350 682 q 306 707 340 713 q 281 661 274 694 q 299 640 286 647 q 326 638 311 633 q 350 682 360 649 m 747 568 q 744 581 747 574 q 731 590 742 588 q 718 583 724 590 l 715 571 q 719 558 717 560 q 731 551 721 556 q 736 553 732 551 q 743 558 740 554 l 747 568 m 661 568 q 657 586 661 582 l 644 590 q 634 586 640 590 q 628 571 628 582 q 633 558 631 560 q 644 551 636 556 q 657 558 650 551 l 661 568 m 575 568 q 571 586 575 574 l 558 590 q 553 590 556 590 q 546 583 551 589 l 543 571 q 547 558 544 560 q 560 551 551 551 q 565 552 561 551 q 571 558 568 553 l 575 568 m 351 540 l 336 583 l 324 540 l 351 540 m 213 557 q 206 581 213 571 q 188 590 200 590 l 168 590 l 168 519 l 186 519 q 208 529 203 519 q 213 557 213 539 m 628 463 q 612 482 624 474 q 582 483 600 490 q 564 469 571 479 q 557 450 557 460 q 569 424 557 440 q 607 415 582 408 q 626 435 619 421 q 628 463 632 449 m 344 449 q 334 472 344 463 q 307 481 324 481 q 274 442 274 481 q 285 419 274 428 q 313 410 297 410 q 335 422 326 410 q 344 449 344 433 m 542 376 q 515 419 550 414 q 490 415 503 424 q 472 394 476 407 q 476 367 469 379 q 497 351 483 354 q 542 376 532 342 m 426 407 q 399 419 415 419 q 374 409 386 419 q 363 385 363 399 q 373 360 363 371 q 399 349 383 349 q 423 358 411 349 q 435 383 435 368 q 426 407 435 396 m 450 242 q 446 252 450 250 q 436 256 442 254 l 413 256 l 413 228 l 440 228 q 450 242 451 231 m 264 240 q 249 256 267 256 l 222 256 l 222 228 l 249 228 q 264 240 261 228 m 539 224 q 531 249 539 240 q 510 257 522 257 q 482 224 482 257 q 490 199 482 207 q 510 190 496 190 q 531 200 524 190 q 539 224 539 210 m 328 108 q 322 119 325 117 q 310 121 318 121 l 290 121 l 290 94 l 314 94 q 328 108 328 94 m 538 82 l 526 118 l 513 82 l 538 82 m 154 82 l 143 118 l 129 82 l 154 82 m 332 72 q 313 86 332 86 l 290 86 l 290 58 l 318 58 q 332 72 332 58 z "},"]":{"ha":1056,"x_min":28,"x_max":1028,"o":"m 1028 0 l 1028 971 l 28 971 l 28 0 l 1028 0 m 1006 244 l 51 244 l 51 949 l 1006 949 l 1006 244 m 1003 175 l 969 107 l 969 68 l 947 68 l 947 107 l 911 175 l 936 175 l 957 129 l 978 175 l 1003 175 m 792 68 l 769 68 l 726 142 l 726 68 l 704 68 l 704 175 l 725 175 l 769 100 l 769 175 l 792 175 l 792 68 m 688 68 l 607 68 l 607 175 l 685 175 l 685 157 l 629 157 l 629 132 l 681 132 l 681 113 l 629 113 l 629 86 l 688 86 l 688 68 m 474 68 l 449 68 l 446 78 l 446 99 q 433 110 446 110 l 407 110 l 407 68 l 385 68 l 385 175 l 444 175 q 469 160 465 175 q 471 136 474 144 q 456 119 469 126 q 468 104 465 114 l 468 81 q 474 68 468 75 m 367 68 l 286 68 l 286 175 l 364 175 l 364 157 l 308 157 l 308 132 l 360 132 l 360 113 l 308 113 l 308 86 l 367 86 l 367 68 m 265 68 l 244 68 l 244 156 l 225 68 l 203 68 l 183 156 l 183 68 l 161 68 l 161 175 l 193 175 l 213 92 l 233 175 l 265 175 l 265 68 m 144 68 l 64 68 l 64 175 l 142 175 l 142 157 l 86 157 l 86 132 l 138 132 l 138 113 l 86 113 l 86 86 l 144 86 l 144 68 m 901 104 q 881 70 897 75 q 856 64 865 65 q 808 101 818 64 l 807 119 l 810 142 q 826 168 815 158 q 857 178 836 178 q 866 177 860 178 q 880 173 872 176 q 894 161 888 169 q 901 139 900 153 l 881 139 q 854 158 874 158 q 832 142 838 158 l 828 122 l 832 100 q 846 85 833 92 l 854 83 l 864 83 q 881 104 874 88 l 901 104 m 585 67 l 572 67 l 568 81 q 533 64 557 64 q 503 74 517 65 q 486 119 490 83 q 494 151 486 136 q 510 169 503 167 q 538 178 526 178 q 565 170 556 175 q 579 160 575 165 q 584 149 583 154 q 585 140 585 143 l 565 140 q 539 158 560 158 q 517 151 528 158 q 507 121 507 143 q 513 96 507 108 q 536 82 519 83 q 557 88 551 79 q 565 107 563 96 l 542 107 l 542 125 l 585 125 l 585 67 m 993 604 l 724 871 l 631 776 l 726 683 l 575 683 l 575 664 l 776 664 l 660 778 l 724 842 l 961 603 l 724 365 l 660 429 l 776 543 l 575 543 l 575 524 l 725 524 l 631 429 l 724 336 l 993 604 m 549 524 l 549 683 l 393 683 l 393 842 l 232 842 l 232 683 l 72 683 l 72 524 l 232 524 l 232 365 l 393 365 l 393 524 l 549 524 m 450 144 q 436 157 450 157 l 407 157 l 407 129 l 438 129 q 450 144 454 129 z "},"^":{"ha":1757,"x_min":28,"x_max":1729,"o":"m 1729 0 l 1729 972 l 28 972 l 28 0 l 1729 0 m 1668 265 l 1417 265 l 1417 410 l 1281 329 l 1281 161 l 1214 161 l 1214 378 l 1349 463 l 1285 554 l 1285 494 l 1074 494 l 1074 561 l 1219 561 l 1219 689 q 1171 719 1190 696 q 1151 771 1151 742 q 1176 830 1151 806 q 1235 854 1200 854 q 1294 829 1269 854 q 1319 771 1319 804 l 1315 746 l 1493 746 l 1592 606 l 1540 569 l 1467 679 l 1360 679 l 1483 485 l 1483 332 l 1668 332 l 1668 265 m 494 150 l 118 150 l 118 846 l 494 846 l 494 150 m 1028 443 l 704 443 l 706 410 l 561 478 l 704 546 l 704 513 l 1028 513 l 1028 443 z "},"_":{"ha":1028,"x_min":28,"x_max":1000,"o":"m 1000 486 q 857 829 1000 688 q 514 972 715 972 q 169 829 313 972 q 28 486 28 688 q 169 142 28 285 q 514 0 313 0 q 857 142 715 0 q 1000 486 1000 285 m 739 872 l 515 488 l 292 872 l 739 872 m 960 486 l 736 101 l 514 486 l 960 486 m 515 486 l 292 101 l 68 486 l 515 486 z "},"`":{"ha":1028,"x_min":28,"x_max":1000,"o":"m 1000 486 q 857 829 1000 688 q 514 972 715 972 q 169 829 313 972 q 28 486 28 688 q 169 142 28 285 q 514 0 313 0 q 857 142 715 0 q 1000 486 1000 285 m 808 383 l 615 383 l 615 192 l 411 192 l 411 383 l 219 383 l 219 588 l 411 586 l 411 781 l 614 781 l 614 588 l 808 588 l 808 383 z "},"a":{"ha":1028,"x_min":28,"x_max":999,"o":"m 28 465 q 169 121 28 263 q 514 -19 313 -19 q 857 122 715 -19 q 999 465 999 265 q 857 810 999 668 q 514 951 715 951 q 169 808 311 951 q 28 465 28 664 m 486 421 l 750 157 q 640 99 700 119 q 514 78 581 78 q 238 190 351 78 q 125 465 125 304 q 206 701 125 600 l 421 486 l 421 446 l 461 446 l 468 439 l 421 439 l 421 369 l 486 369 l 486 421 m 511 538 q 531 544 515 542 l 569 544 l 569 528 l 588 528 l 588 503 l 682 503 l 682 529 l 696 529 l 696 550 l 718 550 l 718 525 l 733 525 q 743 522 742 525 q 744 513 744 518 q 743 503 744 508 q 744 496 742 499 l 769 496 l 769 676 l 735 676 l 735 646 l 715 646 l 715 621 l 693 621 l 693 639 l 664 639 l 664 654 l 643 654 l 643 693 l 701 693 l 701 719 l 643 719 q 629 733 638 733 q 617 729 619 733 q 614 719 615 725 l 557 719 l 557 692 l 615 692 l 615 654 l 597 654 l 597 636 l 567 636 l 567 615 l 514 615 q 492 609 507 613 q 460 589 478 606 l 276 772 q 514 853 378 853 q 789 740 676 853 q 901 465 901 628 q 880 340 901 401 q 821 228 858 278 l 511 538 m 353 363 l 357 331 q 318 319 325 340 q 313 288 313 301 q 317 251 314 269 q 339 226 321 233 q 368 206 358 219 q 383 182 378 193 l 389 136 l 499 136 l 524 363 l 353 363 m 351 314 q 361 306 354 314 l 371 250 q 360 240 365 240 q 343 254 351 240 q 335 285 335 268 q 351 314 335 314 z "},"b":{"ha":1028,"x_min":28,"x_max":1000,"o":"m 28 465 q 169 122 28 264 q 514 -19 313 -19 q 858 122 717 -19 q 1000 465 1000 265 q 858 810 1000 668 q 514 951 717 951 q 169 808 313 951 q 28 465 28 667 m 643 267 l 750 157 q 514 78 650 78 q 239 190 351 78 q 126 465 126 303 q 207 701 126 600 l 340 567 l 319 557 l 296 554 q 283 546 286 551 q 279 528 279 540 q 292 508 279 514 l 300 511 q 304 518 300 518 l 325 525 q 335 521 332 525 q 353 519 338 517 l 375 532 l 422 486 l 421 461 q 432 451 435 460 l 386 357 q 382 338 382 351 q 374 256 381 304 q 360 196 369 210 q 328 188 350 182 q 315 189 321 188 q 299 179 304 189 q 312 170 300 176 q 331 160 324 164 q 378 153 349 151 l 376 144 l 408 133 q 422 151 414 140 q 431 175 429 163 l 443 179 l 443 322 q 452 340 444 329 q 470 363 460 351 q 490 385 481 375 q 507 400 500 394 l 540 368 l 556 325 q 568 265 561 311 q 576 189 576 221 q 575 169 576 174 q 558 151 575 157 q 535 144 542 147 q 531 124 528 140 q 556 121 542 121 q 582 125 565 121 q 611 139 599 129 l 614 131 q 632 133 621 132 q 647 139 643 135 l 643 169 q 660 178 653 172 l 643 267 m 822 228 l 593 457 l 604 464 q 599 482 601 471 q 590 507 596 493 q 579 539 582 536 q 574 558 576 543 q 571 586 571 572 q 572 603 571 600 q 590 583 579 594 q 604 546 601 571 q 608 509 607 522 q 613 486 610 496 l 625 483 q 630 458 628 468 q 653 444 632 447 q 668 451 661 447 q 676 457 675 454 q 676 463 676 460 q 674 474 675 467 l 669 476 q 656 486 658 478 q 653 510 653 494 q 644 588 653 561 q 618 638 636 614 l 588 688 q 575 707 586 696 l 525 736 q 526 746 525 742 q 540 765 529 750 q 551 790 551 779 q 511 833 551 833 q 468 824 482 833 l 463 804 l 457 797 l 450 788 l 449 781 q 453 768 453 776 q 453 760 453 765 q 451 749 453 756 l 465 742 q 469 732 469 738 l 463 725 q 442 713 451 721 q 426 683 433 706 l 413 639 l 278 772 q 388 832 328 811 q 514 853 447 853 q 789 739 676 853 q 903 465 903 626 q 881 340 903 401 q 822 228 860 278 z "},"c":{"ha":1028,"x_min":28,"x_max":1000,"o":"m 28 465 q 169 122 28 264 q 514 -19 313 -19 q 857 122 715 -19 q 1000 465 1000 264 q 857 808 1000 667 q 514 951 715 951 q 169 808 313 951 q 28 465 28 667 m 418 492 l 390 454 q 397 449 389 450 q 417 447 406 447 l 436 447 q 440 444 442 447 q 439 440 439 442 q 413 421 421 429 q 410 412 408 415 q 415 408 413 408 l 479 429 l 486 421 q 479 413 482 417 q 468 401 475 411 q 460 386 461 392 q 469 376 460 376 q 490 389 482 389 q 500 383 501 389 q 497 376 500 381 q 490 365 493 371 q 487 353 488 358 q 490 344 486 347 q 504 350 494 343 q 508 361 506 356 q 525 383 511 367 l 750 157 q 640 99 700 119 q 514 78 581 78 q 239 190 351 78 q 126 465 126 303 q 206 701 126 599 l 418 492 m 599 451 l 613 464 l 610 469 l 593 457 l 572 478 l 588 496 q 589 506 592 503 q 581 506 582 507 l 557 493 l 538 513 l 547 522 l 554 529 l 557 535 q 550 535 554 538 l 533 531 l 522 528 l 503 547 l 521 564 l 544 578 l 540 586 l 493 557 l 276 772 q 388 832 328 811 q 514 853 447 853 q 789 740 676 853 q 901 465 901 628 q 880 340 901 401 q 821 228 858 278 l 599 451 m 567 551 l 576 558 l 576 761 q 575 765 575 763 q 567 769 572 769 q 557 761 563 769 l 557 558 q 559 554 557 557 q 567 551 561 551 m 501 661 l 553 572 l 553 683 l 501 661 m 301 185 l 435 185 l 435 196 l 301 196 l 301 185 m 415 244 q 405 224 411 233 q 379 204 399 214 l 390 201 q 435 218 414 201 q 457 253 456 235 q 467 283 460 272 q 479 300 474 294 q 455 294 467 297 q 440 289 443 292 q 444 306 443 296 q 444 321 446 315 l 440 346 l 438 335 l 426 321 q 424 317 425 319 q 418 313 422 314 q 411 356 418 338 l 410 374 q 407 371 408 375 q 403 360 406 367 q 399 347 401 354 q 390 336 396 340 q 387 358 389 342 q 378 392 385 375 q 369 415 371 408 q 367 429 368 421 q 356 410 363 422 q 350 392 350 397 q 349 375 349 389 q 350 360 349 363 q 334 372 344 365 q 313 379 324 379 q 322 363 317 374 q 324 321 326 351 q 310 334 319 326 q 292 342 300 342 q 299 327 296 336 q 301 293 301 318 q 283 306 293 300 q 267 308 274 311 q 273 303 269 310 q 281 285 276 297 q 288 260 285 274 q 296 233 292 246 q 365 203 317 199 q 339 217 353 207 q 318 247 325 228 l 331 242 q 326 253 326 247 q 326 276 325 258 q 338 268 332 272 q 350 254 344 264 q 344 281 344 264 q 347 307 344 293 q 353 299 350 304 q 360 289 357 294 q 363 303 361 294 q 368 314 365 313 q 375 301 372 307 q 376 283 378 294 q 385 294 381 289 q 393 301 390 300 l 392 264 q 403 276 397 269 q 413 282 410 282 q 409 269 411 279 q 396 238 407 258 l 415 244 m 817 625 l 733 761 l 581 694 l 581 528 l 615 467 l 817 625 z "},"d":{"ha":1028,"x_min":28,"x_max":1000,"o":"m 28 465 q 169 122 28 264 q 514 -19 313 -19 q 857 122 715 -19 q 1000 465 1000 264 q 857 808 1000 667 q 514 951 715 951 q 169 808 313 951 q 28 465 28 667 m 340 575 l 408 501 l 374 474 q 335 440 356 461 q 315 390 315 419 q 326 360 315 372 q 347 339 336 347 q 354 314 347 339 q 383 279 361 289 q 413 256 406 269 q 421 233 421 243 q 399 204 411 221 q 388 172 388 188 q 405 125 388 149 q 451 101 422 101 q 481 110 468 101 q 496 124 494 118 l 619 282 l 747 147 q 639 90 700 111 q 514 69 578 69 q 233 185 349 69 q 118 465 118 300 q 141 599 118 536 q 207 714 164 661 l 300 617 q 242 522 261 576 q 289 550 265 536 q 340 575 313 564 m 599 449 l 533 517 q 540 528 536 522 q 546 539 543 533 q 550 555 547 544 q 553 581 553 565 q 549 611 553 594 q 529 646 544 628 q 488 673 514 665 q 436 681 461 681 q 385 672 410 681 l 278 783 q 388 841 328 821 q 514 861 447 861 q 793 744 678 861 q 908 465 908 626 q 885 331 908 394 q 821 217 863 268 l 683 361 l 839 561 q 839 568 839 564 q 838 581 839 574 q 813 614 838 593 q 767 635 789 635 q 751 632 760 635 l 599 449 m 533 371 l 429 246 q 432 272 432 257 q 417 318 428 308 q 385 343 406 328 q 394 368 385 356 q 415 393 403 381 q 442 418 428 406 q 467 443 456 431 l 533 371 m 550 356 l 606 297 l 557 233 q 548 250 556 240 q 530 269 540 260 q 509 283 519 278 q 492 288 499 289 l 550 356 m 419 492 l 453 457 q 390 397 403 403 q 368 381 376 390 q 353 364 360 372 q 343 400 343 382 q 372 454 343 431 l 419 492 m 614 433 l 767 617 q 784 615 774 619 q 804 601 794 610 q 819 584 814 593 q 822 569 825 575 l 668 375 l 614 433 m 524 538 l 518 531 l 399 657 q 436 664 419 664 q 515 632 496 664 q 535 572 535 600 q 531 553 535 563 q 524 538 528 544 m 313 603 l 329 586 l 288 567 l 313 603 m 385 315 q 398 303 396 311 q 401 292 400 296 q 385 315 389 300 z "},"e":{"ha":1028,"x_min":28,"x_max":999,"o":"m 28 465 q 169 121 28 263 q 513 -19 313 -19 q 857 122 715 -19 q 999 465 999 265 q 857 810 999 668 q 513 951 715 951 q 169 808 311 951 q 28 465 28 664 m 281 628 l 274 619 q 267 626 269 626 q 257 574 257 608 q 263 505 257 540 q 275 457 269 469 q 280 439 281 446 q 279 429 279 432 q 265 428 275 425 q 253 435 256 432 q 269 382 253 415 q 306 340 289 350 q 326 319 324 329 q 361 293 328 311 l 403 282 q 417 263 417 278 q 411 247 418 251 q 394 238 404 242 q 377 226 385 233 q 369 201 369 219 q 380 173 369 185 q 410 161 390 161 q 442 176 431 161 q 453 207 453 190 q 468 242 454 221 q 506 265 482 260 q 546 286 529 269 l 581 325 l 750 157 q 513 78 647 78 q 238 190 351 78 q 125 465 125 304 q 206 701 125 600 l 281 628 m 468 439 l 522 385 l 489 350 q 481 338 485 347 q 472 318 476 329 q 461 295 467 307 q 449 275 456 283 q 440 289 449 276 q 435 322 435 301 q 440 353 435 338 q 451 385 444 369 q 463 415 457 401 q 468 439 468 428 m 532 375 l 546 361 l 489 301 q 488 315 488 306 q 492 335 488 324 l 532 375 m 557 350 l 571 335 l 526 288 q 507 281 515 279 q 510 294 508 288 q 515 306 511 300 l 557 350 m 640 410 l 626 424 l 785 590 q 786 567 790 574 l 640 410 m 615 435 l 601 449 l 751 600 q 762 603 757 606 q 771 597 767 601 l 615 435 m 413 638 l 376 674 q 400 728 376 704 q 379 724 396 728 q 344 706 363 721 l 276 772 q 386 832 326 811 q 513 853 446 853 q 788 739 675 853 q 901 465 901 626 q 880 340 901 401 q 821 228 858 278 l 649 400 l 797 564 l 796 614 l 753 618 l 594 456 l 439 610 l 419 668 l 413 638 m 406 310 q 369 324 383 314 q 356 339 357 335 q 342 349 354 343 q 328 360 335 354 q 314 371 321 365 q 310 393 308 381 q 328 392 313 396 q 340 399 339 389 q 335 432 344 418 q 323 472 326 447 q 317 519 319 497 q 325 547 317 536 q 339 535 328 539 q 360 524 350 531 q 385 501 376 515 q 393 443 393 486 q 405 462 401 450 q 411 482 408 474 q 431 443 428 460 q 432 419 435 426 q 428 389 428 408 q 427 381 428 388 q 424 365 426 374 q 420 350 422 357 q 417 340 418 343 q 410 327 413 336 q 406 310 408 318 z "},"f":{"ha":1028,"x_min":28,"x_max":1000,"o":"m 28 465 q 169 122 28 264 q 514 -19 313 -19 q 857 122 715 -19 q 1000 465 1000 264 q 857 808 1000 667 q 514 951 715 951 q 169 808 313 951 q 28 465 28 667 m 294 499 q 306 549 294 524 q 332 575 317 575 l 357 551 l 372 432 q 363 419 368 425 q 347 413 357 413 q 311 438 328 413 q 294 499 294 463 m 290 617 q 245 563 254 599 q 233 493 236 526 q 260 408 233 443 q 322 350 288 374 q 375 303 358 328 q 396 250 392 279 l 406 154 l 663 154 l 674 233 l 750 157 q 640 99 700 119 q 514 78 581 78 q 239 190 351 78 q 126 465 126 303 q 206 701 126 599 l 290 617 m 693 357 l 742 688 l 363 688 l 276 772 q 388 832 328 811 q 514 853 447 853 q 789 740 676 853 q 901 465 901 628 q 880 340 901 401 q 821 228 858 278 l 693 357 z "},"g":{"ha":1028,"x_min":28,"x_max":999,"o":"m 28 465 q 169 121 28 263 q 513 -19 313 -19 q 857 122 715 -19 q 999 465 999 265 q 857 810 999 668 q 513 951 715 951 q 169 808 311 951 q 28 465 28 664 m 381 525 l 376 161 q 385 140 376 153 q 413 126 393 126 q 442 138 435 126 q 450 161 450 150 l 446 461 l 581 326 l 579 156 q 590 132 583 143 q 617 121 596 121 q 644 133 638 121 q 653 156 650 144 l 651 256 l 750 157 q 513 78 647 78 q 238 190 350 78 q 125 465 125 303 q 206 701 125 600 l 381 525 m 649 401 l 653 564 q 639 751 653 674 q 628 783 635 768 q 600 797 621 797 q 567 782 575 797 q 556 751 558 767 l 557 493 l 460 589 q 486 621 485 608 q 488 639 488 633 l 468 790 l 465 794 l 461 790 l 456 689 q 450 683 454 683 q 440 689 442 683 l 431 793 l 428 790 l 421 690 q 414 682 418 682 q 410 684 413 682 q 406 690 407 686 l 400 790 l 397 794 l 393 790 l 386 689 l 378 683 q 371 689 375 683 l 365 790 l 361 794 l 358 790 l 349 701 l 276 772 q 387 832 328 811 q 513 853 446 853 q 788 739 675 853 q 901 465 901 626 q 880 340 901 401 q 821 228 858 278 l 649 401 z "},"h":{"ha":1028,"x_min":28,"x_max":1000,"o":"m 28 465 q 169 122 28 264 q 514 -19 313 -19 q 857 122 715 -19 q 1000 465 1000 264 q 857 808 1000 667 q 514 951 715 951 q 169 808 313 951 q 28 465 28 667 m 247 661 l 235 651 l 224 663 l 206 646 l 217 633 l 203 615 l 188 624 l 176 601 l 190 594 l 181 571 l 165 576 l 158 551 l 175 549 l 171 524 l 156 524 l 156 500 l 171 500 l 175 476 l 158 472 l 165 449 l 181 451 l 190 431 l 176 422 l 188 400 l 203 410 l 217 390 l 206 379 l 224 361 l 235 372 l 253 358 l 246 344 l 267 332 l 275 346 l 297 336 l 292 321 l 317 315 l 321 331 l 343 328 l 343 311 l 369 311 l 369 328 l 392 331 l 396 315 l 421 321 l 417 336 l 438 346 l 446 332 l 467 344 l 460 358 l 479 372 l 489 361 l 507 379 l 496 390 l 506 403 l 547 361 l 538 361 l 540 340 l 553 342 l 558 324 l 547 319 l 554 300 l 567 306 l 576 290 l 565 281 l 578 265 l 588 274 l 601 261 l 593 250 l 608 238 l 617 247 l 633 238 l 628 226 l 647 218 l 651 232 l 669 226 l 668 213 l 688 211 l 689 218 l 750 157 q 640 99 700 119 q 514 78 581 78 q 239 190 353 78 q 126 465 126 304 q 206 701 126 599 l 247 661 m 821 228 l 804 250 l 796 261 l 810 274 l 821 265 l 832 281 l 822 290 l 832 306 l 843 300 l 851 319 l 839 324 l 844 342 l 857 340 l 860 361 l 847 361 l 847 381 l 860 383 l 857 403 l 844 400 l 839 419 l 851 424 l 843 442 l 832 438 l 822 454 l 832 461 l 821 478 l 810 469 l 796 482 l 804 493 l 789 504 l 781 494 l 764 504 l 769 517 l 751 524 l 746 511 l 728 517 l 729 529 l 710 532 l 708 519 l 689 519 l 688 532 l 668 529 l 669 517 l 651 511 l 647 524 l 628 517 l 633 504 l 617 494 l 608 504 l 593 493 l 601 482 l 588 469 l 578 478 l 575 474 l 551 500 l 557 500 l 557 524 l 540 524 l 538 549 l 553 551 l 547 576 l 531 571 l 522 594 l 536 601 l 525 624 l 510 615 l 496 633 l 507 646 l 489 663 l 478 651 q 460 665 471 656 l 467 679 l 446 692 l 438 678 l 417 688 l 421 703 l 396 710 l 392 694 l 369 697 l 369 713 l 343 713 l 344 706 l 276 772 q 514 853 378 853 q 789 740 676 853 q 901 465 901 628 q 880 340 901 401 q 821 228 858 278 m 696 736 q 675 767 685 751 q 658 797 665 782 q 635 782 651 794 q 610 763 617 768 q 593 744 604 757 l 588 736 q 579 706 579 717 q 574 673 576 688 q 572 636 572 658 l 567 581 l 563 547 q 564 520 563 535 q 567 497 565 506 l 571 506 l 576 500 l 582 504 l 585 501 l 592 506 q 593 515 592 510 q 597 518 594 519 q 601 515 599 517 q 604 515 603 514 q 611 536 611 519 q 618 585 614 560 q 626 633 622 610 l 632 656 l 638 672 q 651 694 642 685 q 672 697 661 704 q 692 683 685 692 q 696 663 700 674 q 675 625 692 647 q 651 590 658 603 q 646 568 643 578 l 651 556 q 678 542 661 542 q 707 553 697 542 q 725 579 717 564 l 761 640 q 767 653 768 651 q 727 697 743 678 q 696 736 711 715 m 683 601 q 696 594 690 600 q 704 582 701 588 q 699 566 706 575 q 685 549 692 557 q 664 550 674 546 q 653 564 654 554 q 669 599 651 581 q 683 601 676 604 z "},"i":{"ha":1028,"x_min":28,"x_max":1000,"o":"m 28 465 q 169 122 28 264 q 514 -19 313 -19 q 857 122 715 -19 q 1000 465 1000 264 q 857 808 1000 667 q 514 951 715 951 q 169 808 313 951 q 28 465 28 667 m 347 560 l 347 257 l 483 257 l 483 219 l 443 219 l 514 181 l 586 219 l 544 219 l 544 257 l 650 257 l 750 157 q 640 97 700 118 q 514 76 581 76 q 239 190 351 76 q 126 465 126 304 q 206 701 126 599 l 347 560 m 374 533 l 417 490 l 407 431 l 406 422 l 404 414 l 413 414 l 418 414 l 422 424 l 428 431 l 438 463 l 432 414 l 440 414 l 421 304 l 428 304 q 424 301 426 303 q 421 289 421 299 l 374 289 l 374 533 m 503 404 l 538 369 l 531 304 l 538 304 q 533 301 536 303 q 531 289 531 299 l 517 289 q 511 303 515 301 l 515 306 l 503 404 m 569 338 l 588 319 l 589 304 l 596 304 q 592 301 594 303 q 589 289 589 299 l 565 289 q 558 303 564 301 l 564 304 l 569 338 m 676 372 l 676 706 l 651 706 q 649 721 653 717 q 639 728 644 725 l 639 819 l 625 825 l 625 728 q 613 717 614 724 q 613 706 613 711 l 417 706 q 411 723 417 719 q 403 728 406 726 l 403 822 q 389 818 399 822 l 389 728 q 377 717 378 724 q 376 706 376 711 l 347 701 l 276 772 q 388 832 329 811 q 514 853 447 853 q 788 739 675 853 q 901 465 901 626 q 880 340 901 401 q 821 228 858 278 l 676 372 m 651 397 l 622 426 q 628 447 624 443 l 615 528 q 603 540 613 536 l 592 546 l 589 551 q 599 576 599 560 q 576 607 599 607 q 559 598 567 607 q 551 576 551 589 q 564 549 551 561 l 560 546 l 544 540 q 532 526 533 533 l 531 518 l 486 564 l 488 576 q 464 607 488 607 q 449 600 460 607 l 376 674 l 651 674 l 651 397 m 488 304 q 482 289 482 299 l 457 289 q 450 303 456 301 l 456 304 q 460 324 458 313 q 465 351 463 336 q 472 385 472 385 l 481 304 l 488 304 m 396 721 q 408 706 406 721 l 382 706 q 383 715 382 710 q 396 721 383 721 m 632 721 q 644 706 642 721 l 618 706 q 619 715 618 710 q 632 721 619 721 z "},"j":{"ha":1039,"x_min":28,"x_max":1011,"o":"m 1011 0 l 1011 972 l 28 972 l 28 0 l 1011 0 m 904 321 l 858 321 l 858 765 q 847 778 856 778 q 836 771 843 778 l 703 643 l 711 635 l 663 588 l 654 596 l 556 501 l 742 321 l 675 321 l 522 469 l 369 321 l 393 321 l 393 169 l 306 169 l 228 246 l 490 499 l 389 596 l 382 588 l 335 635 l 342 643 l 208 771 q 197 778 201 778 q 186 765 188 778 l 186 321 l 272 322 l 197 246 l 274 169 l 110 169 l 110 321 l 140 321 l 140 782 q 158 821 140 811 q 189 831 176 831 q 233 810 213 831 l 374 675 l 383 685 l 432 638 l 422 629 l 522 532 l 622 628 l 613 638 l 661 685 l 671 675 l 810 810 q 835 828 825 825 q 856 831 846 831 q 888 822 871 831 q 904 782 904 813 l 904 321 m 935 169 l 651 169 l 651 321 l 935 321 l 935 169 m 613 126 l 432 126 l 432 354 l 613 354 l 613 126 m 486 160 l 486 321 l 467 321 l 467 160 l 486 160 m 593 192 l 593 208 l 522 208 l 522 192 l 593 192 z "},"k":{"ha":1028,"x_min":28,"x_max":1000,"o":"m 28 465 q 169 122 28 264 q 514 -19 313 -19 q 857 122 715 -19 q 1000 465 1000 264 q 857 808 1000 667 q 514 951 715 951 q 169 808 313 951 q 28 465 28 667 m 692 672 q 711 608 690 667 q 736 546 732 550 l 946 481 l 874 240 l 776 193 l 581 254 l 581 196 q 606 165 581 179 l 642 154 q 676 108 682 140 l 668 103 q 646 98 661 100 q 615 96 631 96 q 595 97 606 96 q 581 99 585 97 q 565 94 574 99 q 536 89 557 89 q 521 90 533 89 q 501 93 508 92 q 497 119 501 99 q 482 179 492 140 q 444 329 463 256 l 393 381 q 357 326 383 374 q 331 281 343 303 q 308 240 319 260 q 308 219 301 225 q 324 213 315 217 q 340 206 332 208 q 364 194 353 203 q 375 172 375 186 q 360 149 375 154 q 306 144 346 144 q 288 146 299 144 q 269 150 276 147 q 260 150 263 153 q 247 144 254 146 q 233 142 240 143 q 192 151 201 142 q 192 185 190 165 q 199 217 194 204 l 285 489 q 260 518 264 507 q 257 538 257 529 l 208 524 l 228 506 l 93 501 l 163 524 l 150 538 l 207 546 l 199 558 l 257 546 l 303 756 q 371 753 335 756 q 447 749 407 751 q 523 743 488 746 q 589 738 558 740 q 582 774 582 746 q 609 842 582 811 q 679 874 636 874 q 738 854 714 874 q 775 818 763 835 q 774 803 775 813 q 768 783 772 794 q 753 763 764 769 q 743 744 742 756 q 751 739 746 742 q 763 733 757 736 q 733 693 754 706 q 692 672 713 681 m 250 492 l 260 489 l 229 429 l 250 492 m 185 549 l 153 553 l 185 558 l 185 549 m 222 582 l 221 571 l 164 588 l 222 582 m 256 614 l 239 675 l 269 622 l 256 614 m 263 589 l 247 594 l 247 578 l 215 606 l 218 589 l 129 685 l 197 643 l 197 663 l 229 633 l 233 646 l 263 589 m 375 665 q 361 638 365 665 l 392 660 q 375 665 385 665 m 858 257 l 914 453 l 857 436 l 799 229 l 858 257 m 846 458 l 899 475 l 714 531 l 658 517 l 846 458 m 771 219 l 833 438 l 613 507 l 571 363 l 579 278 l 771 219 m 642 533 l 625 565 l 490 510 l 556 394 l 593 522 l 642 533 m 632 588 q 654 556 643 571 q 668 539 665 542 l 713 549 l 663 689 q 708 694 685 690 q 742 722 732 699 l 725 736 q 717 751 717 739 q 732 765 717 758 q 751 788 747 772 q 754 818 754 803 q 742 828 747 824 q 731 839 736 833 q 681 857 707 857 q 626 835 650 857 q 603 775 603 813 q 608 740 603 753 q 618 718 613 726 q 560 726 593 722 q 488 732 526 729 q 406 736 449 735 q 319 738 363 738 l 279 558 q 278 535 278 550 q 292 514 278 521 l 296 546 q 310 556 301 556 q 318 561 318 556 l 318 579 q 318 592 315 589 q 339 640 325 606 q 358 681 351 674 q 379 685 364 689 q 421 676 399 681 q 469 665 443 671 q 533 657 522 654 q 506 650 522 650 q 474 651 493 650 q 426 656 454 653 l 346 594 q 335 569 335 583 l 335 543 q 325 533 331 533 q 315 526 315 532 l 315 510 q 347 465 324 496 q 464 343 368 439 l 522 110 q 540 108 531 108 q 556 108 550 107 l 561 117 q 574 113 567 114 q 606 113 581 113 l 651 115 q 657 122 657 119 q 639 139 657 133 l 586 158 q 567 168 576 163 q 561 186 561 174 l 551 335 q 540 374 544 368 l 457 517 l 632 588 m 301 201 q 276 219 276 207 l 281 232 l 371 400 l 308 471 q 256 338 282 411 q 214 172 231 264 q 219 167 215 169 q 238 164 222 164 q 253 172 246 164 q 263 172 260 175 q 297 164 272 164 l 344 167 l 350 175 q 342 186 350 178 l 301 201 z "},"l":{"ha":1028,"x_min":28,"x_max":1000,"o":"m 28 465 q 169 121 28 263 q 514 -19 313 -19 q 857 122 715 -19 q 1000 465 1000 264 q 857 808 1000 667 q 514 951 715 951 q 169 808 311 951 q 28 465 28 664 m 736 532 q 738 545 738 538 q 742 563 739 553 l 742 588 q 740 619 742 600 q 733 651 738 639 q 729 665 732 658 q 724 682 726 672 q 700 711 717 701 q 681 731 683 721 q 615 767 657 754 q 526 779 572 779 q 435 767 485 779 q 349 731 385 754 q 302 683 313 708 q 292 625 292 657 q 297 578 292 593 l 307 533 l 290 533 l 274 603 q 274 610 274 604 q 272 626 274 615 q 286 693 272 667 q 338 743 300 719 q 421 780 376 768 q 524 797 465 792 q 625 776 572 797 q 685 747 679 754 q 718 714 700 729 q 736 688 726 708 q 747 663 746 668 q 753 636 750 651 q 757 588 757 621 q 753 540 757 550 q 736 532 749 531 m 669 644 q 607 607 642 617 q 533 597 572 597 l 468 597 l 485 607 q 416 603 443 607 q 372 595 389 600 q 344 585 354 590 q 331 578 335 581 l 329 535 q 314 536 319 532 l 314 590 q 358 607 326 599 q 409 620 392 617 q 440 626 426 624 l 464 626 q 503 626 486 626 q 532 624 519 625 l 524 611 q 614 633 567 611 q 688 685 661 654 q 683 636 683 661 q 694 583 683 599 l 713 540 q 704 529 713 535 q 699 531 703 529 q 694 536 696 532 l 688 553 q 672 589 675 574 q 668 626 668 604 q 668 633 668 629 q 669 644 668 639 m 738 481 q 733 476 736 479 q 726 471 729 472 q 718 465 724 471 l 711 421 q 663 369 706 378 l 606 367 q 566 376 576 367 q 550 396 556 386 l 528 443 q 519 450 524 446 q 511 454 515 454 q 504 453 508 454 q 492 435 500 453 q 464 384 482 404 q 408 371 446 364 q 388 372 403 371 q 356 374 374 372 q 332 387 339 376 q 321 408 325 397 l 308 465 q 299 476 306 474 q 290 483 293 479 l 290 517 l 478 517 q 492 507 479 517 q 514 497 504 497 q 537 504 529 497 q 547 515 544 511 l 738 515 l 738 481 m 764 464 q 760 483 763 474 q 747 494 757 492 l 747 515 q 772 506 760 513 q 783 479 783 500 l 783 478 l 783 464 q 782 432 783 447 q 774 400 781 417 q 766 382 771 393 q 754 357 761 371 q 734 323 740 329 q 714 313 728 317 q 693 233 711 301 q 629 128 674 164 q 571 90 585 92 l 546 86 l 471 86 q 444 92 460 88 q 404 121 429 96 q 356 183 381 147 q 322 254 331 218 l 310 318 q 300 319 307 318 q 279 342 293 319 q 255 397 267 364 q 243 463 243 431 q 244 476 243 468 q 246 494 244 483 q 281 517 250 517 l 281 496 q 269 491 275 494 q 264 476 264 488 q 269 428 264 453 q 282 384 275 404 q 298 351 289 364 q 315 342 307 339 q 324 332 321 340 l 336 267 q 341 247 338 258 q 354 215 344 236 q 367 192 360 206 q 386 164 375 179 q 429 119 410 133 q 472 104 449 104 l 547 101 q 597 124 579 101 q 658 199 644 171 q 692 286 675 228 l 701 329 q 713 336 704 336 q 726 346 717 336 q 743 372 735 356 q 758 412 751 389 q 764 464 764 435 z "},"m":{"ha":1028,"x_min":28,"x_max":1000,"o":"m 28 465 q 169 122 28 264 q 514 -19 313 -19 q 857 122 715 -19 q 1000 465 1000 264 q 857 808 1000 667 q 514 951 715 951 q 169 808 313 951 q 28 465 28 667 m 238 213 l 233 293 q 224 318 225 308 q 222 342 222 328 q 224 366 222 351 q 230 396 226 381 q 236 425 233 411 q 242 447 239 439 q 246 471 246 464 q 246 483 246 478 l 235 699 l 475 699 l 468 482 q 494 429 468 443 l 569 368 q 585 351 578 358 q 601 340 592 344 q 625 332 611 335 q 660 326 639 329 q 710 300 704 319 q 716 283 714 290 q 719 272 718 276 l 719 242 q 725 236 724 242 l 725 208 l 524 208 q 503 212 514 208 q 486 218 493 215 l 399 265 l 399 213 l 238 213 m 743 267 l 771 263 q 778 280 775 269 q 782 301 782 290 q 775 322 782 315 q 760 335 768 329 q 724 350 742 343 q 699 363 707 357 q 687 370 690 365 q 681 379 683 375 l 592 500 q 581 535 581 514 q 583 554 581 543 q 588 572 585 565 l 638 750 l 453 794 l 435 717 l 414 717 l 433 822 l 664 765 l 610 565 q 603 536 603 538 q 619 504 603 529 l 685 413 q 706 385 694 392 q 728 374 718 378 l 767 356 q 803 300 803 339 q 796 261 803 285 q 803 251 799 261 l 796 231 l 738 246 l 743 267 m 678 278 q 696 264 688 264 q 708 275 700 264 q 690 303 701 289 q 650 317 678 317 q 637 313 639 317 q 633 304 635 308 q 653 293 642 296 q 678 278 665 290 m 508 242 q 525 235 514 239 q 544 232 536 232 l 699 232 l 699 246 l 543 246 q 527 248 536 247 q 513 251 518 249 l 440 286 q 425 292 433 289 q 408 294 417 294 l 254 294 l 254 285 l 408 285 q 419 283 414 283 q 435 276 425 282 l 508 242 z "},"n":{"ha":1028,"x_min":28,"x_max":1000,"o":"m 28 465 q 169 121 28 263 q 514 -19 313 -19 q 857 122 715 -19 q 1000 465 1000 264 q 857 808 1000 667 q 514 951 715 951 q 169 808 311 951 q 28 465 28 664 m 424 46 q 401 56 410 40 l 251 483 l 249 506 q 278 542 249 542 q 292 535 288 542 q 300 522 296 529 l 346 411 q 350 406 347 408 q 356 406 353 403 q 356 417 357 407 l 308 544 q 303 574 303 557 q 310 594 303 585 q 331 603 318 603 q 346 597 342 603 q 353 583 350 590 l 399 460 q 406 454 403 456 q 404 464 404 461 q 404 469 404 468 l 361 596 l 358 614 q 367 635 358 626 q 388 643 376 643 q 406 634 399 643 q 417 617 413 625 l 465 490 q 472 486 468 483 q 475 499 475 486 q 459 539 468 514 q 442 593 450 564 q 442 606 439 594 q 464 622 442 622 q 484 616 478 622 q 493 603 490 610 l 679 160 q 682 147 679 161 q 642 126 682 138 q 538 93 601 115 q 477 69 506 82 q 424 46 449 57 m 651 281 q 688 292 656 285 q 728 299 719 299 l 699 443 l 685 613 l 685 781 q 680 803 683 792 q 660 814 676 814 q 640 804 643 814 q 636 783 636 794 l 636 722 q 633 713 635 718 q 622 707 631 707 q 611 713 614 707 q 607 724 608 718 l 607 839 q 586 861 599 861 q 569 855 574 861 q 563 839 564 849 l 563 726 q 559 714 561 719 q 549 708 557 708 q 538 715 540 708 q 535 726 536 721 l 535 808 q 530 831 533 821 q 511 840 526 840 q 494 832 499 840 q 488 808 489 824 l 488 669 q 474 654 485 654 q 463 671 467 654 l 463 781 q 459 796 461 789 q 446 803 457 803 q 428 794 433 803 q 422 771 424 786 l 422 646 q 412 653 419 650 q 400 657 404 656 l 399 765 q 418 818 399 811 q 446 826 435 824 q 459 823 454 826 q 468 817 464 819 q 479 850 471 835 q 519 865 488 865 q 538 860 532 865 q 549 851 544 856 q 560 874 553 863 q 589 885 567 885 q 620 870 607 885 q 633 839 633 856 q 644 844 638 842 q 663 847 650 847 q 707 817 701 847 q 713 772 713 789 l 717 606 q 722 519 717 563 q 732 447 726 476 l 761 299 q 758 278 763 283 q 750 272 754 274 l 664 253 l 651 281 m 601 386 q 609 424 604 401 q 619 476 614 446 q 631 553 631 540 q 622 585 631 569 q 594 600 613 600 q 572 592 578 600 q 563 575 565 583 l 543 518 l 529 543 l 546 589 q 564 611 553 600 q 594 622 575 622 q 637 602 621 622 q 653 556 653 582 l 650 532 l 621 357 l 601 386 z "},"o":{"ha":1028,"x_min":28,"x_max":1000,"o":"m 28 465 q 169 122 28 264 q 514 -19 313 -19 q 857 122 715 -19 q 1000 465 1000 264 q 857 808 1000 667 q 514 951 715 951 q 169 808 313 951 q 28 465 28 667 m 750 489 l 736 483 q 726 479 729 476 q 725 494 722 481 q 737 508 729 507 q 753 508 744 508 q 775 503 765 507 q 785 479 785 499 q 785 447 785 468 q 776 406 785 428 q 767 382 772 394 q 756 358 761 369 q 745 337 750 346 q 739 326 740 328 l 715 311 q 711 293 714 307 q 703 256 708 279 q 631 128 676 164 q 572 90 586 92 l 547 86 l 472 86 q 444 92 460 88 q 404 122 429 96 q 356 183 379 149 q 322 254 332 217 l 310 318 q 301 319 307 318 q 281 342 294 319 q 256 397 268 364 q 244 463 244 431 q 245 476 244 468 q 247 494 246 483 q 276 517 251 517 q 293 515 286 517 q 301 506 300 514 q 297 486 303 488 q 281 496 294 486 q 264 479 265 493 q 274 414 264 451 q 317 340 292 340 q 324 332 319 338 l 336 267 q 342 247 338 260 q 356 215 347 235 q 369 192 361 206 q 388 164 376 179 q 428 119 411 133 q 474 104 446 104 l 549 104 q 577 109 564 104 q 617 142 590 114 q 641 169 631 156 q 660 199 651 182 q 677 236 669 215 q 693 286 685 257 l 701 328 q 703 332 701 329 q 713 336 704 335 q 726 345 717 336 q 744 371 735 354 q 759 411 753 388 q 765 464 765 435 q 750 489 765 486 m 621 506 q 568 495 599 499 q 514 492 538 492 q 457 496 490 492 q 400 506 424 500 q 372 513 389 510 q 337 519 356 517 q 300 524 318 522 q 269 525 282 525 q 229 542 231 525 q 242 560 228 550 q 263 578 257 569 q 268 619 268 586 q 328 790 268 732 q 514 849 388 849 q 700 791 640 849 q 760 621 760 733 q 766 583 760 594 q 778 565 772 571 q 794 553 785 560 q 801 540 803 546 q 760 522 796 522 q 688 518 726 522 q 621 506 650 514 z "},"p":{"ha":1028,"x_min":28,"x_max":1000,"o":"m 28 465 q 171 121 28 263 q 514 -19 315 -19 q 858 121 715 -19 q 1000 465 1000 263 q 857 808 1000 667 q 514 951 715 951 q 169 808 313 951 q 28 465 28 667 m 697 569 q 689 583 694 574 q 678 607 683 593 q 669 637 672 621 q 667 668 665 653 q 608 633 643 644 q 538 618 572 621 q 528 619 535 618 q 511 619 521 619 q 493 620 501 619 q 481 621 485 621 l 493 631 q 390 619 422 631 q 338 597 357 608 l 335 543 l 319 608 q 339 617 326 613 q 365 626 351 622 q 393 634 379 631 q 418 640 407 638 q 457 646 440 646 q 492 646 474 646 l 536 646 l 529 631 q 620 656 585 638 q 685 708 656 675 q 681 672 681 688 q 682 646 681 653 q 686 626 683 639 q 696 602 690 614 q 707 586 701 590 l 697 569 m 332 236 l 354 236 q 388 188 361 221 q 433 143 414 158 q 479 128 453 128 l 553 128 q 582 133 567 128 q 615 156 597 138 q 652 197 633 174 q 685 242 671 219 l 703 240 q 663 181 689 213 q 614 131 636 149 q 579 112 592 114 q 554 108 567 110 l 478 108 q 453 113 465 110 q 417 136 440 115 q 370 180 393 157 q 332 236 347 203 m 686 251 q 688 350 686 306 q 693 431 690 394 q 712 553 700 501 q 735 614 724 606 l 740 681 q 674 764 740 728 q 517 800 608 800 q 402 784 446 800 q 334 747 358 768 q 301 703 310 725 q 293 669 293 682 q 294 640 293 661 q 297 606 294 618 q 314 581 306 606 q 325 537 319 569 q 338 451 331 504 q 349 348 344 399 q 353 249 353 297 q 276 253 310 249 q 221 275 242 257 q 189 341 201 293 q 176 449 176 389 q 183 522 176 489 q 197 563 190 554 q 213 573 203 569 q 231 580 222 576 q 247 588 240 583 q 251 601 253 593 l 231 679 q 229 692 229 683 q 247 729 229 701 q 321 806 267 760 q 517 854 378 854 q 739 786 658 854 q 776 740 763 757 q 794 713 789 722 q 799 697 799 703 q 799 685 800 690 l 779 597 q 801 588 788 593 q 827 569 815 583 q 847 525 839 554 q 851 444 854 496 q 837 331 851 381 q 799 268 822 281 q 745 254 775 256 q 686 251 715 253 z "},"q":{"ha":1028,"x_min":28,"x_max":1000,"o":"m 28 465 q 169 122 28 264 q 514 -19 313 -19 q 858 122 717 -19 q 1000 465 1000 265 q 858 810 1000 668 q 514 951 717 951 q 169 808 313 951 q 28 465 28 667 m 508 54 q 401 75 453 54 q 350 115 350 97 q 394 160 350 143 q 508 178 438 178 q 613 160 558 178 q 669 115 669 140 q 624 72 669 89 q 508 54 579 54 m 669 139 q 613 171 647 156 q 514 186 579 186 q 444 182 472 186 q 398 170 417 178 q 368 154 379 163 q 349 138 357 146 l 349 232 q 399 265 367 250 q 508 281 432 281 q 572 276 546 281 q 617 265 599 272 q 649 249 636 257 q 669 232 661 240 l 669 139 m 351 249 q 321 312 325 281 q 317 371 317 343 l 317 611 q 367 624 331 617 q 513 631 406 631 q 623 624 571 631 q 717 608 675 618 l 717 364 q 712 326 717 346 q 701 290 707 307 q 686 260 694 274 q 672 242 678 247 q 615 274 650 258 q 508 289 581 289 q 404 276 438 289 q 351 249 371 263 m 704 621 q 678 633 683 624 q 672 676 672 642 l 672 696 q 608 657 647 668 q 522 646 568 646 q 472 650 490 646 l 486 660 q 387 649 428 660 q 318 628 346 639 l 318 643 q 360 660 333 653 q 413 674 388 667 q 453 679 444 679 q 478 679 463 679 q 514 678 501 679 q 536 674 526 676 q 534 669 535 672 q 529 664 533 667 q 628 689 575 664 q 689 738 678 713 q 696 713 696 717 q 692 692 696 704 q 692 656 688 676 q 704 621 697 636 m 736 375 q 724 375 726 365 q 733 403 722 386 q 757 451 744 418 q 769 513 769 485 q 765 533 769 524 q 750 543 760 543 q 735 538 740 543 q 725 526 729 532 l 725 585 q 738 619 732 597 q 743 657 743 640 q 733 713 743 685 q 715 750 722 740 q 702 763 708 761 q 689 776 696 765 l 679 789 q 617 820 658 807 q 536 833 576 833 q 447 821 490 831 q 369 794 403 811 q 316 751 336 776 q 296 690 296 725 q 300 631 296 654 q 311 596 304 608 l 311 538 q 301 547 307 543 q 288 551 296 551 q 265 518 265 551 q 276 460 265 493 q 290 428 283 444 q 304 397 297 413 q 301 375 311 385 q 297 376 300 375 q 282 388 293 376 q 258 444 274 397 q 246 519 246 490 q 256 561 246 549 q 279 574 265 574 q 301 565 293 574 q 295 583 299 571 q 286 617 292 596 q 278 689 278 660 q 296 753 278 731 q 339 796 314 776 q 435 837 382 822 q 533 851 489 851 q 583 847 558 851 q 630 834 608 842 q 668 817 651 826 q 693 797 685 807 q 712 778 701 788 q 736 757 722 768 q 763 663 763 736 q 760 642 763 654 q 756 619 758 631 q 750 597 753 607 q 744 582 747 586 q 739 569 740 575 q 736 558 738 563 q 758 565 740 565 q 778 556 768 565 q 789 518 789 547 q 774 441 789 482 q 736 375 758 400 m 563 119 q 567 115 564 118 q 578 113 571 113 q 593 119 582 113 q 588 124 592 121 q 578 128 585 128 q 563 119 572 128 m 615 107 q 620 103 617 106 q 631 100 624 100 q 647 107 640 100 q 642 111 646 108 q 631 114 638 114 q 615 107 626 114 m 560 99 q 563 94 560 97 q 575 92 567 92 q 589 99 578 92 q 584 103 588 100 q 575 106 581 106 q 560 99 571 106 m 574 76 q 589 68 576 68 q 604 76 593 68 q 599 81 603 78 q 589 83 596 83 q 574 76 585 83 m 496 111 q 511 103 496 103 q 526 111 526 103 q 522 115 525 113 q 511 118 518 118 q 496 111 507 118 m 519 86 q 535 78 522 78 q 550 86 539 78 q 545 90 549 88 q 535 93 542 93 q 519 86 531 93 m 494 65 q 510 57 497 57 q 525 65 514 57 q 520 70 524 67 q 510 74 517 74 q 494 65 504 74 m 467 86 q 472 82 468 85 q 482 79 476 79 q 499 86 492 79 q 494 91 497 88 q 482 94 490 94 q 467 86 475 94 m 431 103 q 434 99 431 101 q 446 96 438 96 q 460 103 449 96 q 455 107 458 104 q 446 110 451 110 q 431 103 442 110 m 431 124 q 446 115 433 115 q 461 124 450 115 q 456 128 460 125 q 446 132 453 132 q 431 124 440 132 m 408 150 q 424 142 411 142 q 434 144 431 142 q 440 150 438 147 q 435 155 439 151 q 424 158 432 158 q 408 150 418 158 m 374 115 q 389 107 374 107 q 404 115 404 107 q 399 119 403 117 q 389 122 396 122 q 374 115 385 122 m 410 81 q 415 76 411 79 q 425 74 418 74 q 440 81 429 74 q 435 85 439 82 q 425 89 432 89 q 410 81 419 89 m 468 139 q 473 135 469 138 q 483 132 476 132 q 499 139 488 132 q 494 144 497 140 q 483 147 490 147 q 468 139 478 147 m 497 163 q 513 154 500 154 q 528 163 517 154 q 513 171 528 171 q 497 163 497 171 m 347 501 q 368 457 347 475 q 418 439 389 439 q 468 457 447 439 q 489 501 489 475 q 468 547 489 529 q 418 565 447 565 q 367 547 388 565 q 347 501 347 528 m 546 497 q 567 451 546 469 q 617 433 588 433 q 668 453 647 433 q 689 497 689 472 q 668 542 689 524 q 617 560 647 560 q 567 542 588 560 q 546 497 546 524 m 589 143 q 604 135 589 135 q 619 143 608 135 q 615 148 618 144 q 604 151 611 151 q 589 143 599 151 m 526 136 q 531 132 528 135 q 542 129 535 129 q 557 136 546 129 q 542 144 557 144 q 526 136 526 144 z "},"r":{"ha":1028,"x_min":28,"x_max":999,"o":"m 28 465 q 169 121 28 263 q 514 -19 313 -19 q 857 122 715 -19 q 999 465 999 265 q 857 810 999 668 q 514 951 715 951 q 169 808 311 951 q 28 465 28 664 m 468 854 l 464 901 l 504 901 l 504 467 l 367 79 l 283 79 l 424 611 l 381 733 l 257 468 l 204 494 l 364 854 l 468 854 m 561 901 l 557 854 l 661 854 l 821 494 l 769 468 l 646 733 l 601 611 l 743 79 l 658 79 l 522 467 l 522 901 l 561 901 m 540 688 l 617 688 l 617 757 l 540 757 l 540 688 m 551 744 l 607 744 l 607 699 l 551 699 l 551 744 z "},"s":{"ha":1028,"x_min":28,"x_max":1000,"o":"m 28 465 q 169 122 28 264 q 514 -19 313 -19 q 857 122 715 -19 q 1000 465 1000 264 q 857 808 1000 667 q 514 951 715 951 q 169 808 313 951 q 28 465 28 667 m 546 911 l 564 911 l 564 807 q 572 790 572 800 q 565 768 572 778 q 569 738 565 764 q 578 703 576 710 l 588 692 q 613 654 592 688 q 646 605 635 621 q 663 569 657 589 l 669 531 q 677 485 674 506 q 685 456 681 465 q 701 443 686 439 l 706 440 q 708 433 706 442 l 708 425 q 704 413 708 417 l 694 408 q 687 403 693 407 q 675 400 681 399 q 655 415 664 406 q 649 444 646 425 q 642 447 646 446 q 633 451 639 449 q 631 478 632 464 q 628 501 629 493 l 622 528 l 617 543 q 597 569 607 557 q 578 596 588 582 q 576 578 576 589 q 576 553 576 568 l 583 519 l 572 515 l 564 538 l 558 543 q 551 564 556 551 q 539 594 546 576 q 531 647 531 621 q 540 717 531 689 l 526 725 q 514 674 514 704 l 514 660 q 521 601 514 626 q 543 532 528 575 q 546 514 536 526 l 531 510 l 507 508 l 503 506 l 472 506 q 469 516 471 510 q 463 525 467 522 q 440 638 440 582 q 449 703 440 671 l 451 710 l 454 714 q 454 726 457 722 q 447 733 451 731 q 438 735 442 735 q 432 740 433 736 l 433 747 l 431 757 l 431 768 l 425 774 l 426 781 q 431 788 428 783 q 436 799 433 793 q 443 821 436 810 q 458 835 443 826 q 490 843 472 843 q 529 825 519 843 q 539 793 539 807 q 521 749 539 771 q 526 725 515 740 l 540 778 q 543 801 543 789 l 546 807 l 546 911 m 411 683 l 426 694 l 436 701 q 431 685 435 697 q 426 651 426 672 q 428 608 426 625 q 435 571 429 592 l 447 528 l 449 518 l 453 510 l 449 515 q 439 538 442 531 q 435 549 436 546 q 431 565 433 551 q 424 603 429 578 l 414 594 q 378 579 401 586 q 332 565 356 572 l 268 553 q 255 553 260 550 q 244 560 250 556 q 231 569 239 565 q 207 571 222 572 l 200 567 l 189 574 l 186 579 q 208 615 182 606 q 225 613 210 617 l 244 608 q 271 610 260 606 l 339 628 q 359 636 353 632 q 381 653 365 640 l 411 683 m 497 357 q 461 341 475 347 q 432 328 447 335 q 414 324 422 325 q 396 321 406 322 l 390 318 l 397 304 l 433 224 q 438 210 435 217 q 443 193 440 203 l 436 188 q 439 149 439 174 l 433 143 q 414 135 419 138 q 403 133 408 133 l 399 140 l 371 124 l 360 119 q 322 117 325 115 q 318 128 318 121 q 325 139 318 133 q 340 150 332 144 q 354 162 347 156 q 361 175 361 168 l 358 182 q 350 224 354 203 q 340 258 346 244 q 327 294 336 274 q 315 329 318 315 q 324 358 313 344 q 356 385 336 372 q 399 413 375 399 q 447 440 424 426 q 482 408 469 431 q 497 357 494 385 m 551 278 q 535 328 540 311 q 533 353 531 346 q 592 411 551 390 q 610 389 601 404 q 621 351 618 374 l 626 299 q 627 270 626 288 q 631 243 628 253 q 635 210 632 232 q 644 156 639 189 q 657 76 657 89 l 647 72 q 652 57 650 67 q 650 39 654 47 q 635 35 644 38 q 615 35 625 33 l 614 40 l 601 31 l 590 26 q 563 25 583 25 q 529 36 526 25 q 531 51 526 47 q 544 56 536 54 q 562 61 553 58 q 578 75 571 64 l 575 78 q 571 133 575 100 q 564 185 567 167 l 557 221 q 551 278 557 254 m 565 468 q 571 458 568 465 q 576 444 574 451 l 578 435 l 583 426 l 547 400 l 518 364 q 510 367 510 365 q 460 454 510 426 q 465 479 464 458 q 486 478 469 478 l 510 478 q 518 476 511 476 q 536 476 526 476 l 540 479 l 558 482 l 561 475 l 565 468 m 579 490 l 592 496 q 610 456 601 478 q 615 411 618 433 l 608 418 l 611 424 l 607 431 q 589 455 593 449 q 585 471 585 461 l 579 490 m 556 715 l 549 749 l 543 718 l 556 715 z "},"t":{"ha":1028,"x_min":28,"x_max":1000,"o":"m 28 465 q 169 122 28 264 q 514 -19 313 -19 q 857 122 715 -19 q 1000 465 1000 264 q 857 808 1000 667 q 514 951 715 951 q 169 808 313 951 q 28 465 28 667 m 896 664 l 896 267 l 890 264 q 882 274 888 264 l 885 279 l 888 292 q 886 297 886 294 q 885 304 886 301 q 842 350 882 311 q 682 408 800 390 q 460 433 563 428 l 371 432 l 371 417 l 321 417 l 321 428 q 289 420 299 428 q 268 397 279 413 q 236 369 258 382 q 188 357 214 357 q 111 389 143 357 q 79 465 79 421 q 111 542 79 510 q 188 574 143 574 q 235 560 213 574 q 268 532 258 547 q 288 510 279 517 q 321 503 297 503 l 321 514 l 371 514 l 371 499 l 460 497 q 682 522 563 503 q 842 581 800 540 q 885 625 883 619 q 886 632 886 628 q 888 639 886 636 l 885 651 l 882 657 q 885 663 882 658 q 890 667 888 667 l 896 664 z "},"u":{"ha":1028,"x_min":28,"x_max":999,"o":"m 28 465 q 169 121 28 263 q 513 -19 313 -19 q 857 122 715 -19 q 999 465 999 265 q 857 810 999 668 q 513 951 715 951 q 169 808 311 951 q 28 465 28 664 m 488 535 q 481 514 481 524 q 485 497 481 507 l 446 521 q 408 542 428 532 q 376 551 388 551 q 360 547 365 551 q 344 526 354 543 q 349 501 340 514 l 356 494 l 374 488 l 422 475 l 517 453 q 547 438 535 449 q 557 408 560 426 l 519 413 q 497 404 506 414 l 436 414 q 317 443 357 429 q 269 468 276 457 q 258 489 267 472 q 231 528 249 506 q 187 576 214 551 q 118 621 160 600 l 176 713 l 194 701 l 221 685 l 256 671 l 283 665 q 300 664 289 665 q 321 663 311 663 l 344 663 l 363 656 l 410 628 q 435 610 419 621 q 474 582 451 599 q 510 556 497 567 q 528 542 524 546 q 511 544 519 544 q 488 535 493 544 m 374 424 l 346 414 q 317 424 331 410 q 299 444 303 438 q 335 432 310 439 q 374 424 360 425 m 513 540 q 534 531 529 540 q 539 515 539 521 q 513 489 539 489 q 492 498 501 489 q 483 514 483 507 q 493 535 483 531 q 513 540 503 539 m 475 497 q 467 485 474 492 q 453 475 460 479 l 446 474 l 401 485 q 416 502 404 493 q 442 511 428 511 q 460 507 451 511 q 475 497 468 503 m 558 403 l 557 397 l 504 404 l 508 407 q 533 407 518 408 q 558 403 549 406 m 607 424 l 575 442 q 571 446 574 443 q 568 456 568 449 q 585 468 568 468 l 594 465 l 607 457 l 607 424 m 628 353 q 614 361 619 353 l 614 521 q 628 528 614 526 l 628 765 l 799 765 l 799 154 l 628 154 l 628 353 z "},"v":{"ha":1028,"x_min":28,"x_max":1000,"o":"m 28 465 q 169 121 28 263 q 514 -19 313 -19 q 857 122 715 -19 q 1000 465 1000 264 q 857 808 1000 667 q 514 951 715 951 q 169 808 311 951 q 28 465 28 664 m 193 232 q 201 238 196 233 q 206 251 206 243 q 197 286 206 264 q 189 319 189 308 q 190 336 186 331 q 200 327 193 333 q 215 319 207 321 q 226 323 222 324 q 240 340 231 322 q 243 362 242 351 q 247 383 244 372 l 269 400 l 286 396 q 303 404 299 399 q 310 421 307 410 l 322 440 l 351 461 q 359 456 354 458 q 371 447 364 453 q 390 457 383 446 q 424 492 413 482 q 453 510 436 503 q 451 497 451 503 q 450 489 450 492 q 456 472 450 479 q 471 465 461 465 q 501 476 479 465 q 534 494 522 489 q 563 499 546 499 q 549 461 546 475 q 579 447 556 440 q 606 453 593 450 q 633 457 619 457 q 657 453 644 457 l 640 436 q 635 425 636 432 q 650 399 631 406 l 707 389 q 735 378 724 388 q 700 349 700 365 q 711 329 700 336 l 756 301 q 771 290 765 296 q 779 279 776 285 q 735 257 735 279 q 744 232 735 246 l 193 232 m 964 360 q 949 304 958 335 q 917 232 940 274 l 783 232 l 783 360 l 964 360 m 131 208 l 124 224 l 910 224 l 903 208 l 131 208 m 676 711 l 154 319 q 105 410 121 364 q 89 515 89 457 q 183 746 89 651 q 415 842 279 842 q 563 806 494 842 q 676 711 632 771 m 676 517 q 657 568 669 538 q 611 644 644 599 l 685 700 q 723 649 699 685 q 765 550 747 613 l 803 565 l 740 481 l 638 501 l 676 517 z "},"w":{"ha":1028,"x_min":28,"x_max":1000,"o":"m 28 465 q 169 122 28 264 q 514 -19 313 -19 q 857 122 715 -19 q 1000 465 1000 264 q 857 808 1000 667 q 514 951 715 951 q 169 808 313 951 q 28 465 28 667 m 469 186 q 419 214 444 203 q 382 222 393 225 q 360 206 368 218 q 353 181 353 193 q 369 153 353 161 l 433 129 q 504 108 460 118 q 540 99 526 103 q 560 93 553 96 q 579 51 579 78 q 549 58 564 54 q 521 60 535 61 l 515 50 q 347 90 411 72 q 258 135 282 108 l 246 153 q 230 186 239 167 q 205 226 221 206 q 164 270 189 247 q 100 317 139 293 l 163 414 q 253 360 219 371 q 307 350 286 350 l 343 350 q 360 346 353 350 q 388 331 367 343 q 429 303 408 318 q 493 256 461 279 q 544 208 525 232 q 526 208 533 211 q 505 190 513 201 q 501 165 497 179 l 469 186 m 561 160 q 610 178 589 169 q 635 210 632 188 q 623 238 635 231 q 597 246 611 246 q 562 241 571 246 q 538 224 553 236 l 481 272 q 510 296 497 288 q 550 319 522 304 q 581 338 569 333 q 596 344 586 340 q 615 353 606 349 q 633 360 625 357 q 643 364 640 364 l 681 364 l 697 364 q 743 370 708 364 q 833 417 778 376 q 860 362 847 388 q 889 301 874 336 q 821 261 851 288 l 783 225 q 768 206 776 217 q 749 181 760 194 q 718 141 728 153 q 689 121 708 129 q 669 114 679 118 q 647 106 658 110 q 613 97 626 99 q 569 96 600 96 q 554 100 564 96 q 514 113 547 104 q 469 126 482 121 q 479 136 472 129 q 494 147 486 143 l 511 153 q 539 143 528 140 q 561 160 542 143 m 431 475 l 438 497 l 513 497 l 519 460 q 528 403 524 425 q 532 360 532 382 q 531 336 531 349 q 531 314 531 325 l 508 301 l 508 367 l 511 408 l 508 411 l 506 408 q 497 353 497 379 q 497 343 497 351 q 494 325 496 335 q 492 305 493 315 q 492 289 492 294 q 475 278 488 288 l 468 282 q 468 299 468 288 q 467 315 468 310 l 463 325 q 457 313 460 324 q 450 300 454 301 l 442 299 l 414 318 l 418 356 q 421 402 419 378 q 425 446 422 426 l 431 475 m 572 619 q 517 590 522 619 q 511 549 511 567 l 511 508 l 435 508 l 435 550 q 468 661 435 629 q 564 701 501 693 l 611 701 l 611 726 l 644 726 l 644 746 l 668 746 l 668 786 l 600 786 l 600 822 l 664 822 q 670 833 667 829 q 683 838 674 838 q 697 833 693 838 q 704 822 701 828 l 767 822 l 767 786 l 700 786 l 700 746 l 724 746 l 724 726 l 754 726 l 754 701 l 778 701 l 778 731 l 803 731 l 803 765 l 840 765 l 840 554 l 803 554 l 803 590 l 778 590 l 778 619 l 754 619 l 754 596 l 735 596 l 735 565 l 628 565 l 628 596 l 611 596 l 611 619 l 572 619 m 568 408 q 578 401 578 410 l 574 392 q 560 376 567 383 q 553 360 553 368 q 550 367 553 358 l 550 375 q 568 408 550 399 m 622 408 l 625 401 q 618 390 625 394 l 592 364 q 611 408 592 393 q 622 408 618 413 m 608 453 q 615 451 611 456 q 617 444 618 447 l 615 440 q 597 415 607 428 l 594 408 q 593 422 593 411 q 608 453 593 446 m 406 411 q 390 429 397 419 q 383 450 383 439 q 389 458 385 458 q 399 453 393 458 q 406 411 404 443 m 368 396 q 364 401 368 397 q 363 411 363 404 q 372 421 363 421 q 389 408 381 421 q 397 369 397 396 l 368 396 m 379 357 q 367 365 378 358 q 356 376 357 371 q 360 378 358 378 q 365 379 363 378 q 379 357 376 372 m 458 188 l 431 181 q 414 193 414 181 q 421 208 414 197 l 458 188 m 489 165 l 461 140 q 460 129 458 135 l 408 146 q 434 169 419 163 q 465 175 449 175 q 480 172 474 175 q 489 165 486 168 m 464 138 q 475 149 469 146 q 486 157 481 153 l 496 161 q 467 133 485 142 l 464 138 m 525 201 q 538 203 532 206 q 558 192 544 201 q 560 169 565 183 q 548 152 556 160 q 528 150 540 144 q 507 172 507 158 q 525 201 507 192 m 521 49 q 532 56 521 53 q 564 51 553 56 q 581 42 575 47 q 552 44 569 42 q 521 49 535 46 m 376 78 l 343 72 q 318 82 331 72 q 296 101 306 92 l 376 78 z "},"x":{"ha":1028,"x_min":28,"x_max":1000,"o":"m 28 465 q 169 122 28 264 q 514 -19 313 -19 q 857 122 715 -19 q 1000 465 1000 264 q 857 810 1000 668 q 514 951 713 951 q 169 810 311 951 q 28 465 28 668 m 499 876 q 544 877 521 876 q 590 878 567 878 q 622 878 601 878 q 661 875 643 878 l 688 867 q 717 847 704 860 q 730 835 721 840 q 751 822 739 829 q 775 806 763 815 q 797 783 788 796 q 808 763 804 772 q 814 739 811 753 q 824 703 818 725 q 831 661 831 682 l 819 660 l 815 692 l 803 740 q 783 783 797 763 q 729 818 758 808 l 724 824 q 709 839 715 833 q 700 847 703 844 q 677 858 694 853 q 644 864 660 864 q 623 865 636 864 q 596 865 610 865 q 569 866 582 865 q 549 867 557 867 q 531 867 542 867 q 508 865 519 867 q 460 861 481 865 q 413 846 440 857 q 353 804 379 831 q 304 733 326 778 l 297 714 l 285 714 q 289 733 285 717 q 304 764 293 749 q 325 794 310 774 q 354 825 340 814 q 374 840 361 831 q 404 857 386 849 q 446 871 422 865 q 499 876 469 876 m 596 653 l 831 653 q 836 618 836 636 q 832 598 836 614 q 824 569 828 582 l 599 569 l 583 289 l 572 233 q 550 193 567 217 q 457 158 535 172 q 263 125 379 144 q 240 128 249 125 l 231 135 q 213 185 218 158 q 203 240 207 213 l 196 290 l 186 378 q 185 425 185 401 q 185 474 185 450 q 190 588 185 536 q 207 686 194 640 l 214 697 q 250 706 226 706 l 538 697 q 574 685 553 697 q 596 653 596 674 m 635 494 l 632 472 q 622 449 631 463 q 631 414 617 432 l 651 396 q 690 372 667 385 q 735 349 714 360 l 739 347 l 739 383 l 746 404 l 764 447 q 770 472 767 457 q 778 506 774 486 q 787 539 783 525 q 793 563 790 553 l 807 563 l 778 444 q 765 406 772 424 q 754 381 758 388 q 753 360 751 367 q 760 327 753 344 q 778 285 767 310 l 690 242 q 648 222 675 235 q 596 203 621 208 q 622 222 606 215 l 672 246 l 692 257 q 707 265 697 261 q 726 274 717 269 q 743 283 735 279 q 756 290 751 288 l 758 294 l 746 328 l 713 346 q 647 384 676 367 q 613 414 618 401 q 607 446 603 428 q 614 465 610 454 q 618 483 618 475 q 615 520 621 506 q 611 542 608 535 q 611 551 611 544 q 614 561 611 558 l 622 560 q 624 547 624 554 q 625 533 624 542 l 635 494 m 460 168 q 526 192 503 172 q 560 239 550 213 q 574 342 574 285 l 586 646 q 572 672 583 660 q 535 686 561 683 q 503 687 533 686 q 411 689 474 688 q 313 691 350 690 q 261 692 276 692 l 243 692 q 214 658 221 692 q 212 640 214 651 q 208 615 210 628 q 204 590 206 603 q 203 569 203 578 q 199 511 199 538 q 199 458 199 486 q 202 358 199 400 q 211 282 206 315 q 224 210 217 249 q 240 149 231 172 l 251 139 l 267 139 l 460 168 m 411 638 q 478 658 446 643 q 493 649 490 663 q 499 618 496 636 l 494 594 l 486 575 l 486 567 l 494 540 q 496 514 496 533 q 507 510 500 510 q 522 520 517 510 q 535 536 528 531 q 552 545 543 542 q 569 546 561 549 l 569 540 q 549 533 556 535 q 528 507 532 521 l 521 501 q 499 501 508 500 q 485 513 489 503 l 485 528 q 476 560 485 536 q 479 589 471 575 q 488 618 488 603 q 485 638 488 631 q 475 647 483 646 l 460 639 l 440 631 q 417 628 432 628 l 389 628 l 382 629 l 357 639 q 324 643 333 644 l 314 642 l 301 614 q 296 564 296 593 q 300 538 299 556 q 292 515 299 526 q 275 490 285 503 q 255 465 265 478 q 239 440 244 453 q 238 429 235 433 q 248 422 242 425 q 261 417 254 419 q 269 411 268 414 l 269 378 l 272 368 q 269 353 275 360 l 271 347 l 275 338 q 276 325 276 335 q 274 303 276 318 q 271 279 271 288 q 294 252 271 258 q 335 249 317 246 q 383 260 358 254 q 433 271 408 265 l 450 274 l 458 272 q 486 249 478 264 q 514 213 494 235 l 508 207 l 501 210 q 488 224 496 214 q 473 244 481 235 q 458 260 465 254 q 447 261 451 265 q 426 257 439 261 q 396 249 413 253 q 361 240 379 244 q 325 236 343 236 q 284 243 303 236 q 261 272 265 250 l 260 290 q 263 307 261 299 q 265 326 265 315 q 263 339 263 339 l 258 346 q 263 363 256 350 q 257 379 257 368 q 257 388 257 382 q 258 404 257 394 l 250 410 q 226 424 233 411 q 226 442 222 433 l 240 458 q 261 488 244 464 q 285 522 278 510 q 289 543 292 533 q 285 568 285 556 q 290 606 285 588 q 301 647 294 625 q 285 650 293 647 q 275 660 276 653 q 275 679 271 668 l 282 679 q 290 659 282 661 q 319 656 299 657 q 347 651 342 653 q 376 643 356 650 q 411 638 397 636 z "},"y":{"ha":1028,"x_min":28,"x_max":1000,"o":"m 28 465 q 169 122 28 264 q 514 -19 313 -19 q 857 122 715 -19 q 1000 465 1000 264 q 857 808 1000 667 q 514 951 715 951 q 169 808 313 951 q 28 465 28 667 m 528 892 q 633 876 592 892 q 690 853 675 861 q 714 836 706 844 q 736 814 726 828 q 765 790 750 803 q 796 739 781 778 q 812 680 811 703 q 813 644 813 657 l 813 603 q 808 577 810 590 q 786 544 806 564 q 794 592 789 561 q 799 642 799 622 q 793 688 799 669 q 772 754 786 726 q 731 797 757 782 q 685 838 713 822 q 630 860 658 853 q 574 871 601 868 q 525 874 546 874 q 444 864 489 874 q 360 840 399 854 q 286 803 322 828 q 238 729 250 778 q 229 676 229 704 q 238 614 229 644 l 261 535 q 247 551 253 542 q 235 568 240 560 q 216 633 221 607 q 211 694 211 658 q 223 745 211 714 q 260 800 235 776 q 383 870 318 849 q 528 892 449 892 m 625 661 q 542 644 583 644 q 492 645 511 644 q 461 646 472 646 q 469 649 463 647 q 474 656 475 651 q 460 657 471 657 q 411 654 440 657 q 357 646 382 651 l 297 626 q 284 620 290 624 q 278 590 278 617 q 278 576 278 585 q 279 558 278 569 l 267 558 q 262 590 263 576 q 261 619 261 604 q 282 638 261 629 q 321 651 303 646 q 378 669 349 663 q 426 675 407 675 l 476 675 q 499 675 485 675 q 526 672 514 675 l 525 663 q 542 661 529 661 q 610 674 578 661 q 644 688 643 686 q 653 693 646 689 q 671 704 660 697 q 705 729 696 721 q 722 746 714 738 l 722 694 l 724 671 l 728 653 l 757 576 q 761 556 761 565 l 747 556 l 743 568 q 728 594 735 582 q 715 622 721 607 q 707 656 710 636 q 704 706 704 676 q 669 681 685 689 q 625 661 654 674 m 517 464 q 561 456 536 464 q 621 435 586 447 q 653 431 638 431 q 681 434 665 431 q 715 451 696 438 q 756 490 733 464 q 808 561 779 515 q 815 544 810 556 q 734 409 771 486 q 679 240 697 332 l 749 213 l 744 197 l 696 214 l 672 219 q 660 177 665 193 q 653 154 656 161 q 639 128 649 142 l 631 118 q 596 107 624 114 q 546 99 569 100 q 497 99 522 99 q 455 102 471 101 q 433 104 439 103 q 415 111 424 107 q 400 119 406 115 q 363 215 386 133 q 333 208 354 214 q 286 196 311 203 l 281 211 l 357 238 q 351 265 354 249 q 342 300 347 281 q 333 334 336 319 q 326 357 329 349 l 306 415 q 272 479 290 450 q 228 542 253 508 l 232 561 q 319 458 285 483 q 363 436 353 432 q 383 438 379 436 q 401 442 388 439 q 439 451 415 444 q 517 464 486 464 m 179 476 q 190 518 179 499 q 222 538 200 538 l 233 521 l 211 513 l 201 499 q 200 478 200 494 q 205 427 200 464 q 247 328 210 390 q 276 313 251 319 l 279 301 q 293 224 289 265 l 279 218 q 271 251 275 235 q 264 286 267 268 l 261 289 q 240 301 254 286 q 211 342 225 315 q 188 403 197 368 q 179 476 178 438 m 517 6 l 493 6 q 452 9 476 3 q 401 35 428 15 q 344 90 374 54 q 288 186 314 126 l 304 192 q 341 127 322 156 q 379 76 360 99 q 444 26 418 33 q 503 21 467 21 q 581 25 536 21 q 603 32 592 25 l 632 53 q 661 86 649 71 q 683 115 674 101 q 703 149 693 129 q 726 193 714 168 l 742 188 q 699 108 726 147 q 639 39 671 68 q 587 9 608 13 q 535 6 565 6 l 517 6 m 849 475 q 836 399 849 435 q 808 336 824 364 q 786 300 794 308 q 767 289 778 292 l 764 286 q 758 254 761 274 q 751 221 756 235 l 736 228 q 744 265 739 242 q 751 315 749 288 q 763 317 756 315 q 781 329 771 319 q 799 358 792 340 q 817 413 806 375 q 826 447 825 435 q 828 486 828 460 q 810 518 828 513 l 822 538 q 843 513 838 529 q 849 475 849 497 m 515 419 q 486 415 500 421 l 413 397 q 393 394 406 394 q 372 393 382 394 q 356 388 361 392 q 356 376 350 385 l 399 192 q 404 175 401 181 q 408 167 407 169 l 426 154 q 467 144 449 146 q 515 143 485 143 l 544 143 q 603 151 576 143 q 631 171 629 160 q 668 314 654 263 q 682 369 682 365 q 674 378 682 375 q 653 383 665 381 q 626 387 640 385 q 601 393 613 389 l 542 414 q 515 419 525 419 z "},"z":{"ha":1028,"x_min":28,"x_max":1000,"o":"m 28 465 q 171 121 28 263 q 514 -19 315 -19 q 858 121 715 -19 q 1000 465 1000 263 q 857 808 1000 667 q 514 950 713 950 q 169 808 311 950 q 28 465 28 667 m 744 682 l 744 250 q 676 92 744 156 q 514 28 611 28 q 350 92 418 28 q 283 250 283 156 l 283 682 q 350 839 283 774 q 514 906 418 906 q 678 840 610 906 q 744 682 744 775 m 351 479 l 668 479 l 668 661 l 351 661 l 351 479 m 463 418 l 561 418 l 561 443 l 463 443 l 463 418 m 358 656 l 661 656 l 661 485 l 358 485 l 358 656 m 649 643 l 371 643 l 371 497 l 649 497 l 649 643 z "},"{":{"ha":772,"x_min":28,"x_max":743,"o":"m 426 628 l 399 628 q 413 613 399 613 q 426 628 426 613 m 294 628 l 265 628 q 279 613 265 613 q 294 628 294 613 m 740 619 q 743 636 743 633 q 731 672 743 657 q 701 686 719 686 q 664 660 681 686 l 558 489 q 546 479 553 479 q 532 500 533 479 l 531 919 q 515 957 531 942 q 479 972 500 972 q 442 957 457 972 q 426 919 426 942 l 426 628 q 413 613 426 613 q 399 628 399 613 l 397 919 q 382 957 397 942 q 346 972 367 972 q 308 957 322 972 q 294 919 294 942 l 294 628 q 279 613 294 613 q 265 628 265 613 l 265 919 q 250 957 265 942 q 214 972 235 972 q 176 957 192 972 q 161 919 161 942 l 161 628 q 146 613 161 613 q 132 628 132 613 l 132 904 q 117 941 132 926 q 81 956 103 956 q 43 940 58 956 q 28 904 28 925 l 28 185 q 46 117 28 126 q 76 93 65 107 q 88 50 88 79 l 88 0 l 482 0 l 482 71 q 492 99 485 90 q 524 111 500 108 q 560 132 549 115 q 585 181 572 149 l 740 619 m 518 901 l 442 901 l 442 917 q 453 944 442 933 q 479 956 464 956 q 507 944 496 956 q 518 917 518 933 l 518 901 m 496 885 l 442 797 l 442 885 l 496 885 m 518 783 l 454 783 l 518 885 l 518 783 m 518 725 l 442 725 l 442 768 l 518 768 l 518 725 m 518 665 l 442 665 l 442 710 l 518 710 l 518 665 m 472 278 l 353 278 l 353 158 l 250 158 l 250 278 l 131 278 l 131 379 l 250 379 l 250 500 l 353 500 l 353 379 l 472 379 l 472 278 z "},"|":{"ha":1031,"x_min":28,"x_max":1003,"o":"m 1003 56 q 992 88 1003 72 l 568 943 q 519 974 554 974 q 471 943 485 974 l 39 88 q 28 56 28 72 q 44 17 28 33 q 82 1 60 1 l 949 1 q 987 17 971 1 q 1003 56 1003 33 m 949 56 l 79 56 l 519 919 l 949 56 m 461 486 q 415 531 461 531 q 371 486 371 531 q 383 453 371 465 q 415 440 396 440 q 461 486 461 440 m 726 129 q 710 154 726 143 l 549 238 l 619 289 l 649 219 q 675 203 654 203 q 704 231 704 203 l 701 243 l 658 346 q 632 363 651 363 q 614 356 625 363 l 542 303 l 518 401 l 549 421 l 624 547 q 626 560 624 547 q 599 589 626 589 q 574 574 581 589 l 508 465 l 385 401 q 360 364 369 390 l 303 214 l 303 206 q 331 176 303 176 q 357 194 349 176 l 410 338 l 451 239 q 473 210 457 224 q 522 186 489 196 l 685 104 q 697 100 686 101 q 718 109 710 100 q 726 129 726 118 z "},"}":{"ha":1031,"x_min":28,"x_max":1003,"o":"m 1003 54 q 992 86 1003 71 l 567 942 q 518 972 553 972 q 469 942 486 972 l 38 86 q 28 54 28 72 q 43 15 28 31 q 82 0 58 0 l 949 0 q 988 15 972 0 q 1003 54 1003 31 m 949 54 l 79 54 l 518 918 l 949 54 m 507 569 q 496 596 507 585 q 469 607 485 607 q 442 596 453 607 q 431 569 431 585 q 442 542 431 553 q 469 531 453 531 q 496 542 485 531 q 507 569 507 554 m 650 392 l 650 513 l 460 513 l 460 363 l 343 363 l 332 225 l 369 221 l 378 324 l 485 324 l 324 169 l 353 140 l 544 322 l 544 474 l 611 474 l 611 392 l 650 392 m 642 128 l 642 206 l 310 128 l 642 128 z "},"~":{"ha":1168,"x_min":26,"x_max":1144,"o":"m 747 774 l 739 817 l 711 813 q 689 860 704 839 l 710 878 l 682 913 l 660 893 q 646 906 654 899 q 626 919 638 913 l 618 924 l 628 950 l 586 965 l 576 939 q 544 944 554 944 q 524 944 536 944 l 518 971 l 476 964 l 479 938 q 432 915 451 929 l 414 936 l 381 907 l 397 886 l 372 851 l 368 843 l 343 851 l 326 811 l 351 801 q 347 774 347 788 q 347 749 347 761 l 321 744 l 329 700 l 354 704 q 378 656 363 682 l 361 642 l 389 608 l 406 624 q 422 610 414 617 q 440 597 431 603 l 450 592 l 443 571 l 483 557 l 492 578 q 511 574 499 575 l 544 574 l 549 550 l 592 558 l 588 581 q 636 603 610 586 l 650 586 l 683 614 l 669 631 q 696 665 685 646 l 701 676 l 722 668 l 736 708 l 715 715 q 719 769 719 733 l 747 774 m 1140 556 q 1051 557 1088 556 q 1008 560 1015 558 q 985 565 1001 563 q 957 568 969 568 q 936 565 950 568 q 921 561 928 561 q 908 567 911 561 q 911 579 904 572 q 930 598 922 590 q 943 608 938 606 q 1000 615 954 615 q 1072 631 1050 615 q 1093 668 1093 646 q 1076 690 1093 690 q 1056 686 1068 690 q 999 681 1028 682 q 942 681 969 681 q 885 657 908 681 l 868 642 q 849 640 860 635 q 850 656 839 646 q 871 703 865 672 q 924 742 892 713 q 953 800 953 768 q 929 839 953 828 q 897 826 908 844 q 865 782 886 807 q 837 757 850 765 q 813 741 824 749 q 792 723 801 733 q 774 690 782 713 l 756 647 l 718 640 q 713 633 715 638 q 704 621 710 628 l 714 586 l 667 550 l 638 567 q 608 551 625 557 l 603 526 l 544 513 l 528 540 l 496 540 l 474 521 l 422 540 l 428 567 q 360 556 385 560 q 317 547 335 551 q 284 537 300 543 q 243 519 268 531 q 183 479 211 504 q 100 417 156 454 q 28 372 43 378 q 26 350 26 368 q 36 282 26 319 q 47 247 40 263 q 60 217 54 232 q 71 186 67 203 q 75 149 75 169 q 70 99 75 128 q 61 58 65 71 l 254 240 q 285 210 261 221 q 336 199 308 199 q 368 203 353 199 q 406 170 388 188 q 440 135 424 153 q 474 11 474 99 q 507 0 489 0 q 533 8 521 0 q 549 31 544 15 q 556 56 554 47 q 558 82 558 65 q 547 144 558 107 q 519 206 536 179 q 501 261 501 232 q 511 310 501 285 q 531 344 521 336 q 556 369 540 353 q 596 404 571 386 l 592 442 l 669 493 l 697 468 q 728 477 715 475 q 754 479 742 479 l 771 513 l 851 499 l 861 479 l 949 479 q 972 478 957 479 q 1001 478 986 478 q 1031 477 1017 478 q 1057 475 1046 476 q 1118 495 1092 475 q 1140 556 1144 515 m 988 258 l 958 263 q 953 302 958 281 q 940 339 947 324 l 965 356 l 925 414 l 901 397 q 836 439 874 425 l 840 468 l 771 481 l 765 451 q 689 435 724 451 l 672 458 l 615 418 l 632 394 q 589 328 604 364 l 560 333 l 549 264 l 578 258 q 594 182 578 217 l 569 165 l 611 107 l 635 124 q 701 82 664 96 l 696 53 l 764 42 l 769 71 q 847 88 811 71 l 864 63 l 921 103 l 904 126 q 946 193 931 153 l 975 188 l 988 258 m 663 685 q 533 610 621 610 q 440 642 497 610 q 385 760 385 675 q 417 853 385 796 q 535 908 447 908 q 628 876 571 908 q 683 758 683 846 q 663 685 683 719 m 918 233 q 865 142 907 178 q 767 107 822 107 q 722 114 761 107 q 650 161 686 121 q 615 258 615 201 q 617 275 615 264 q 621 306 618 286 q 669 378 626 342 q 769 414 714 414 q 814 407 775 414 q 885 358 850 400 q 921 258 921 314 q 920 248 921 254 q 918 233 919 242 z "}}}
